M48
; DRILL file {KiCad 8.0.2} date 2024-08-26T00:59:52-0400
; FORMAT={-:-/ absolute / inch / decimal}
; #@! TF.CreationDate,2024-08-26T00:59:52-04:00
; #@! TF.GenerationSoftware,Kicad,Pcbnew,8.0.2
; #@! TF.FileFunction,Plated,1,2,PTH
FMAT,2
INCH
; #@! TA.AperFunction,Plated,PTH,ComponentDrill
T1C0.0220
; #@! TA.AperFunction,Plated,PTH,ViaDrill
T2C0.0276
; #@! TA.AperFunction,Plated,PTH,ComponentDrill
T3C0.0276
; #@! TA.AperFunction,Plated,PTH,ViaDrill
T4C0.0280
; #@! TA.AperFunction,Plated,PTH,ComponentDrill
T5C0.0354
; #@! TA.AperFunction,Plated,PTH,ComponentDrill
T6C0.0394
; #@! TA.AperFunction,Plated,PTH,ComponentDrill
T7C0.0433
; #@! TA.AperFunction,Plated,PTH,ComponentDrill
T8C0.0500
; #@! TA.AperFunction,Plated,PTH,ComponentDrill
T9C0.1260
%
G90
G05
T1
X3.7848Y-3.5348
X3.8348Y-3.4848
X3.8348Y-3.5848
T2
X1.675Y-3.8
X2.3648Y-2.7748
X2.3848Y-2.3748
X2.4848Y-2.3748
X2.5848Y-2.3748
X2.8348Y-2.5748
X2.8348Y-2.7148
X3.2848Y-3.6348
X3.3348Y-2.6748
X3.3748Y-3.7548
X3.6848Y-1.7548
X3.7848Y-1.7548
X3.8848Y-1.7548
X3.9348Y-2.6748
X3.9848Y-1.7548
X4.0848Y-1.7548
X4.1848Y-1.7548
X4.2848Y-1.7548
T3
X1.8848Y-1.9848
X1.8848Y-2.2848
X1.8848Y-2.5048
X1.8848Y-3.1048
X1.9848Y-1.9848
X1.9848Y-2.2848
X1.9848Y-2.5048
X1.9848Y-3.1048
X2.0848Y-1.9848
X2.0848Y-2.2848
X2.0848Y-2.5048
X2.0848Y-3.1048
X2.1848Y-1.9848
X2.1848Y-2.2848
X2.1848Y-2.5048
X2.1848Y-3.1048
X2.2848Y-1.9848
X2.2848Y-2.2848
X2.2848Y-2.5048
X2.2848Y-3.1048
X2.3848Y-1.9848
X2.3848Y-2.2848
X2.3848Y-2.5048
X2.3848Y-3.1048
X2.4848Y-1.9848
X2.4848Y-2.2848
X2.4848Y-2.5048
X2.4848Y-3.1048
X2.5848Y-1.9848
X2.5848Y-2.2848
X2.5848Y-2.5048
X2.5848Y-3.1048
X2.6848Y-1.9848
X2.6848Y-2.2848
X2.6848Y-2.5048
X2.6848Y-3.1048
X2.7848Y-1.9848
X2.7848Y-2.2848
X2.7848Y-2.5048
X2.7848Y-3.1048
X2.8848Y-2.5048
X2.8848Y-3.1048
X2.9448Y-1.9848
X2.9448Y-2.2848
X2.9848Y-2.5048
X2.9848Y-3.1048
X3.0448Y-1.9848
X3.0448Y-2.2848
X3.0848Y-2.5048
X3.0848Y-3.1048
X3.1448Y-1.9848
X3.1448Y-2.2848
X3.1748Y-3.2648
X3.1848Y-2.5048
X3.1848Y-3.1048
X3.2448Y-1.9848
X3.2448Y-2.2848
X3.2848Y-2.5048
X3.2848Y-3.1048
X3.3448Y-1.9848
X3.3448Y-2.2848
X3.3748Y-3.2648
X3.3848Y-2.5048
X3.3848Y-3.1048
X3.4448Y-1.9848
X3.4448Y-2.2848
X3.4848Y-2.5048
X3.4848Y-3.1048
X3.5448Y-1.9848
X3.5448Y-2.2848
X3.5848Y-2.5048
X3.5848Y-3.1048
X3.6448Y-1.9848
X3.6448Y-2.2848
X3.6848Y-2.5048
X3.6848Y-3.1048
X3.7448Y-1.9848
X3.7448Y-2.2848
X3.7848Y-2.5048
X3.7848Y-3.1048
X3.8448Y-1.9848
X3.8448Y-2.2848
X3.9448Y-3.2648
X3.975Y-3.5375
X4.0148Y-1.9848
X4.0148Y-2.2848
X4.025Y-3.4875
X4.025Y-3.5875
X4.0448Y-3.2648
X4.0848Y-2.5048
X4.0848Y-2.8048
X4.1048Y-2.9848
X4.1148Y-1.9848
X4.1148Y-2.2848
X4.1848Y-2.5048
X4.1848Y-2.8048
X4.2048Y-2.9848
X4.2148Y-1.9848
X4.2148Y-2.2848
X4.2848Y-2.5048
X4.2848Y-2.8048
X4.3148Y-1.9848
X4.3148Y-2.2848
X4.3848Y-2.5048
X4.3848Y-2.8048
X4.3948Y-2.9848
X4.4148Y-1.9848
X4.4148Y-2.2848
X4.4848Y-2.5048
X4.4848Y-2.8048
X4.4948Y-2.9848
X4.5148Y-1.9848
X4.5148Y-2.2848
X4.5848Y-2.5048
X4.5848Y-2.8048
X4.6148Y-1.9848
X4.6148Y-2.2848
X4.6848Y-2.5048
X4.6848Y-2.8048
X4.6848Y-2.9848
X4.7148Y-1.9848
X4.7148Y-2.2848
X4.7848Y-2.5048
X4.7848Y-2.8048
X4.7848Y-2.9848
X4.8048Y-3.2048
X4.8048Y-3.5048
X4.9048Y-3.2048
X4.9048Y-3.5048
X4.9048Y-3.6348
X4.9048Y-3.7348
X4.9648Y-2.2948
X4.9648Y-2.3948
X5.0048Y-3.2048
X5.0048Y-3.5048
X5.1048Y-3.2048
X5.1048Y-3.5048
X5.1948Y-1.9348
X5.1948Y-2.0348
X5.2148Y-2.2948
X5.2148Y-2.3948
T4
X4.4625Y-2.075
T5
X1.6048Y-1.9848
X1.6048Y-2.3848
X1.6648Y-2.5748
X1.6648Y-2.6748
X1.6648Y-2.7748
X1.6648Y-2.8748
X1.6648Y-2.9748
X1.6748Y-3.2748
X1.6748Y-3.6748
X1.7448Y-2.0348
X1.7448Y-2.2348
X1.7848Y-3.2748
X1.7848Y-3.6748
X2.1648Y-3.2548
X2.5648Y-3.2548
X2.7848Y-3.2648
X2.9848Y-3.2648
X3.1848Y-3.4548
X3.1848Y-3.5748
X3.1848Y-3.6948
X3.1848Y-3.8148
X3.1848Y-3.9348
X3.1848Y-4.0548
X3.1848Y-4.1848
X3.1848Y-4.3048
X3.5548Y-3.2648
X3.5848Y-3.4548
X3.5848Y-3.5748
X3.5848Y-3.6948
X3.5848Y-3.8148
X3.5848Y-3.9348
X3.5848Y-4.0548
X3.5848Y-4.1848
X3.5848Y-4.3048
X3.7248Y-3.9048
X3.7248Y-4.3048
X3.7548Y-3.2648
X3.8148Y-3.7248
X3.8448Y-3.9048
X3.8448Y-4.3048
X4.0148Y-3.7248
X4.2548Y-3.2048
X4.2548Y-3.6048
X4.3848Y-3.2048
X4.3848Y-3.6048
X4.5048Y-3.2048
X4.5048Y-3.6048
X4.6348Y-3.2048
X4.6348Y-3.6048
X4.9348Y-1.8648
X4.9348Y-2.0648
T6
X3.3848Y-4.4948
X3.4848Y-4.4948
X3.6748Y-4.4948
X3.7748Y-4.4948
X4.0148Y-4.1048
X5.0448Y-2.6248
X5.0448Y-2.7248
X5.0448Y-2.8248
X5.0448Y-2.9248
X5.0448Y-3.0248
X5.1148Y-4.0548
X5.1148Y-4.1548
T7
X2.0348Y-1.5748
X2.0348Y-1.6748
X2.1348Y-1.5748
X2.1348Y-1.6748
X2.2348Y-1.5748
X2.2348Y-1.6748
X2.3348Y-1.5748
X2.3348Y-1.6748
X2.4348Y-1.5748
X2.4348Y-1.6748
X2.5348Y-1.5748
X2.5348Y-1.6748
X2.6348Y-1.5748
X2.6348Y-1.6748
X2.7348Y-1.5748
X2.7348Y-1.6748
X2.8348Y-1.5748
X2.8348Y-1.6748
X2.9348Y-1.5748
X2.9348Y-1.6748
X3.0348Y-1.5748
X3.0348Y-1.6748
X3.1348Y-1.5748
X3.1348Y-1.6748
X3.2348Y-1.5748
X3.2348Y-1.6748
X3.3348Y-1.5748
X3.3348Y-1.6748
X3.4348Y-1.5748
X3.4348Y-1.6748
X3.5348Y-1.5748
X3.5348Y-1.6748
X3.6348Y-1.5748
X3.6348Y-1.6748
X3.7348Y-1.5748
X3.7348Y-1.6748
X3.8348Y-1.5748
X3.8348Y-1.6748
X3.9348Y-1.5748
X3.9348Y-1.6748
X4.0348Y-1.5748
X4.0348Y-1.6748
X4.1348Y-1.5748
X4.1348Y-1.6748
X4.2348Y-1.5748
X4.2348Y-1.6748
X4.3348Y-1.5748
X4.3348Y-1.6748
X4.4348Y-1.5748
X4.4348Y-1.6748
X4.7875Y-1.6248
X4.8875Y-1.6248
T8
X1.725Y-3.9
X1.725Y-4.152
T9
X1.7Y-1.675
X1.7Y-4.425
X5.15Y-1.675
X5.15Y-4.425
M30
