%TF.GenerationSoftware,KiCad,Pcbnew,8.0.2*%
%TF.CreationDate,2024-08-26T00:59:50-04:00*%
%TF.ProjectId,fredhd_rel1,66726564-6864-45f7-9265-6c312e6b6963,rev?*%
%TF.SameCoordinates,Original*%
%TF.FileFunction,Soldermask,Bot*%
%TF.FilePolarity,Negative*%
%FSLAX46Y46*%
G04 Gerber Fmt 4.6, Leading zero omitted, Abs format (unit mm)*
G04 Created by KiCad (PCBNEW 8.0.2) date 2024-08-26 00:59:50*
%MOMM*%
%LPD*%
G01*
G04 APERTURE LIST*
%ADD10R,1.575000X1.575000*%
%ADD11C,1.575000*%
%ADD12R,1.778000X1.524000*%
%ADD13O,1.778000X1.524000*%
%ADD14C,2.032000*%
%ADD15C,1.829000*%
%ADD16C,1.397000*%
%ADD17C,5.000000*%
%ADD18R,1.397000X1.905000*%
%ADD19O,1.397000X1.905000*%
%ADD20C,1.727000*%
%ADD21C,1.905000*%
%ADD22O,2.032000X3.810000*%
%ADD23R,1.270000X2.286000*%
%ADD24O,1.270000X2.286000*%
%ADD25R,2.159000X2.159000*%
%ADD26O,2.159000X2.159000*%
%ADD27R,1.778000X1.778000*%
%ADD28C,1.778000*%
%ADD29R,1.524000X2.286000*%
%ADD30O,1.524000X2.286000*%
%ADD31R,2.286000X1.524000*%
%ADD32O,2.286000X1.524000*%
G04 APERTURE END LIST*
D10*
%TO.C,U3*%
X97658000Y-50414000D03*
D11*
X95118000Y-50414000D03*
X92578000Y-50414000D03*
X90038000Y-50414000D03*
X87498000Y-50414000D03*
X84958000Y-50414000D03*
X82418000Y-50414000D03*
X79878000Y-50414000D03*
X77338000Y-50414000D03*
X74798000Y-50414000D03*
X74798000Y-58034000D03*
X77338000Y-58034000D03*
X79878000Y-58034000D03*
X82418000Y-58034000D03*
X84958000Y-58034000D03*
X87498000Y-58034000D03*
X90038000Y-58034000D03*
X92578000Y-58034000D03*
X95118000Y-58034000D03*
X97658000Y-58034000D03*
%TD*%
D10*
%TO.C,U2*%
X70734000Y-50414000D03*
D11*
X68194000Y-50414000D03*
X65654000Y-50414000D03*
X63114000Y-50414000D03*
X60574000Y-50414000D03*
X58034000Y-50414000D03*
X55494000Y-50414000D03*
X52954000Y-50414000D03*
X50414000Y-50414000D03*
X47874000Y-50414000D03*
X47874000Y-58034000D03*
X50414000Y-58034000D03*
X52954000Y-58034000D03*
X55494000Y-58034000D03*
X58034000Y-58034000D03*
X60574000Y-58034000D03*
X63114000Y-58034000D03*
X65654000Y-58034000D03*
X68194000Y-58034000D03*
X70734000Y-58034000D03*
%TD*%
D12*
%TO.C,J1*%
X42286000Y-75560000D03*
D13*
X42286000Y-73020000D03*
X42286000Y-70480000D03*
X42286000Y-67940000D03*
X42286000Y-65400000D03*
%TD*%
D14*
%TO.C,R9*%
X80894000Y-96896000D03*
X91054000Y-96896000D03*
%TD*%
%TO.C,R4*%
X54986000Y-82672000D03*
X65146000Y-82672000D03*
%TD*%
D15*
%TO.C,D2*%
X93340000Y-114168000D03*
X95880000Y-114168000D03*
%TD*%
D14*
%TO.C,R3*%
X45334000Y-83180000D03*
X45334000Y-93340000D03*
%TD*%
D11*
%TO.C,C5*%
X102738000Y-82926000D03*
X100198000Y-82926000D03*
%TD*%
D14*
%TO.C,R18*%
X117724000Y-81402000D03*
X117724000Y-91562000D03*
%TD*%
D10*
%TO.C,U1*%
X47874000Y-78862000D03*
D11*
X50414000Y-78862000D03*
X52954000Y-78862000D03*
X55494000Y-78862000D03*
X58034000Y-78862000D03*
X60574000Y-78862000D03*
X63114000Y-78862000D03*
X65654000Y-78862000D03*
X68194000Y-78862000D03*
X70734000Y-78862000D03*
X73274000Y-78862000D03*
X75814000Y-78862000D03*
X78354000Y-78862000D03*
X80894000Y-78862000D03*
X83434000Y-78862000D03*
X85974000Y-78862000D03*
X88514000Y-78862000D03*
X91054000Y-78862000D03*
X93594000Y-78862000D03*
X96134000Y-78862000D03*
X96134000Y-63622000D03*
X93594000Y-63622000D03*
X91054000Y-63622000D03*
X88514000Y-63622000D03*
X85974000Y-63622000D03*
X83434000Y-63622000D03*
X80894000Y-63622000D03*
X78354000Y-63622000D03*
X75814000Y-63622000D03*
X73274000Y-63622000D03*
X70734000Y-63622000D03*
X68194000Y-63622000D03*
X65654000Y-63622000D03*
X63114000Y-63622000D03*
X60574000Y-63622000D03*
X58034000Y-63622000D03*
X55494000Y-63622000D03*
X52954000Y-63622000D03*
X50414000Y-63622000D03*
X47874000Y-63622000D03*
%TD*%
D14*
%TO.C,R11*%
X91054000Y-90800000D03*
X80894000Y-90800000D03*
%TD*%
D11*
%TO.C,Y1*%
X80640000Y-82926000D03*
X85720000Y-82926000D03*
%TD*%
D14*
%TO.C,R16*%
X111374000Y-81402000D03*
X111374000Y-91562000D03*
%TD*%
%TO.C,R2*%
X40762000Y-50414000D03*
X40762000Y-60574000D03*
%TD*%
%TO.C,R17*%
X114422000Y-81402000D03*
X114422000Y-91562000D03*
%TD*%
D16*
%TO.C,U4*%
X97404000Y-88514000D03*
X96134000Y-89784000D03*
X97404000Y-91054000D03*
%TD*%
D11*
%TO.C,C10*%
X126106000Y-60828000D03*
X126106000Y-58288000D03*
%TD*%
D17*
%TO.C,H3*%
X130810000Y-112395000D03*
%TD*%
D18*
%TO.C,U6*%
X119756000Y-50414000D03*
D19*
X117216000Y-50414000D03*
X114676000Y-50414000D03*
X112136000Y-50414000D03*
X109596000Y-50414000D03*
X107056000Y-50414000D03*
X104516000Y-50414000D03*
X101976000Y-50414000D03*
X101976000Y-58034000D03*
X104516000Y-58034000D03*
X107056000Y-58034000D03*
X109596000Y-58034000D03*
X112136000Y-58034000D03*
X114676000Y-58034000D03*
X117216000Y-58034000D03*
X119756000Y-58034000D03*
%TD*%
D16*
%TO.C,Q1*%
X100965000Y-89852500D03*
X102235000Y-91122500D03*
X102235000Y-88582500D03*
%TD*%
D14*
%TO.C,R7*%
X80894000Y-102992000D03*
X91054000Y-102992000D03*
%TD*%
D20*
%TO.C,J2*%
X51684000Y-89022000D03*
X73784000Y-89022000D03*
%TD*%
D21*
%TO.C,C3*%
X90292000Y-82926000D03*
X95372000Y-82926000D03*
%TD*%
D22*
%TO.C,BAT1*%
X101976000Y-104262000D03*
X129916000Y-105532000D03*
X129916000Y-102992000D03*
%TD*%
D23*
%TO.C,U7*%
X122042000Y-89022000D03*
D24*
X124582000Y-89022000D03*
X127122000Y-89022000D03*
X129662000Y-89022000D03*
X129662000Y-81402000D03*
X127122000Y-81402000D03*
X124582000Y-81402000D03*
X122042000Y-81402000D03*
%TD*%
D11*
%TO.C,C8*%
X121534000Y-75814000D03*
X118994000Y-75814000D03*
%TD*%
%TO.C,C6*%
X104262000Y-75814000D03*
X106802000Y-75814000D03*
%TD*%
D14*
%TO.C,R15*%
X108072000Y-81402000D03*
X108072000Y-91562000D03*
%TD*%
%TO.C,R5*%
X80894000Y-109342000D03*
X91054000Y-109342000D03*
%TD*%
D11*
%TO.C,Y2*%
X124582000Y-92324000D03*
X124582000Y-94864000D03*
%TD*%
D17*
%TO.C,H2*%
X130810000Y-42545000D03*
%TD*%
D21*
%TO.C,C4*%
X96896000Y-94610000D03*
X101976000Y-94610000D03*
%TD*%
D14*
%TO.C,R1*%
X42540000Y-83180000D03*
X42540000Y-93340000D03*
%TD*%
D17*
%TO.C,H4*%
X43180000Y-112395000D03*
%TD*%
D25*
%TO.C,SW1*%
X43815000Y-105460000D03*
D26*
X43815000Y-99060000D03*
%TD*%
D14*
%TO.C,R8*%
X91054000Y-99944000D03*
X80894000Y-99944000D03*
%TD*%
D11*
%TO.C,C7*%
X111628000Y-75814000D03*
X114168000Y-75814000D03*
%TD*%
D18*
%TO.C,U5*%
X121534000Y-63622000D03*
D19*
X118994000Y-63622000D03*
X116454000Y-63622000D03*
X113914000Y-63622000D03*
X111374000Y-63622000D03*
X108834000Y-63622000D03*
X106294000Y-63622000D03*
X103754000Y-63622000D03*
X103754000Y-71242000D03*
X106294000Y-71242000D03*
X108834000Y-71242000D03*
X111374000Y-71242000D03*
X113914000Y-71242000D03*
X116454000Y-71242000D03*
X118994000Y-71242000D03*
X121534000Y-71242000D03*
%TD*%
D21*
%TO.C,C2*%
X75814000Y-82926000D03*
X70734000Y-82926000D03*
%TD*%
D14*
%TO.C,R10*%
X80894000Y-93848000D03*
X91054000Y-93848000D03*
%TD*%
D21*
%TO.C,C1*%
X44318000Y-56764000D03*
X44318000Y-51684000D03*
%TD*%
%TO.C,C9*%
X125344000Y-52446000D03*
X125344000Y-47366000D03*
%TD*%
D11*
%TO.C,C11*%
X132456000Y-60828000D03*
X132456000Y-58288000D03*
%TD*%
D14*
%TO.C,R14*%
X97658000Y-109342000D03*
X97658000Y-99182000D03*
%TD*%
D15*
%TO.C,D1*%
X85974000Y-114168000D03*
X88514000Y-114168000D03*
%TD*%
D17*
%TO.C,H1*%
X43180000Y-42545000D03*
%TD*%
D27*
%TO.C,J3*%
X112644000Y-40000000D03*
D28*
X112644000Y-42540000D03*
X110104000Y-40000000D03*
X110104000Y-42540000D03*
X107564000Y-40000000D03*
X107564000Y-42540000D03*
X105024000Y-40000000D03*
X105024000Y-42540000D03*
X102484000Y-40000000D03*
X102484000Y-42540000D03*
X99944000Y-40000000D03*
X99944000Y-42540000D03*
X97404000Y-40000000D03*
X97404000Y-42540000D03*
X94864000Y-40000000D03*
X94864000Y-42540000D03*
X92324000Y-40000000D03*
X92324000Y-42540000D03*
X89784000Y-40000000D03*
X89784000Y-42540000D03*
X87244000Y-40000000D03*
X87244000Y-42540000D03*
X84704000Y-40000000D03*
X84704000Y-42540000D03*
X82164000Y-40000000D03*
X82164000Y-42540000D03*
X79624000Y-40000000D03*
X79624000Y-42540000D03*
X77084000Y-40000000D03*
X77084000Y-42540000D03*
X74544000Y-40000000D03*
X74544000Y-42540000D03*
X72004000Y-40000000D03*
X72004000Y-42540000D03*
X69464000Y-40000000D03*
X69464000Y-42540000D03*
X66924000Y-40000000D03*
X66924000Y-42540000D03*
X64384000Y-40000000D03*
X64384000Y-42540000D03*
X61844000Y-40000000D03*
X61844000Y-42540000D03*
X59304000Y-40000000D03*
X59304000Y-42540000D03*
X56764000Y-40000000D03*
X56764000Y-42540000D03*
X54224000Y-40000000D03*
X54224000Y-42540000D03*
X51684000Y-40000000D03*
X51684000Y-42540000D03*
%TD*%
D11*
%TO.C,C12*%
X131948000Y-51684000D03*
X131948000Y-49144000D03*
%TD*%
D14*
%TO.C,R6*%
X91054000Y-106294000D03*
X80894000Y-106294000D03*
%TD*%
%TO.C,R13*%
X94610000Y-109342000D03*
X94610000Y-99182000D03*
%TD*%
%TO.C,R12*%
X80894000Y-87752000D03*
X91054000Y-87752000D03*
%TD*%
D29*
%TO.C,J4*%
X124142500Y-41270000D03*
D30*
X121602500Y-41270000D03*
%TD*%
D31*
%TO.C,J5*%
X128138000Y-76830000D03*
D32*
X128138000Y-74290000D03*
X128138000Y-71750000D03*
X128138000Y-69210000D03*
X128138000Y-66670000D03*
%TD*%
M02*
