%TF.GenerationSoftware,KiCad,Pcbnew,8.0.2*%
%TF.CreationDate,2024-08-26T00:59:49-04:00*%
%TF.ProjectId,fredhd_rel1,66726564-6864-45f7-9265-6c312e6b6963,rev?*%
%TF.SameCoordinates,Original*%
%TF.FileFunction,Legend,Top*%
%TF.FilePolarity,Positive*%
%FSLAX46Y46*%
G04 Gerber Fmt 4.6, Leading zero omitted, Abs format (unit mm)*
G04 Created by KiCad (PCBNEW 8.0.2) date 2024-08-26 00:59:50*
%MOMM*%
%LPD*%
G01*
G04 APERTURE LIST*
%ADD10C,0.254000*%
%ADD11C,0.203000*%
%ADD12C,0.150000*%
%ADD13C,0.305000*%
%ADD14C,0.120000*%
G04 APERTURE END LIST*
D10*
X116001200Y-40308772D02*
X115132628Y-40308772D01*
X115566914Y-40308772D02*
X115566914Y-38788772D01*
X115566914Y-38788772D02*
X115422152Y-39005915D01*
X115422152Y-39005915D02*
X115277390Y-39150677D01*
X115277390Y-39150677D02*
X115132628Y-39223058D01*
D11*
X131129266Y-72025472D02*
X131080694Y-72074044D01*
X131080694Y-72074044D02*
X130934980Y-72122615D01*
X130934980Y-72122615D02*
X130837837Y-72122615D01*
X130837837Y-72122615D02*
X130692123Y-72074044D01*
X130692123Y-72074044D02*
X130594980Y-71976901D01*
X130594980Y-71976901D02*
X130546409Y-71879758D01*
X130546409Y-71879758D02*
X130497837Y-71685472D01*
X130497837Y-71685472D02*
X130497837Y-71539758D01*
X130497837Y-71539758D02*
X130546409Y-71345472D01*
X130546409Y-71345472D02*
X130594980Y-71248329D01*
X130594980Y-71248329D02*
X130692123Y-71151186D01*
X130692123Y-71151186D02*
X130837837Y-71102615D01*
X130837837Y-71102615D02*
X130934980Y-71102615D01*
X130934980Y-71102615D02*
X131080694Y-71151186D01*
X131080694Y-71151186D02*
X131129266Y-71199758D01*
X131420694Y-71102615D02*
X132003552Y-71102615D01*
X131712123Y-72122615D02*
X131712123Y-71102615D01*
X132294980Y-72074044D02*
X132440695Y-72122615D01*
X132440695Y-72122615D02*
X132683552Y-72122615D01*
X132683552Y-72122615D02*
X132780695Y-72074044D01*
X132780695Y-72074044D02*
X132829266Y-72025472D01*
X132829266Y-72025472D02*
X132877837Y-71928329D01*
X132877837Y-71928329D02*
X132877837Y-71831186D01*
X132877837Y-71831186D02*
X132829266Y-71734044D01*
X132829266Y-71734044D02*
X132780695Y-71685472D01*
X132780695Y-71685472D02*
X132683552Y-71636901D01*
X132683552Y-71636901D02*
X132489266Y-71588329D01*
X132489266Y-71588329D02*
X132392123Y-71539758D01*
X132392123Y-71539758D02*
X132343552Y-71491186D01*
X132343552Y-71491186D02*
X132294980Y-71394044D01*
X132294980Y-71394044D02*
X132294980Y-71296901D01*
X132294980Y-71296901D02*
X132343552Y-71199758D01*
X132343552Y-71199758D02*
X132392123Y-71151186D01*
X132392123Y-71151186D02*
X132489266Y-71102615D01*
X132489266Y-71102615D02*
X132732123Y-71102615D01*
X132732123Y-71102615D02*
X132877837Y-71151186D01*
D10*
X48364819Y-41582772D02*
X47641009Y-41582772D01*
X47641009Y-41582772D02*
X47568628Y-42306582D01*
X47568628Y-42306582D02*
X47641009Y-42234201D01*
X47641009Y-42234201D02*
X47785771Y-42161820D01*
X47785771Y-42161820D02*
X48147676Y-42161820D01*
X48147676Y-42161820D02*
X48292438Y-42234201D01*
X48292438Y-42234201D02*
X48364819Y-42306582D01*
X48364819Y-42306582D02*
X48437200Y-42451344D01*
X48437200Y-42451344D02*
X48437200Y-42813249D01*
X48437200Y-42813249D02*
X48364819Y-42958011D01*
X48364819Y-42958011D02*
X48292438Y-43030392D01*
X48292438Y-43030392D02*
X48147676Y-43102772D01*
X48147676Y-43102772D02*
X47785771Y-43102772D01*
X47785771Y-43102772D02*
X47641009Y-43030392D01*
X47641009Y-43030392D02*
X47568628Y-42958011D01*
X49378152Y-41582772D02*
X49522914Y-41582772D01*
X49522914Y-41582772D02*
X49667676Y-41655153D01*
X49667676Y-41655153D02*
X49740057Y-41727534D01*
X49740057Y-41727534D02*
X49812438Y-41872296D01*
X49812438Y-41872296D02*
X49884819Y-42161820D01*
X49884819Y-42161820D02*
X49884819Y-42523725D01*
X49884819Y-42523725D02*
X49812438Y-42813249D01*
X49812438Y-42813249D02*
X49740057Y-42958011D01*
X49740057Y-42958011D02*
X49667676Y-43030392D01*
X49667676Y-43030392D02*
X49522914Y-43102772D01*
X49522914Y-43102772D02*
X49378152Y-43102772D01*
X49378152Y-43102772D02*
X49233390Y-43030392D01*
X49233390Y-43030392D02*
X49161009Y-42958011D01*
X49161009Y-42958011D02*
X49088628Y-42813249D01*
X49088628Y-42813249D02*
X49016247Y-42523725D01*
X49016247Y-42523725D02*
X49016247Y-42161820D01*
X49016247Y-42161820D02*
X49088628Y-41872296D01*
X49088628Y-41872296D02*
X49161009Y-41727534D01*
X49161009Y-41727534D02*
X49233390Y-41655153D01*
X49233390Y-41655153D02*
X49378152Y-41582772D01*
D11*
X131383266Y-69582615D02*
X131043266Y-69096901D01*
X130800409Y-69582615D02*
X130800409Y-68562615D01*
X130800409Y-68562615D02*
X131188980Y-68562615D01*
X131188980Y-68562615D02*
X131286123Y-68611186D01*
X131286123Y-68611186D02*
X131334694Y-68659758D01*
X131334694Y-68659758D02*
X131383266Y-68756901D01*
X131383266Y-68756901D02*
X131383266Y-68902615D01*
X131383266Y-68902615D02*
X131334694Y-68999758D01*
X131334694Y-68999758D02*
X131286123Y-69048329D01*
X131286123Y-69048329D02*
X131188980Y-69096901D01*
X131188980Y-69096901D02*
X130800409Y-69096901D01*
X131723266Y-68562615D02*
X132403266Y-69582615D01*
X132403266Y-68562615D02*
X131723266Y-69582615D01*
D10*
X118956509Y-44624225D02*
X120114605Y-44624225D01*
X119535557Y-45203272D02*
X119535557Y-44045177D01*
X121562224Y-43683272D02*
X120838414Y-43683272D01*
X120838414Y-43683272D02*
X120766033Y-44407082D01*
X120766033Y-44407082D02*
X120838414Y-44334701D01*
X120838414Y-44334701D02*
X120983176Y-44262320D01*
X120983176Y-44262320D02*
X121345081Y-44262320D01*
X121345081Y-44262320D02*
X121489843Y-44334701D01*
X121489843Y-44334701D02*
X121562224Y-44407082D01*
X121562224Y-44407082D02*
X121634605Y-44551844D01*
X121634605Y-44551844D02*
X121634605Y-44913749D01*
X121634605Y-44913749D02*
X121562224Y-45058511D01*
X121562224Y-45058511D02*
X121489843Y-45130892D01*
X121489843Y-45130892D02*
X121345081Y-45203272D01*
X121345081Y-45203272D02*
X120983176Y-45203272D01*
X120983176Y-45203272D02*
X120838414Y-45130892D01*
X120838414Y-45130892D02*
X120766033Y-45058511D01*
X124326033Y-43683272D02*
X124470795Y-43683272D01*
X124470795Y-43683272D02*
X124615557Y-43755653D01*
X124615557Y-43755653D02*
X124687938Y-43828034D01*
X124687938Y-43828034D02*
X124760319Y-43972796D01*
X124760319Y-43972796D02*
X124832700Y-44262320D01*
X124832700Y-44262320D02*
X124832700Y-44624225D01*
X124832700Y-44624225D02*
X124760319Y-44913749D01*
X124760319Y-44913749D02*
X124687938Y-45058511D01*
X124687938Y-45058511D02*
X124615557Y-45130892D01*
X124615557Y-45130892D02*
X124470795Y-45203272D01*
X124470795Y-45203272D02*
X124326033Y-45203272D01*
X124326033Y-45203272D02*
X124181271Y-45130892D01*
X124181271Y-45130892D02*
X124108890Y-45058511D01*
X124108890Y-45058511D02*
X124036509Y-44913749D01*
X124036509Y-44913749D02*
X123964128Y-44624225D01*
X123964128Y-44624225D02*
X123964128Y-44262320D01*
X123964128Y-44262320D02*
X124036509Y-43972796D01*
X124036509Y-43972796D02*
X124108890Y-43828034D01*
X124108890Y-43828034D02*
X124181271Y-43755653D01*
X124181271Y-43755653D02*
X124326033Y-43683272D01*
X40305319Y-64638272D02*
X39581509Y-64638272D01*
X39581509Y-64638272D02*
X39509128Y-65362082D01*
X39509128Y-65362082D02*
X39581509Y-65289701D01*
X39581509Y-65289701D02*
X39726271Y-65217320D01*
X39726271Y-65217320D02*
X40088176Y-65217320D01*
X40088176Y-65217320D02*
X40232938Y-65289701D01*
X40232938Y-65289701D02*
X40305319Y-65362082D01*
X40305319Y-65362082D02*
X40377700Y-65506844D01*
X40377700Y-65506844D02*
X40377700Y-65868749D01*
X40377700Y-65868749D02*
X40305319Y-66013511D01*
X40305319Y-66013511D02*
X40232938Y-66085892D01*
X40232938Y-66085892D02*
X40088176Y-66158272D01*
X40088176Y-66158272D02*
X39726271Y-66158272D01*
X39726271Y-66158272D02*
X39581509Y-66085892D01*
X39581509Y-66085892D02*
X39509128Y-66013511D01*
D11*
X131080694Y-76231186D02*
X130983552Y-76182615D01*
X130983552Y-76182615D02*
X130837837Y-76182615D01*
X130837837Y-76182615D02*
X130692123Y-76231186D01*
X130692123Y-76231186D02*
X130594980Y-76328329D01*
X130594980Y-76328329D02*
X130546409Y-76425472D01*
X130546409Y-76425472D02*
X130497837Y-76619758D01*
X130497837Y-76619758D02*
X130497837Y-76765472D01*
X130497837Y-76765472D02*
X130546409Y-76959758D01*
X130546409Y-76959758D02*
X130594980Y-77056901D01*
X130594980Y-77056901D02*
X130692123Y-77154044D01*
X130692123Y-77154044D02*
X130837837Y-77202615D01*
X130837837Y-77202615D02*
X130934980Y-77202615D01*
X130934980Y-77202615D02*
X131080694Y-77154044D01*
X131080694Y-77154044D02*
X131129266Y-77105472D01*
X131129266Y-77105472D02*
X131129266Y-76765472D01*
X131129266Y-76765472D02*
X130934980Y-76765472D01*
X131566409Y-76522615D02*
X131566409Y-77202615D01*
X131566409Y-76619758D02*
X131614980Y-76571186D01*
X131614980Y-76571186D02*
X131712123Y-76522615D01*
X131712123Y-76522615D02*
X131857837Y-76522615D01*
X131857837Y-76522615D02*
X131954980Y-76571186D01*
X131954980Y-76571186D02*
X132003552Y-76668329D01*
X132003552Y-76668329D02*
X132003552Y-77202615D01*
X132926409Y-77202615D02*
X132926409Y-76182615D01*
X132926409Y-77154044D02*
X132829266Y-77202615D01*
X132829266Y-77202615D02*
X132634980Y-77202615D01*
X132634980Y-77202615D02*
X132537837Y-77154044D01*
X132537837Y-77154044D02*
X132489266Y-77105472D01*
X132489266Y-77105472D02*
X132440694Y-77008329D01*
X132440694Y-77008329D02*
X132440694Y-76716901D01*
X132440694Y-76716901D02*
X132489266Y-76619758D01*
X132489266Y-76619758D02*
X132537837Y-76571186D01*
X132537837Y-76571186D02*
X132634980Y-76522615D01*
X132634980Y-76522615D02*
X132829266Y-76522615D01*
X132829266Y-76522615D02*
X132926409Y-76571186D01*
D10*
X40377700Y-76318272D02*
X39509128Y-76318272D01*
X39943414Y-76318272D02*
X39943414Y-74798272D01*
X39943414Y-74798272D02*
X39798652Y-75015415D01*
X39798652Y-75015415D02*
X39653890Y-75160177D01*
X39653890Y-75160177D02*
X39509128Y-75232558D01*
D11*
X131129266Y-74662615D02*
X130789266Y-74176901D01*
X130546409Y-74662615D02*
X130546409Y-73642615D01*
X130546409Y-73642615D02*
X130934980Y-73642615D01*
X130934980Y-73642615D02*
X131032123Y-73691186D01*
X131032123Y-73691186D02*
X131080694Y-73739758D01*
X131080694Y-73739758D02*
X131129266Y-73836901D01*
X131129266Y-73836901D02*
X131129266Y-73982615D01*
X131129266Y-73982615D02*
X131080694Y-74079758D01*
X131080694Y-74079758D02*
X131032123Y-74128329D01*
X131032123Y-74128329D02*
X130934980Y-74176901D01*
X130934980Y-74176901D02*
X130546409Y-74176901D01*
X131420694Y-73642615D02*
X132003552Y-73642615D01*
X131712123Y-74662615D02*
X131712123Y-73642615D01*
X132294980Y-74614044D02*
X132440695Y-74662615D01*
X132440695Y-74662615D02*
X132683552Y-74662615D01*
X132683552Y-74662615D02*
X132780695Y-74614044D01*
X132780695Y-74614044D02*
X132829266Y-74565472D01*
X132829266Y-74565472D02*
X132877837Y-74468329D01*
X132877837Y-74468329D02*
X132877837Y-74371186D01*
X132877837Y-74371186D02*
X132829266Y-74274044D01*
X132829266Y-74274044D02*
X132780695Y-74225472D01*
X132780695Y-74225472D02*
X132683552Y-74176901D01*
X132683552Y-74176901D02*
X132489266Y-74128329D01*
X132489266Y-74128329D02*
X132392123Y-74079758D01*
X132392123Y-74079758D02*
X132343552Y-74031186D01*
X132343552Y-74031186D02*
X132294980Y-73934044D01*
X132294980Y-73934044D02*
X132294980Y-73836901D01*
X132294980Y-73836901D02*
X132343552Y-73739758D01*
X132343552Y-73739758D02*
X132392123Y-73691186D01*
X132392123Y-73691186D02*
X132489266Y-73642615D01*
X132489266Y-73642615D02*
X132732123Y-73642615D01*
X132732123Y-73642615D02*
X132877837Y-73691186D01*
X130654694Y-66022615D02*
X131237552Y-66022615D01*
X130946123Y-67042615D02*
X130946123Y-66022615D01*
X131480409Y-66022615D02*
X132160409Y-67042615D01*
X132160409Y-66022615D02*
X131480409Y-67042615D01*
D10*
X84777752Y-53142823D02*
X84777752Y-54376537D01*
X84777752Y-54376537D02*
X84850323Y-54521680D01*
X84850323Y-54521680D02*
X84922895Y-54594252D01*
X84922895Y-54594252D02*
X85068037Y-54666823D01*
X85068037Y-54666823D02*
X85358323Y-54666823D01*
X85358323Y-54666823D02*
X85503466Y-54594252D01*
X85503466Y-54594252D02*
X85576037Y-54521680D01*
X85576037Y-54521680D02*
X85648609Y-54376537D01*
X85648609Y-54376537D02*
X85648609Y-53142823D01*
X86229180Y-53142823D02*
X87172608Y-53142823D01*
X87172608Y-53142823D02*
X86664608Y-53723394D01*
X86664608Y-53723394D02*
X86882323Y-53723394D01*
X86882323Y-53723394D02*
X87027466Y-53795966D01*
X87027466Y-53795966D02*
X87100037Y-53868537D01*
X87100037Y-53868537D02*
X87172608Y-54013680D01*
X87172608Y-54013680D02*
X87172608Y-54376537D01*
X87172608Y-54376537D02*
X87100037Y-54521680D01*
X87100037Y-54521680D02*
X87027466Y-54594252D01*
X87027466Y-54594252D02*
X86882323Y-54666823D01*
X86882323Y-54666823D02*
X86446894Y-54666823D01*
X86446894Y-54666823D02*
X86301751Y-54594252D01*
X86301751Y-54594252D02*
X86229180Y-54521680D01*
X57790252Y-53142823D02*
X57790252Y-54376537D01*
X57790252Y-54376537D02*
X57862823Y-54521680D01*
X57862823Y-54521680D02*
X57935395Y-54594252D01*
X57935395Y-54594252D02*
X58080537Y-54666823D01*
X58080537Y-54666823D02*
X58370823Y-54666823D01*
X58370823Y-54666823D02*
X58515966Y-54594252D01*
X58515966Y-54594252D02*
X58588537Y-54521680D01*
X58588537Y-54521680D02*
X58661109Y-54376537D01*
X58661109Y-54376537D02*
X58661109Y-53142823D01*
X59314251Y-53287966D02*
X59386823Y-53215394D01*
X59386823Y-53215394D02*
X59531966Y-53142823D01*
X59531966Y-53142823D02*
X59894823Y-53142823D01*
X59894823Y-53142823D02*
X60039966Y-53215394D01*
X60039966Y-53215394D02*
X60112537Y-53287966D01*
X60112537Y-53287966D02*
X60185108Y-53433109D01*
X60185108Y-53433109D02*
X60185108Y-53578252D01*
X60185108Y-53578252D02*
X60112537Y-53795966D01*
X60112537Y-53795966D02*
X59241680Y-54666823D01*
X59241680Y-54666823D02*
X60185108Y-54666823D01*
X41922890Y-77907823D02*
X41922890Y-78996394D01*
X41922890Y-78996394D02*
X41850319Y-79214109D01*
X41850319Y-79214109D02*
X41705176Y-79359252D01*
X41705176Y-79359252D02*
X41487462Y-79431823D01*
X41487462Y-79431823D02*
X41342319Y-79431823D01*
X43446890Y-79431823D02*
X42576033Y-79431823D01*
X43011462Y-79431823D02*
X43011462Y-77907823D01*
X43011462Y-77907823D02*
X42866319Y-78125537D01*
X42866319Y-78125537D02*
X42721176Y-78270680D01*
X42721176Y-78270680D02*
X42576033Y-78343252D01*
X86104819Y-97529323D02*
X85596819Y-96803609D01*
X85233962Y-97529323D02*
X85233962Y-96005323D01*
X85233962Y-96005323D02*
X85814533Y-96005323D01*
X85814533Y-96005323D02*
X85959676Y-96077894D01*
X85959676Y-96077894D02*
X86032247Y-96150466D01*
X86032247Y-96150466D02*
X86104819Y-96295609D01*
X86104819Y-96295609D02*
X86104819Y-96513323D01*
X86104819Y-96513323D02*
X86032247Y-96658466D01*
X86032247Y-96658466D02*
X85959676Y-96731037D01*
X85959676Y-96731037D02*
X85814533Y-96803609D01*
X85814533Y-96803609D02*
X85233962Y-96803609D01*
X86830533Y-97529323D02*
X87120819Y-97529323D01*
X87120819Y-97529323D02*
X87265962Y-97456752D01*
X87265962Y-97456752D02*
X87338533Y-97384180D01*
X87338533Y-97384180D02*
X87483676Y-97166466D01*
X87483676Y-97166466D02*
X87556247Y-96876180D01*
X87556247Y-96876180D02*
X87556247Y-96295609D01*
X87556247Y-96295609D02*
X87483676Y-96150466D01*
X87483676Y-96150466D02*
X87411105Y-96077894D01*
X87411105Y-96077894D02*
X87265962Y-96005323D01*
X87265962Y-96005323D02*
X86975676Y-96005323D01*
X86975676Y-96005323D02*
X86830533Y-96077894D01*
X86830533Y-96077894D02*
X86757962Y-96150466D01*
X86757962Y-96150466D02*
X86685390Y-96295609D01*
X86685390Y-96295609D02*
X86685390Y-96658466D01*
X86685390Y-96658466D02*
X86757962Y-96803609D01*
X86757962Y-96803609D02*
X86830533Y-96876180D01*
X86830533Y-96876180D02*
X86975676Y-96948752D01*
X86975676Y-96948752D02*
X87265962Y-96948752D01*
X87265962Y-96948752D02*
X87411105Y-96876180D01*
X87411105Y-96876180D02*
X87483676Y-96803609D01*
X87483676Y-96803609D02*
X87556247Y-96658466D01*
X60138319Y-83559323D02*
X59630319Y-82833609D01*
X59267462Y-83559323D02*
X59267462Y-82035323D01*
X59267462Y-82035323D02*
X59848033Y-82035323D01*
X59848033Y-82035323D02*
X59993176Y-82107894D01*
X59993176Y-82107894D02*
X60065747Y-82180466D01*
X60065747Y-82180466D02*
X60138319Y-82325609D01*
X60138319Y-82325609D02*
X60138319Y-82543323D01*
X60138319Y-82543323D02*
X60065747Y-82688466D01*
X60065747Y-82688466D02*
X59993176Y-82761037D01*
X59993176Y-82761037D02*
X59848033Y-82833609D01*
X59848033Y-82833609D02*
X59267462Y-82833609D01*
X61444605Y-82543323D02*
X61444605Y-83559323D01*
X61081747Y-81962752D02*
X60718890Y-83051323D01*
X60718890Y-83051323D02*
X61662319Y-83051323D01*
X97684962Y-112769323D02*
X97684962Y-111245323D01*
X97684962Y-111245323D02*
X98047819Y-111245323D01*
X98047819Y-111245323D02*
X98265533Y-111317894D01*
X98265533Y-111317894D02*
X98410676Y-111463037D01*
X98410676Y-111463037D02*
X98483247Y-111608180D01*
X98483247Y-111608180D02*
X98555819Y-111898466D01*
X98555819Y-111898466D02*
X98555819Y-112116180D01*
X98555819Y-112116180D02*
X98483247Y-112406466D01*
X98483247Y-112406466D02*
X98410676Y-112551609D01*
X98410676Y-112551609D02*
X98265533Y-112696752D01*
X98265533Y-112696752D02*
X98047819Y-112769323D01*
X98047819Y-112769323D02*
X97684962Y-112769323D01*
X99136390Y-111390466D02*
X99208962Y-111317894D01*
X99208962Y-111317894D02*
X99354105Y-111245323D01*
X99354105Y-111245323D02*
X99716962Y-111245323D01*
X99716962Y-111245323D02*
X99862105Y-111317894D01*
X99862105Y-111317894D02*
X99934676Y-111390466D01*
X99934676Y-111390466D02*
X100007247Y-111535609D01*
X100007247Y-111535609D02*
X100007247Y-111680752D01*
X100007247Y-111680752D02*
X99934676Y-111898466D01*
X99934676Y-111898466D02*
X99063819Y-112769323D01*
X99063819Y-112769323D02*
X100007247Y-112769323D01*
X46094323Y-88134180D02*
X45368609Y-88642180D01*
X46094323Y-89005037D02*
X44570323Y-89005037D01*
X44570323Y-89005037D02*
X44570323Y-88424466D01*
X44570323Y-88424466D02*
X44642894Y-88279323D01*
X44642894Y-88279323D02*
X44715466Y-88206752D01*
X44715466Y-88206752D02*
X44860609Y-88134180D01*
X44860609Y-88134180D02*
X45078323Y-88134180D01*
X45078323Y-88134180D02*
X45223466Y-88206752D01*
X45223466Y-88206752D02*
X45296037Y-88279323D01*
X45296037Y-88279323D02*
X45368609Y-88424466D01*
X45368609Y-88424466D02*
X45368609Y-89005037D01*
X44570323Y-87626180D02*
X44570323Y-86682752D01*
X44570323Y-86682752D02*
X45150894Y-87190752D01*
X45150894Y-87190752D02*
X45150894Y-86973037D01*
X45150894Y-86973037D02*
X45223466Y-86827895D01*
X45223466Y-86827895D02*
X45296037Y-86755323D01*
X45296037Y-86755323D02*
X45441180Y-86682752D01*
X45441180Y-86682752D02*
X45804037Y-86682752D01*
X45804037Y-86682752D02*
X45949180Y-86755323D01*
X45949180Y-86755323D02*
X46021752Y-86827895D01*
X46021752Y-86827895D02*
X46094323Y-86973037D01*
X46094323Y-86973037D02*
X46094323Y-87408466D01*
X46094323Y-87408466D02*
X46021752Y-87553609D01*
X46021752Y-87553609D02*
X45949180Y-87626180D01*
X104900819Y-80874180D02*
X104828247Y-80946752D01*
X104828247Y-80946752D02*
X104610533Y-81019323D01*
X104610533Y-81019323D02*
X104465390Y-81019323D01*
X104465390Y-81019323D02*
X104247676Y-80946752D01*
X104247676Y-80946752D02*
X104102533Y-80801609D01*
X104102533Y-80801609D02*
X104029962Y-80656466D01*
X104029962Y-80656466D02*
X103957390Y-80366180D01*
X103957390Y-80366180D02*
X103957390Y-80148466D01*
X103957390Y-80148466D02*
X104029962Y-79858180D01*
X104029962Y-79858180D02*
X104102533Y-79713037D01*
X104102533Y-79713037D02*
X104247676Y-79567894D01*
X104247676Y-79567894D02*
X104465390Y-79495323D01*
X104465390Y-79495323D02*
X104610533Y-79495323D01*
X104610533Y-79495323D02*
X104828247Y-79567894D01*
X104828247Y-79567894D02*
X104900819Y-79640466D01*
X106279676Y-79495323D02*
X105553962Y-79495323D01*
X105553962Y-79495323D02*
X105481390Y-80221037D01*
X105481390Y-80221037D02*
X105553962Y-80148466D01*
X105553962Y-80148466D02*
X105699105Y-80075894D01*
X105699105Y-80075894D02*
X106061962Y-80075894D01*
X106061962Y-80075894D02*
X106207105Y-80148466D01*
X106207105Y-80148466D02*
X106279676Y-80221037D01*
X106279676Y-80221037D02*
X106352247Y-80366180D01*
X106352247Y-80366180D02*
X106352247Y-80729037D01*
X106352247Y-80729037D02*
X106279676Y-80874180D01*
X106279676Y-80874180D02*
X106207105Y-80946752D01*
X106207105Y-80946752D02*
X106061962Y-81019323D01*
X106061962Y-81019323D02*
X105699105Y-81019323D01*
X105699105Y-81019323D02*
X105553962Y-80946752D01*
X105553962Y-80946752D02*
X105481390Y-80874180D01*
X118484323Y-86864180D02*
X117758609Y-87372180D01*
X118484323Y-87735037D02*
X116960323Y-87735037D01*
X116960323Y-87735037D02*
X116960323Y-87154466D01*
X116960323Y-87154466D02*
X117032894Y-87009323D01*
X117032894Y-87009323D02*
X117105466Y-86936752D01*
X117105466Y-86936752D02*
X117250609Y-86864180D01*
X117250609Y-86864180D02*
X117468323Y-86864180D01*
X117468323Y-86864180D02*
X117613466Y-86936752D01*
X117613466Y-86936752D02*
X117686037Y-87009323D01*
X117686037Y-87009323D02*
X117758609Y-87154466D01*
X117758609Y-87154466D02*
X117758609Y-87735037D01*
X118484323Y-85412752D02*
X118484323Y-86283609D01*
X118484323Y-85848180D02*
X116960323Y-85848180D01*
X116960323Y-85848180D02*
X117178037Y-85993323D01*
X117178037Y-85993323D02*
X117323180Y-86138466D01*
X117323180Y-86138466D02*
X117395752Y-86283609D01*
X117613466Y-84541894D02*
X117540894Y-84687037D01*
X117540894Y-84687037D02*
X117468323Y-84759608D01*
X117468323Y-84759608D02*
X117323180Y-84832180D01*
X117323180Y-84832180D02*
X117250609Y-84832180D01*
X117250609Y-84832180D02*
X117105466Y-84759608D01*
X117105466Y-84759608D02*
X117032894Y-84687037D01*
X117032894Y-84687037D02*
X116960323Y-84541894D01*
X116960323Y-84541894D02*
X116960323Y-84251608D01*
X116960323Y-84251608D02*
X117032894Y-84106466D01*
X117032894Y-84106466D02*
X117105466Y-84033894D01*
X117105466Y-84033894D02*
X117250609Y-83961323D01*
X117250609Y-83961323D02*
X117323180Y-83961323D01*
X117323180Y-83961323D02*
X117468323Y-84033894D01*
X117468323Y-84033894D02*
X117540894Y-84106466D01*
X117540894Y-84106466D02*
X117613466Y-84251608D01*
X117613466Y-84251608D02*
X117613466Y-84541894D01*
X117613466Y-84541894D02*
X117686037Y-84687037D01*
X117686037Y-84687037D02*
X117758609Y-84759608D01*
X117758609Y-84759608D02*
X117903752Y-84832180D01*
X117903752Y-84832180D02*
X118194037Y-84832180D01*
X118194037Y-84832180D02*
X118339180Y-84759608D01*
X118339180Y-84759608D02*
X118411752Y-84687037D01*
X118411752Y-84687037D02*
X118484323Y-84541894D01*
X118484323Y-84541894D02*
X118484323Y-84251608D01*
X118484323Y-84251608D02*
X118411752Y-84106466D01*
X118411752Y-84106466D02*
X118339180Y-84033894D01*
X118339180Y-84033894D02*
X118194037Y-83961323D01*
X118194037Y-83961323D02*
X117903752Y-83961323D01*
X117903752Y-83961323D02*
X117758609Y-84033894D01*
X117758609Y-84033894D02*
X117686037Y-84106466D01*
X117686037Y-84106466D02*
X117613466Y-84251608D01*
X71332462Y-70287823D02*
X71332462Y-71521537D01*
X71332462Y-71521537D02*
X71405033Y-71666680D01*
X71405033Y-71666680D02*
X71477605Y-71739252D01*
X71477605Y-71739252D02*
X71622747Y-71811823D01*
X71622747Y-71811823D02*
X71913033Y-71811823D01*
X71913033Y-71811823D02*
X72058176Y-71739252D01*
X72058176Y-71739252D02*
X72130747Y-71666680D01*
X72130747Y-71666680D02*
X72203319Y-71521537D01*
X72203319Y-71521537D02*
X72203319Y-70287823D01*
X73727318Y-71811823D02*
X72856461Y-71811823D01*
X73291890Y-71811823D02*
X73291890Y-70287823D01*
X73291890Y-70287823D02*
X73146747Y-70505537D01*
X73146747Y-70505537D02*
X73001604Y-70650680D01*
X73001604Y-70650680D02*
X72856461Y-70723252D01*
X85538319Y-91496823D02*
X85030319Y-90771109D01*
X84667462Y-91496823D02*
X84667462Y-89972823D01*
X84667462Y-89972823D02*
X85248033Y-89972823D01*
X85248033Y-89972823D02*
X85393176Y-90045394D01*
X85393176Y-90045394D02*
X85465747Y-90117966D01*
X85465747Y-90117966D02*
X85538319Y-90263109D01*
X85538319Y-90263109D02*
X85538319Y-90480823D01*
X85538319Y-90480823D02*
X85465747Y-90625966D01*
X85465747Y-90625966D02*
X85393176Y-90698537D01*
X85393176Y-90698537D02*
X85248033Y-90771109D01*
X85248033Y-90771109D02*
X84667462Y-90771109D01*
X86989747Y-91496823D02*
X86118890Y-91496823D01*
X86554319Y-91496823D02*
X86554319Y-89972823D01*
X86554319Y-89972823D02*
X86409176Y-90190537D01*
X86409176Y-90190537D02*
X86264033Y-90335680D01*
X86264033Y-90335680D02*
X86118890Y-90408252D01*
X88441176Y-91496823D02*
X87570319Y-91496823D01*
X88005748Y-91496823D02*
X88005748Y-89972823D01*
X88005748Y-89972823D02*
X87860605Y-90190537D01*
X87860605Y-90190537D02*
X87715462Y-90335680D01*
X87715462Y-90335680D02*
X87570319Y-90408252D01*
X112134323Y-86864180D02*
X111408609Y-87372180D01*
X112134323Y-87735037D02*
X110610323Y-87735037D01*
X110610323Y-87735037D02*
X110610323Y-87154466D01*
X110610323Y-87154466D02*
X110682894Y-87009323D01*
X110682894Y-87009323D02*
X110755466Y-86936752D01*
X110755466Y-86936752D02*
X110900609Y-86864180D01*
X110900609Y-86864180D02*
X111118323Y-86864180D01*
X111118323Y-86864180D02*
X111263466Y-86936752D01*
X111263466Y-86936752D02*
X111336037Y-87009323D01*
X111336037Y-87009323D02*
X111408609Y-87154466D01*
X111408609Y-87154466D02*
X111408609Y-87735037D01*
X112134323Y-85412752D02*
X112134323Y-86283609D01*
X112134323Y-85848180D02*
X110610323Y-85848180D01*
X110610323Y-85848180D02*
X110828037Y-85993323D01*
X110828037Y-85993323D02*
X110973180Y-86138466D01*
X110973180Y-86138466D02*
X111045752Y-86283609D01*
X110610323Y-84106466D02*
X110610323Y-84396751D01*
X110610323Y-84396751D02*
X110682894Y-84541894D01*
X110682894Y-84541894D02*
X110755466Y-84614466D01*
X110755466Y-84614466D02*
X110973180Y-84759608D01*
X110973180Y-84759608D02*
X111263466Y-84832180D01*
X111263466Y-84832180D02*
X111844037Y-84832180D01*
X111844037Y-84832180D02*
X111989180Y-84759608D01*
X111989180Y-84759608D02*
X112061752Y-84687037D01*
X112061752Y-84687037D02*
X112134323Y-84541894D01*
X112134323Y-84541894D02*
X112134323Y-84251608D01*
X112134323Y-84251608D02*
X112061752Y-84106466D01*
X112061752Y-84106466D02*
X111989180Y-84033894D01*
X111989180Y-84033894D02*
X111844037Y-83961323D01*
X111844037Y-83961323D02*
X111481180Y-83961323D01*
X111481180Y-83961323D02*
X111336037Y-84033894D01*
X111336037Y-84033894D02*
X111263466Y-84106466D01*
X111263466Y-84106466D02*
X111190894Y-84251608D01*
X111190894Y-84251608D02*
X111190894Y-84541894D01*
X111190894Y-84541894D02*
X111263466Y-84687037D01*
X111263466Y-84687037D02*
X111336037Y-84759608D01*
X111336037Y-84759608D02*
X111481180Y-84832180D01*
X41649323Y-55431680D02*
X40923609Y-55939680D01*
X41649323Y-56302537D02*
X40125323Y-56302537D01*
X40125323Y-56302537D02*
X40125323Y-55721966D01*
X40125323Y-55721966D02*
X40197894Y-55576823D01*
X40197894Y-55576823D02*
X40270466Y-55504252D01*
X40270466Y-55504252D02*
X40415609Y-55431680D01*
X40415609Y-55431680D02*
X40633323Y-55431680D01*
X40633323Y-55431680D02*
X40778466Y-55504252D01*
X40778466Y-55504252D02*
X40851037Y-55576823D01*
X40851037Y-55576823D02*
X40923609Y-55721966D01*
X40923609Y-55721966D02*
X40923609Y-56302537D01*
X40270466Y-54851109D02*
X40197894Y-54778537D01*
X40197894Y-54778537D02*
X40125323Y-54633395D01*
X40125323Y-54633395D02*
X40125323Y-54270537D01*
X40125323Y-54270537D02*
X40197894Y-54125395D01*
X40197894Y-54125395D02*
X40270466Y-54052823D01*
X40270466Y-54052823D02*
X40415609Y-53980252D01*
X40415609Y-53980252D02*
X40560752Y-53980252D01*
X40560752Y-53980252D02*
X40778466Y-54052823D01*
X40778466Y-54052823D02*
X41649323Y-54923680D01*
X41649323Y-54923680D02*
X41649323Y-53980252D01*
X115309323Y-86864180D02*
X114583609Y-87372180D01*
X115309323Y-87735037D02*
X113785323Y-87735037D01*
X113785323Y-87735037D02*
X113785323Y-87154466D01*
X113785323Y-87154466D02*
X113857894Y-87009323D01*
X113857894Y-87009323D02*
X113930466Y-86936752D01*
X113930466Y-86936752D02*
X114075609Y-86864180D01*
X114075609Y-86864180D02*
X114293323Y-86864180D01*
X114293323Y-86864180D02*
X114438466Y-86936752D01*
X114438466Y-86936752D02*
X114511037Y-87009323D01*
X114511037Y-87009323D02*
X114583609Y-87154466D01*
X114583609Y-87154466D02*
X114583609Y-87735037D01*
X115309323Y-85412752D02*
X115309323Y-86283609D01*
X115309323Y-85848180D02*
X113785323Y-85848180D01*
X113785323Y-85848180D02*
X114003037Y-85993323D01*
X114003037Y-85993323D02*
X114148180Y-86138466D01*
X114148180Y-86138466D02*
X114220752Y-86283609D01*
X113785323Y-84904751D02*
X113785323Y-83888751D01*
X113785323Y-83888751D02*
X115309323Y-84541894D01*
X92397752Y-86480323D02*
X92397752Y-87714037D01*
X92397752Y-87714037D02*
X92470323Y-87859180D01*
X92470323Y-87859180D02*
X92542895Y-87931752D01*
X92542895Y-87931752D02*
X92688037Y-88004323D01*
X92688037Y-88004323D02*
X92978323Y-88004323D01*
X92978323Y-88004323D02*
X93123466Y-87931752D01*
X93123466Y-87931752D02*
X93196037Y-87859180D01*
X93196037Y-87859180D02*
X93268609Y-87714037D01*
X93268609Y-87714037D02*
X93268609Y-86480323D01*
X94647466Y-86988323D02*
X94647466Y-88004323D01*
X94284608Y-86407752D02*
X93921751Y-87496323D01*
X93921751Y-87496323D02*
X94865180Y-87496323D01*
X125225819Y-56426680D02*
X125153247Y-56499252D01*
X125153247Y-56499252D02*
X124935533Y-56571823D01*
X124935533Y-56571823D02*
X124790390Y-56571823D01*
X124790390Y-56571823D02*
X124572676Y-56499252D01*
X124572676Y-56499252D02*
X124427533Y-56354109D01*
X124427533Y-56354109D02*
X124354962Y-56208966D01*
X124354962Y-56208966D02*
X124282390Y-55918680D01*
X124282390Y-55918680D02*
X124282390Y-55700966D01*
X124282390Y-55700966D02*
X124354962Y-55410680D01*
X124354962Y-55410680D02*
X124427533Y-55265537D01*
X124427533Y-55265537D02*
X124572676Y-55120394D01*
X124572676Y-55120394D02*
X124790390Y-55047823D01*
X124790390Y-55047823D02*
X124935533Y-55047823D01*
X124935533Y-55047823D02*
X125153247Y-55120394D01*
X125153247Y-55120394D02*
X125225819Y-55192966D01*
X126677247Y-56571823D02*
X125806390Y-56571823D01*
X126241819Y-56571823D02*
X126241819Y-55047823D01*
X126241819Y-55047823D02*
X126096676Y-55265537D01*
X126096676Y-55265537D02*
X125951533Y-55410680D01*
X125951533Y-55410680D02*
X125806390Y-55483252D01*
X127620676Y-55047823D02*
X127765819Y-55047823D01*
X127765819Y-55047823D02*
X127910962Y-55120394D01*
X127910962Y-55120394D02*
X127983534Y-55192966D01*
X127983534Y-55192966D02*
X128056105Y-55338109D01*
X128056105Y-55338109D02*
X128128676Y-55628394D01*
X128128676Y-55628394D02*
X128128676Y-55991252D01*
X128128676Y-55991252D02*
X128056105Y-56281537D01*
X128056105Y-56281537D02*
X127983534Y-56426680D01*
X127983534Y-56426680D02*
X127910962Y-56499252D01*
X127910962Y-56499252D02*
X127765819Y-56571823D01*
X127765819Y-56571823D02*
X127620676Y-56571823D01*
X127620676Y-56571823D02*
X127475534Y-56499252D01*
X127475534Y-56499252D02*
X127402962Y-56426680D01*
X127402962Y-56426680D02*
X127330391Y-56281537D01*
X127330391Y-56281537D02*
X127257819Y-55991252D01*
X127257819Y-55991252D02*
X127257819Y-55628394D01*
X127257819Y-55628394D02*
X127330391Y-55338109D01*
X127330391Y-55338109D02*
X127402962Y-55192966D01*
X127402962Y-55192966D02*
X127475534Y-55120394D01*
X127475534Y-55120394D02*
X127620676Y-55047823D01*
D12*
X133223095Y-116024819D02*
X133223095Y-115024819D01*
X133223095Y-115501009D02*
X133794523Y-115501009D01*
X133794523Y-116024819D02*
X133794523Y-115024819D01*
X134175476Y-115024819D02*
X134794523Y-115024819D01*
X134794523Y-115024819D02*
X134461190Y-115405771D01*
X134461190Y-115405771D02*
X134604047Y-115405771D01*
X134604047Y-115405771D02*
X134699285Y-115453390D01*
X134699285Y-115453390D02*
X134746904Y-115501009D01*
X134746904Y-115501009D02*
X134794523Y-115596247D01*
X134794523Y-115596247D02*
X134794523Y-115834342D01*
X134794523Y-115834342D02*
X134746904Y-115929580D01*
X134746904Y-115929580D02*
X134699285Y-115977200D01*
X134699285Y-115977200D02*
X134604047Y-116024819D01*
X134604047Y-116024819D02*
X134318333Y-116024819D01*
X134318333Y-116024819D02*
X134223095Y-115977200D01*
X134223095Y-115977200D02*
X134175476Y-115929580D01*
D10*
X109542752Y-53142823D02*
X109542752Y-54376537D01*
X109542752Y-54376537D02*
X109615323Y-54521680D01*
X109615323Y-54521680D02*
X109687895Y-54594252D01*
X109687895Y-54594252D02*
X109833037Y-54666823D01*
X109833037Y-54666823D02*
X110123323Y-54666823D01*
X110123323Y-54666823D02*
X110268466Y-54594252D01*
X110268466Y-54594252D02*
X110341037Y-54521680D01*
X110341037Y-54521680D02*
X110413609Y-54376537D01*
X110413609Y-54376537D02*
X110413609Y-53142823D01*
X111792466Y-53142823D02*
X111502180Y-53142823D01*
X111502180Y-53142823D02*
X111357037Y-53215394D01*
X111357037Y-53215394D02*
X111284466Y-53287966D01*
X111284466Y-53287966D02*
X111139323Y-53505680D01*
X111139323Y-53505680D02*
X111066751Y-53795966D01*
X111066751Y-53795966D02*
X111066751Y-54376537D01*
X111066751Y-54376537D02*
X111139323Y-54521680D01*
X111139323Y-54521680D02*
X111211894Y-54594252D01*
X111211894Y-54594252D02*
X111357037Y-54666823D01*
X111357037Y-54666823D02*
X111647323Y-54666823D01*
X111647323Y-54666823D02*
X111792466Y-54594252D01*
X111792466Y-54594252D02*
X111865037Y-54521680D01*
X111865037Y-54521680D02*
X111937608Y-54376537D01*
X111937608Y-54376537D02*
X111937608Y-54013680D01*
X111937608Y-54013680D02*
X111865037Y-53868537D01*
X111865037Y-53868537D02*
X111792466Y-53795966D01*
X111792466Y-53795966D02*
X111647323Y-53723394D01*
X111647323Y-53723394D02*
X111357037Y-53723394D01*
X111357037Y-53723394D02*
X111211894Y-53795966D01*
X111211894Y-53795966D02*
X111139323Y-53868537D01*
X111139323Y-53868537D02*
X111066751Y-54013680D01*
X104843752Y-88149466D02*
X104698609Y-88076894D01*
X104698609Y-88076894D02*
X104553466Y-87931752D01*
X104553466Y-87931752D02*
X104335752Y-87714037D01*
X104335752Y-87714037D02*
X104190609Y-87641466D01*
X104190609Y-87641466D02*
X104045466Y-87641466D01*
X104118037Y-88004323D02*
X103972895Y-87931752D01*
X103972895Y-87931752D02*
X103827752Y-87786609D01*
X103827752Y-87786609D02*
X103755180Y-87496323D01*
X103755180Y-87496323D02*
X103755180Y-86988323D01*
X103755180Y-86988323D02*
X103827752Y-86698037D01*
X103827752Y-86698037D02*
X103972895Y-86552894D01*
X103972895Y-86552894D02*
X104118037Y-86480323D01*
X104118037Y-86480323D02*
X104408323Y-86480323D01*
X104408323Y-86480323D02*
X104553466Y-86552894D01*
X104553466Y-86552894D02*
X104698609Y-86698037D01*
X104698609Y-86698037D02*
X104771180Y-86988323D01*
X104771180Y-86988323D02*
X104771180Y-87496323D01*
X104771180Y-87496323D02*
X104698609Y-87786609D01*
X104698609Y-87786609D02*
X104553466Y-87931752D01*
X104553466Y-87931752D02*
X104408323Y-88004323D01*
X104408323Y-88004323D02*
X104118037Y-88004323D01*
X106222608Y-88004323D02*
X105351751Y-88004323D01*
X105787180Y-88004323D02*
X105787180Y-86480323D01*
X105787180Y-86480323D02*
X105642037Y-86698037D01*
X105642037Y-86698037D02*
X105496894Y-86843180D01*
X105496894Y-86843180D02*
X105351751Y-86915752D01*
X86173319Y-103879323D02*
X85665319Y-103153609D01*
X85302462Y-103879323D02*
X85302462Y-102355323D01*
X85302462Y-102355323D02*
X85883033Y-102355323D01*
X85883033Y-102355323D02*
X86028176Y-102427894D01*
X86028176Y-102427894D02*
X86100747Y-102500466D01*
X86100747Y-102500466D02*
X86173319Y-102645609D01*
X86173319Y-102645609D02*
X86173319Y-102863323D01*
X86173319Y-102863323D02*
X86100747Y-103008466D01*
X86100747Y-103008466D02*
X86028176Y-103081037D01*
X86028176Y-103081037D02*
X85883033Y-103153609D01*
X85883033Y-103153609D02*
X85302462Y-103153609D01*
X86681319Y-102355323D02*
X87697319Y-102355323D01*
X87697319Y-102355323D02*
X87044176Y-103879323D01*
X62784390Y-101422823D02*
X62784390Y-102511394D01*
X62784390Y-102511394D02*
X62711819Y-102729109D01*
X62711819Y-102729109D02*
X62566676Y-102874252D01*
X62566676Y-102874252D02*
X62348962Y-102946823D01*
X62348962Y-102946823D02*
X62203819Y-102946823D01*
X63437533Y-101567966D02*
X63510105Y-101495394D01*
X63510105Y-101495394D02*
X63655248Y-101422823D01*
X63655248Y-101422823D02*
X64018105Y-101422823D01*
X64018105Y-101422823D02*
X64163248Y-101495394D01*
X64163248Y-101495394D02*
X64235819Y-101567966D01*
X64235819Y-101567966D02*
X64308390Y-101713109D01*
X64308390Y-101713109D02*
X64308390Y-101858252D01*
X64308390Y-101858252D02*
X64235819Y-102075966D01*
X64235819Y-102075966D02*
X63364962Y-102946823D01*
X63364962Y-102946823D02*
X64308390Y-102946823D01*
X92523319Y-83414180D02*
X92450747Y-83486752D01*
X92450747Y-83486752D02*
X92233033Y-83559323D01*
X92233033Y-83559323D02*
X92087890Y-83559323D01*
X92087890Y-83559323D02*
X91870176Y-83486752D01*
X91870176Y-83486752D02*
X91725033Y-83341609D01*
X91725033Y-83341609D02*
X91652462Y-83196466D01*
X91652462Y-83196466D02*
X91579890Y-82906180D01*
X91579890Y-82906180D02*
X91579890Y-82688466D01*
X91579890Y-82688466D02*
X91652462Y-82398180D01*
X91652462Y-82398180D02*
X91725033Y-82253037D01*
X91725033Y-82253037D02*
X91870176Y-82107894D01*
X91870176Y-82107894D02*
X92087890Y-82035323D01*
X92087890Y-82035323D02*
X92233033Y-82035323D01*
X92233033Y-82035323D02*
X92450747Y-82107894D01*
X92450747Y-82107894D02*
X92523319Y-82180466D01*
X93031319Y-82035323D02*
X93974747Y-82035323D01*
X93974747Y-82035323D02*
X93466747Y-82615894D01*
X93466747Y-82615894D02*
X93684462Y-82615894D01*
X93684462Y-82615894D02*
X93829605Y-82688466D01*
X93829605Y-82688466D02*
X93902176Y-82761037D01*
X93902176Y-82761037D02*
X93974747Y-82906180D01*
X93974747Y-82906180D02*
X93974747Y-83269037D01*
X93974747Y-83269037D02*
X93902176Y-83414180D01*
X93902176Y-83414180D02*
X93829605Y-83486752D01*
X93829605Y-83486752D02*
X93684462Y-83559323D01*
X93684462Y-83559323D02*
X93249033Y-83559323D01*
X93249033Y-83559323D02*
X93103890Y-83486752D01*
X93103890Y-83486752D02*
X93031319Y-83414180D01*
X113173962Y-104663537D02*
X113391676Y-104736109D01*
X113391676Y-104736109D02*
X113464247Y-104808680D01*
X113464247Y-104808680D02*
X113536819Y-104953823D01*
X113536819Y-104953823D02*
X113536819Y-105171537D01*
X113536819Y-105171537D02*
X113464247Y-105316680D01*
X113464247Y-105316680D02*
X113391676Y-105389252D01*
X113391676Y-105389252D02*
X113246533Y-105461823D01*
X113246533Y-105461823D02*
X112665962Y-105461823D01*
X112665962Y-105461823D02*
X112665962Y-103937823D01*
X112665962Y-103937823D02*
X113173962Y-103937823D01*
X113173962Y-103937823D02*
X113319105Y-104010394D01*
X113319105Y-104010394D02*
X113391676Y-104082966D01*
X113391676Y-104082966D02*
X113464247Y-104228109D01*
X113464247Y-104228109D02*
X113464247Y-104373252D01*
X113464247Y-104373252D02*
X113391676Y-104518394D01*
X113391676Y-104518394D02*
X113319105Y-104590966D01*
X113319105Y-104590966D02*
X113173962Y-104663537D01*
X113173962Y-104663537D02*
X112665962Y-104663537D01*
X114117390Y-105026394D02*
X114843105Y-105026394D01*
X113972247Y-105461823D02*
X114480247Y-103937823D01*
X114480247Y-103937823D02*
X114988247Y-105461823D01*
X115278533Y-103937823D02*
X116149391Y-103937823D01*
X115713962Y-105461823D02*
X115713962Y-103937823D01*
X117455676Y-105461823D02*
X116584819Y-105461823D01*
X117020248Y-105461823D02*
X117020248Y-103937823D01*
X117020248Y-103937823D02*
X116875105Y-104155537D01*
X116875105Y-104155537D02*
X116729962Y-104300680D01*
X116729962Y-104300680D02*
X116584819Y-104373252D01*
X124989962Y-84257823D02*
X124989962Y-85491537D01*
X124989962Y-85491537D02*
X125062533Y-85636680D01*
X125062533Y-85636680D02*
X125135105Y-85709252D01*
X125135105Y-85709252D02*
X125280247Y-85781823D01*
X125280247Y-85781823D02*
X125570533Y-85781823D01*
X125570533Y-85781823D02*
X125715676Y-85709252D01*
X125715676Y-85709252D02*
X125788247Y-85636680D01*
X125788247Y-85636680D02*
X125860819Y-85491537D01*
X125860819Y-85491537D02*
X125860819Y-84257823D01*
X126441390Y-84257823D02*
X127457390Y-84257823D01*
X127457390Y-84257823D02*
X126804247Y-85781823D01*
X116335819Y-74206680D02*
X116263247Y-74279252D01*
X116263247Y-74279252D02*
X116045533Y-74351823D01*
X116045533Y-74351823D02*
X115900390Y-74351823D01*
X115900390Y-74351823D02*
X115682676Y-74279252D01*
X115682676Y-74279252D02*
X115537533Y-74134109D01*
X115537533Y-74134109D02*
X115464962Y-73988966D01*
X115464962Y-73988966D02*
X115392390Y-73698680D01*
X115392390Y-73698680D02*
X115392390Y-73480966D01*
X115392390Y-73480966D02*
X115464962Y-73190680D01*
X115464962Y-73190680D02*
X115537533Y-73045537D01*
X115537533Y-73045537D02*
X115682676Y-72900394D01*
X115682676Y-72900394D02*
X115900390Y-72827823D01*
X115900390Y-72827823D02*
X116045533Y-72827823D01*
X116045533Y-72827823D02*
X116263247Y-72900394D01*
X116263247Y-72900394D02*
X116335819Y-72972966D01*
X117206676Y-73480966D02*
X117061533Y-73408394D01*
X117061533Y-73408394D02*
X116988962Y-73335823D01*
X116988962Y-73335823D02*
X116916390Y-73190680D01*
X116916390Y-73190680D02*
X116916390Y-73118109D01*
X116916390Y-73118109D02*
X116988962Y-72972966D01*
X116988962Y-72972966D02*
X117061533Y-72900394D01*
X117061533Y-72900394D02*
X117206676Y-72827823D01*
X117206676Y-72827823D02*
X117496962Y-72827823D01*
X117496962Y-72827823D02*
X117642105Y-72900394D01*
X117642105Y-72900394D02*
X117714676Y-72972966D01*
X117714676Y-72972966D02*
X117787247Y-73118109D01*
X117787247Y-73118109D02*
X117787247Y-73190680D01*
X117787247Y-73190680D02*
X117714676Y-73335823D01*
X117714676Y-73335823D02*
X117642105Y-73408394D01*
X117642105Y-73408394D02*
X117496962Y-73480966D01*
X117496962Y-73480966D02*
X117206676Y-73480966D01*
X117206676Y-73480966D02*
X117061533Y-73553537D01*
X117061533Y-73553537D02*
X116988962Y-73626109D01*
X116988962Y-73626109D02*
X116916390Y-73771252D01*
X116916390Y-73771252D02*
X116916390Y-74061537D01*
X116916390Y-74061537D02*
X116988962Y-74206680D01*
X116988962Y-74206680D02*
X117061533Y-74279252D01*
X117061533Y-74279252D02*
X117206676Y-74351823D01*
X117206676Y-74351823D02*
X117496962Y-74351823D01*
X117496962Y-74351823D02*
X117642105Y-74279252D01*
X117642105Y-74279252D02*
X117714676Y-74206680D01*
X117714676Y-74206680D02*
X117787247Y-74061537D01*
X117787247Y-74061537D02*
X117787247Y-73771252D01*
X117787247Y-73771252D02*
X117714676Y-73626109D01*
X117714676Y-73626109D02*
X117642105Y-73553537D01*
X117642105Y-73553537D02*
X117496962Y-73480966D01*
X101730819Y-74206680D02*
X101658247Y-74279252D01*
X101658247Y-74279252D02*
X101440533Y-74351823D01*
X101440533Y-74351823D02*
X101295390Y-74351823D01*
X101295390Y-74351823D02*
X101077676Y-74279252D01*
X101077676Y-74279252D02*
X100932533Y-74134109D01*
X100932533Y-74134109D02*
X100859962Y-73988966D01*
X100859962Y-73988966D02*
X100787390Y-73698680D01*
X100787390Y-73698680D02*
X100787390Y-73480966D01*
X100787390Y-73480966D02*
X100859962Y-73190680D01*
X100859962Y-73190680D02*
X100932533Y-73045537D01*
X100932533Y-73045537D02*
X101077676Y-72900394D01*
X101077676Y-72900394D02*
X101295390Y-72827823D01*
X101295390Y-72827823D02*
X101440533Y-72827823D01*
X101440533Y-72827823D02*
X101658247Y-72900394D01*
X101658247Y-72900394D02*
X101730819Y-72972966D01*
X103037105Y-72827823D02*
X102746819Y-72827823D01*
X102746819Y-72827823D02*
X102601676Y-72900394D01*
X102601676Y-72900394D02*
X102529105Y-72972966D01*
X102529105Y-72972966D02*
X102383962Y-73190680D01*
X102383962Y-73190680D02*
X102311390Y-73480966D01*
X102311390Y-73480966D02*
X102311390Y-74061537D01*
X102311390Y-74061537D02*
X102383962Y-74206680D01*
X102383962Y-74206680D02*
X102456533Y-74279252D01*
X102456533Y-74279252D02*
X102601676Y-74351823D01*
X102601676Y-74351823D02*
X102891962Y-74351823D01*
X102891962Y-74351823D02*
X103037105Y-74279252D01*
X103037105Y-74279252D02*
X103109676Y-74206680D01*
X103109676Y-74206680D02*
X103182247Y-74061537D01*
X103182247Y-74061537D02*
X103182247Y-73698680D01*
X103182247Y-73698680D02*
X103109676Y-73553537D01*
X103109676Y-73553537D02*
X103037105Y-73480966D01*
X103037105Y-73480966D02*
X102891962Y-73408394D01*
X102891962Y-73408394D02*
X102601676Y-73408394D01*
X102601676Y-73408394D02*
X102456533Y-73480966D01*
X102456533Y-73480966D02*
X102383962Y-73553537D01*
X102383962Y-73553537D02*
X102311390Y-73698680D01*
X108959323Y-86864180D02*
X108233609Y-87372180D01*
X108959323Y-87735037D02*
X107435323Y-87735037D01*
X107435323Y-87735037D02*
X107435323Y-87154466D01*
X107435323Y-87154466D02*
X107507894Y-87009323D01*
X107507894Y-87009323D02*
X107580466Y-86936752D01*
X107580466Y-86936752D02*
X107725609Y-86864180D01*
X107725609Y-86864180D02*
X107943323Y-86864180D01*
X107943323Y-86864180D02*
X108088466Y-86936752D01*
X108088466Y-86936752D02*
X108161037Y-87009323D01*
X108161037Y-87009323D02*
X108233609Y-87154466D01*
X108233609Y-87154466D02*
X108233609Y-87735037D01*
X108959323Y-85412752D02*
X108959323Y-86283609D01*
X108959323Y-85848180D02*
X107435323Y-85848180D01*
X107435323Y-85848180D02*
X107653037Y-85993323D01*
X107653037Y-85993323D02*
X107798180Y-86138466D01*
X107798180Y-86138466D02*
X107870752Y-86283609D01*
X107435323Y-84033894D02*
X107435323Y-84759608D01*
X107435323Y-84759608D02*
X108161037Y-84832180D01*
X108161037Y-84832180D02*
X108088466Y-84759608D01*
X108088466Y-84759608D02*
X108015894Y-84614466D01*
X108015894Y-84614466D02*
X108015894Y-84251608D01*
X108015894Y-84251608D02*
X108088466Y-84106466D01*
X108088466Y-84106466D02*
X108161037Y-84033894D01*
X108161037Y-84033894D02*
X108306180Y-83961323D01*
X108306180Y-83961323D02*
X108669037Y-83961323D01*
X108669037Y-83961323D02*
X108814180Y-84033894D01*
X108814180Y-84033894D02*
X108886752Y-84106466D01*
X108886752Y-84106466D02*
X108959323Y-84251608D01*
X108959323Y-84251608D02*
X108959323Y-84614466D01*
X108959323Y-84614466D02*
X108886752Y-84759608D01*
X108886752Y-84759608D02*
X108814180Y-84832180D01*
X86104819Y-110229323D02*
X85596819Y-109503609D01*
X85233962Y-110229323D02*
X85233962Y-108705323D01*
X85233962Y-108705323D02*
X85814533Y-108705323D01*
X85814533Y-108705323D02*
X85959676Y-108777894D01*
X85959676Y-108777894D02*
X86032247Y-108850466D01*
X86032247Y-108850466D02*
X86104819Y-108995609D01*
X86104819Y-108995609D02*
X86104819Y-109213323D01*
X86104819Y-109213323D02*
X86032247Y-109358466D01*
X86032247Y-109358466D02*
X85959676Y-109431037D01*
X85959676Y-109431037D02*
X85814533Y-109503609D01*
X85814533Y-109503609D02*
X85233962Y-109503609D01*
X87483676Y-108705323D02*
X86757962Y-108705323D01*
X86757962Y-108705323D02*
X86685390Y-109431037D01*
X86685390Y-109431037D02*
X86757962Y-109358466D01*
X86757962Y-109358466D02*
X86903105Y-109285894D01*
X86903105Y-109285894D02*
X87265962Y-109285894D01*
X87265962Y-109285894D02*
X87411105Y-109358466D01*
X87411105Y-109358466D02*
X87483676Y-109431037D01*
X87483676Y-109431037D02*
X87556247Y-109576180D01*
X87556247Y-109576180D02*
X87556247Y-109939037D01*
X87556247Y-109939037D02*
X87483676Y-110084180D01*
X87483676Y-110084180D02*
X87411105Y-110156752D01*
X87411105Y-110156752D02*
X87265962Y-110229323D01*
X87265962Y-110229323D02*
X86903105Y-110229323D01*
X86903105Y-110229323D02*
X86757962Y-110156752D01*
X86757962Y-110156752D02*
X86685390Y-110084180D01*
X126950822Y-93628609D02*
X126950822Y-94354323D01*
X126442822Y-92830323D02*
X126950822Y-93628609D01*
X126950822Y-93628609D02*
X127458822Y-92830323D01*
X127894251Y-92975466D02*
X127966823Y-92902894D01*
X127966823Y-92902894D02*
X128111966Y-92830323D01*
X128111966Y-92830323D02*
X128474823Y-92830323D01*
X128474823Y-92830323D02*
X128619966Y-92902894D01*
X128619966Y-92902894D02*
X128692537Y-92975466D01*
X128692537Y-92975466D02*
X128765108Y-93120609D01*
X128765108Y-93120609D02*
X128765108Y-93265752D01*
X128765108Y-93265752D02*
X128692537Y-93483466D01*
X128692537Y-93483466D02*
X127821680Y-94354323D01*
X127821680Y-94354323D02*
X128765108Y-94354323D01*
D12*
X132905595Y-39824819D02*
X132905595Y-38824819D01*
X132905595Y-39301009D02*
X133477023Y-39301009D01*
X133477023Y-39824819D02*
X133477023Y-38824819D01*
X133905595Y-38920057D02*
X133953214Y-38872438D01*
X133953214Y-38872438D02*
X134048452Y-38824819D01*
X134048452Y-38824819D02*
X134286547Y-38824819D01*
X134286547Y-38824819D02*
X134381785Y-38872438D01*
X134381785Y-38872438D02*
X134429404Y-38920057D01*
X134429404Y-38920057D02*
X134477023Y-39015295D01*
X134477023Y-39015295D02*
X134477023Y-39110533D01*
X134477023Y-39110533D02*
X134429404Y-39253390D01*
X134429404Y-39253390D02*
X133857976Y-39824819D01*
X133857976Y-39824819D02*
X134477023Y-39824819D01*
D10*
X99190819Y-95161680D02*
X99118247Y-95234252D01*
X99118247Y-95234252D02*
X98900533Y-95306823D01*
X98900533Y-95306823D02*
X98755390Y-95306823D01*
X98755390Y-95306823D02*
X98537676Y-95234252D01*
X98537676Y-95234252D02*
X98392533Y-95089109D01*
X98392533Y-95089109D02*
X98319962Y-94943966D01*
X98319962Y-94943966D02*
X98247390Y-94653680D01*
X98247390Y-94653680D02*
X98247390Y-94435966D01*
X98247390Y-94435966D02*
X98319962Y-94145680D01*
X98319962Y-94145680D02*
X98392533Y-94000537D01*
X98392533Y-94000537D02*
X98537676Y-93855394D01*
X98537676Y-93855394D02*
X98755390Y-93782823D01*
X98755390Y-93782823D02*
X98900533Y-93782823D01*
X98900533Y-93782823D02*
X99118247Y-93855394D01*
X99118247Y-93855394D02*
X99190819Y-93927966D01*
X100497105Y-94290823D02*
X100497105Y-95306823D01*
X100134247Y-93710252D02*
X99771390Y-94798823D01*
X99771390Y-94798823D02*
X100714819Y-94798823D01*
X43236823Y-88134180D02*
X42511109Y-88642180D01*
X43236823Y-89005037D02*
X41712823Y-89005037D01*
X41712823Y-89005037D02*
X41712823Y-88424466D01*
X41712823Y-88424466D02*
X41785394Y-88279323D01*
X41785394Y-88279323D02*
X41857966Y-88206752D01*
X41857966Y-88206752D02*
X42003109Y-88134180D01*
X42003109Y-88134180D02*
X42220823Y-88134180D01*
X42220823Y-88134180D02*
X42365966Y-88206752D01*
X42365966Y-88206752D02*
X42438537Y-88279323D01*
X42438537Y-88279323D02*
X42511109Y-88424466D01*
X42511109Y-88424466D02*
X42511109Y-89005037D01*
X43236823Y-86682752D02*
X43236823Y-87553609D01*
X43236823Y-87118180D02*
X41712823Y-87118180D01*
X41712823Y-87118180D02*
X41930537Y-87263323D01*
X41930537Y-87263323D02*
X42075680Y-87408466D01*
X42075680Y-87408466D02*
X42148252Y-87553609D01*
D12*
X39878095Y-116342319D02*
X39878095Y-115342319D01*
X39878095Y-115818509D02*
X40449523Y-115818509D01*
X40449523Y-116342319D02*
X40449523Y-115342319D01*
X41354285Y-115675652D02*
X41354285Y-116342319D01*
X41116190Y-115294700D02*
X40878095Y-116008985D01*
X40878095Y-116008985D02*
X41497142Y-116008985D01*
X44222200Y-103568332D02*
X44269819Y-103425475D01*
X44269819Y-103425475D02*
X44269819Y-103187380D01*
X44269819Y-103187380D02*
X44222200Y-103092142D01*
X44222200Y-103092142D02*
X44174580Y-103044523D01*
X44174580Y-103044523D02*
X44079342Y-102996904D01*
X44079342Y-102996904D02*
X43984104Y-102996904D01*
X43984104Y-102996904D02*
X43888866Y-103044523D01*
X43888866Y-103044523D02*
X43841247Y-103092142D01*
X43841247Y-103092142D02*
X43793628Y-103187380D01*
X43793628Y-103187380D02*
X43746009Y-103377856D01*
X43746009Y-103377856D02*
X43698390Y-103473094D01*
X43698390Y-103473094D02*
X43650771Y-103520713D01*
X43650771Y-103520713D02*
X43555533Y-103568332D01*
X43555533Y-103568332D02*
X43460295Y-103568332D01*
X43460295Y-103568332D02*
X43365057Y-103520713D01*
X43365057Y-103520713D02*
X43317438Y-103473094D01*
X43317438Y-103473094D02*
X43269819Y-103377856D01*
X43269819Y-103377856D02*
X43269819Y-103139761D01*
X43269819Y-103139761D02*
X43317438Y-102996904D01*
X43269819Y-102663570D02*
X44269819Y-102425475D01*
X44269819Y-102425475D02*
X43555533Y-102234999D01*
X43555533Y-102234999D02*
X44269819Y-102044523D01*
X44269819Y-102044523D02*
X43269819Y-101806428D01*
X44269819Y-100901666D02*
X44269819Y-101473094D01*
X44269819Y-101187380D02*
X43269819Y-101187380D01*
X43269819Y-101187380D02*
X43412676Y-101282618D01*
X43412676Y-101282618D02*
X43507914Y-101377856D01*
X43507914Y-101377856D02*
X43555533Y-101473094D01*
D10*
X86104819Y-100704323D02*
X85596819Y-99978609D01*
X85233962Y-100704323D02*
X85233962Y-99180323D01*
X85233962Y-99180323D02*
X85814533Y-99180323D01*
X85814533Y-99180323D02*
X85959676Y-99252894D01*
X85959676Y-99252894D02*
X86032247Y-99325466D01*
X86032247Y-99325466D02*
X86104819Y-99470609D01*
X86104819Y-99470609D02*
X86104819Y-99688323D01*
X86104819Y-99688323D02*
X86032247Y-99833466D01*
X86032247Y-99833466D02*
X85959676Y-99906037D01*
X85959676Y-99906037D02*
X85814533Y-99978609D01*
X85814533Y-99978609D02*
X85233962Y-99978609D01*
X86975676Y-99833466D02*
X86830533Y-99760894D01*
X86830533Y-99760894D02*
X86757962Y-99688323D01*
X86757962Y-99688323D02*
X86685390Y-99543180D01*
X86685390Y-99543180D02*
X86685390Y-99470609D01*
X86685390Y-99470609D02*
X86757962Y-99325466D01*
X86757962Y-99325466D02*
X86830533Y-99252894D01*
X86830533Y-99252894D02*
X86975676Y-99180323D01*
X86975676Y-99180323D02*
X87265962Y-99180323D01*
X87265962Y-99180323D02*
X87411105Y-99252894D01*
X87411105Y-99252894D02*
X87483676Y-99325466D01*
X87483676Y-99325466D02*
X87556247Y-99470609D01*
X87556247Y-99470609D02*
X87556247Y-99543180D01*
X87556247Y-99543180D02*
X87483676Y-99688323D01*
X87483676Y-99688323D02*
X87411105Y-99760894D01*
X87411105Y-99760894D02*
X87265962Y-99833466D01*
X87265962Y-99833466D02*
X86975676Y-99833466D01*
X86975676Y-99833466D02*
X86830533Y-99906037D01*
X86830533Y-99906037D02*
X86757962Y-99978609D01*
X86757962Y-99978609D02*
X86685390Y-100123752D01*
X86685390Y-100123752D02*
X86685390Y-100414037D01*
X86685390Y-100414037D02*
X86757962Y-100559180D01*
X86757962Y-100559180D02*
X86830533Y-100631752D01*
X86830533Y-100631752D02*
X86975676Y-100704323D01*
X86975676Y-100704323D02*
X87265962Y-100704323D01*
X87265962Y-100704323D02*
X87411105Y-100631752D01*
X87411105Y-100631752D02*
X87483676Y-100559180D01*
X87483676Y-100559180D02*
X87556247Y-100414037D01*
X87556247Y-100414037D02*
X87556247Y-100123752D01*
X87556247Y-100123752D02*
X87483676Y-99978609D01*
X87483676Y-99978609D02*
X87411105Y-99906037D01*
X87411105Y-99906037D02*
X87265962Y-99833466D01*
X109350819Y-74206680D02*
X109278247Y-74279252D01*
X109278247Y-74279252D02*
X109060533Y-74351823D01*
X109060533Y-74351823D02*
X108915390Y-74351823D01*
X108915390Y-74351823D02*
X108697676Y-74279252D01*
X108697676Y-74279252D02*
X108552533Y-74134109D01*
X108552533Y-74134109D02*
X108479962Y-73988966D01*
X108479962Y-73988966D02*
X108407390Y-73698680D01*
X108407390Y-73698680D02*
X108407390Y-73480966D01*
X108407390Y-73480966D02*
X108479962Y-73190680D01*
X108479962Y-73190680D02*
X108552533Y-73045537D01*
X108552533Y-73045537D02*
X108697676Y-72900394D01*
X108697676Y-72900394D02*
X108915390Y-72827823D01*
X108915390Y-72827823D02*
X109060533Y-72827823D01*
X109060533Y-72827823D02*
X109278247Y-72900394D01*
X109278247Y-72900394D02*
X109350819Y-72972966D01*
X109858819Y-72827823D02*
X110874819Y-72827823D01*
X110874819Y-72827823D02*
X110221676Y-74351823D01*
X111130252Y-66795323D02*
X111130252Y-68029037D01*
X111130252Y-68029037D02*
X111202823Y-68174180D01*
X111202823Y-68174180D02*
X111275395Y-68246752D01*
X111275395Y-68246752D02*
X111420537Y-68319323D01*
X111420537Y-68319323D02*
X111710823Y-68319323D01*
X111710823Y-68319323D02*
X111855966Y-68246752D01*
X111855966Y-68246752D02*
X111928537Y-68174180D01*
X111928537Y-68174180D02*
X112001109Y-68029037D01*
X112001109Y-68029037D02*
X112001109Y-66795323D01*
X113452537Y-66795323D02*
X112726823Y-66795323D01*
X112726823Y-66795323D02*
X112654251Y-67521037D01*
X112654251Y-67521037D02*
X112726823Y-67448466D01*
X112726823Y-67448466D02*
X112871966Y-67375894D01*
X112871966Y-67375894D02*
X113234823Y-67375894D01*
X113234823Y-67375894D02*
X113379966Y-67448466D01*
X113379966Y-67448466D02*
X113452537Y-67521037D01*
X113452537Y-67521037D02*
X113525108Y-67666180D01*
X113525108Y-67666180D02*
X113525108Y-68029037D01*
X113525108Y-68029037D02*
X113452537Y-68174180D01*
X113452537Y-68174180D02*
X113379966Y-68246752D01*
X113379966Y-68246752D02*
X113234823Y-68319323D01*
X113234823Y-68319323D02*
X112871966Y-68319323D01*
X112871966Y-68319323D02*
X112726823Y-68246752D01*
X112726823Y-68246752D02*
X112654251Y-68174180D01*
X73155819Y-83414180D02*
X73083247Y-83486752D01*
X73083247Y-83486752D02*
X72865533Y-83559323D01*
X72865533Y-83559323D02*
X72720390Y-83559323D01*
X72720390Y-83559323D02*
X72502676Y-83486752D01*
X72502676Y-83486752D02*
X72357533Y-83341609D01*
X72357533Y-83341609D02*
X72284962Y-83196466D01*
X72284962Y-83196466D02*
X72212390Y-82906180D01*
X72212390Y-82906180D02*
X72212390Y-82688466D01*
X72212390Y-82688466D02*
X72284962Y-82398180D01*
X72284962Y-82398180D02*
X72357533Y-82253037D01*
X72357533Y-82253037D02*
X72502676Y-82107894D01*
X72502676Y-82107894D02*
X72720390Y-82035323D01*
X72720390Y-82035323D02*
X72865533Y-82035323D01*
X72865533Y-82035323D02*
X73083247Y-82107894D01*
X73083247Y-82107894D02*
X73155819Y-82180466D01*
X73736390Y-82180466D02*
X73808962Y-82107894D01*
X73808962Y-82107894D02*
X73954105Y-82035323D01*
X73954105Y-82035323D02*
X74316962Y-82035323D01*
X74316962Y-82035323D02*
X74462105Y-82107894D01*
X74462105Y-82107894D02*
X74534676Y-82180466D01*
X74534676Y-82180466D02*
X74607247Y-82325609D01*
X74607247Y-82325609D02*
X74607247Y-82470752D01*
X74607247Y-82470752D02*
X74534676Y-82688466D01*
X74534676Y-82688466D02*
X73663819Y-83559323D01*
X73663819Y-83559323D02*
X74607247Y-83559323D01*
X85538319Y-94671823D02*
X85030319Y-93946109D01*
X84667462Y-94671823D02*
X84667462Y-93147823D01*
X84667462Y-93147823D02*
X85248033Y-93147823D01*
X85248033Y-93147823D02*
X85393176Y-93220394D01*
X85393176Y-93220394D02*
X85465747Y-93292966D01*
X85465747Y-93292966D02*
X85538319Y-93438109D01*
X85538319Y-93438109D02*
X85538319Y-93655823D01*
X85538319Y-93655823D02*
X85465747Y-93800966D01*
X85465747Y-93800966D02*
X85393176Y-93873537D01*
X85393176Y-93873537D02*
X85248033Y-93946109D01*
X85248033Y-93946109D02*
X84667462Y-93946109D01*
X86989747Y-94671823D02*
X86118890Y-94671823D01*
X86554319Y-94671823D02*
X86554319Y-93147823D01*
X86554319Y-93147823D02*
X86409176Y-93365537D01*
X86409176Y-93365537D02*
X86264033Y-93510680D01*
X86264033Y-93510680D02*
X86118890Y-93583252D01*
X87933176Y-93147823D02*
X88078319Y-93147823D01*
X88078319Y-93147823D02*
X88223462Y-93220394D01*
X88223462Y-93220394D02*
X88296034Y-93292966D01*
X88296034Y-93292966D02*
X88368605Y-93438109D01*
X88368605Y-93438109D02*
X88441176Y-93728394D01*
X88441176Y-93728394D02*
X88441176Y-94091252D01*
X88441176Y-94091252D02*
X88368605Y-94381537D01*
X88368605Y-94381537D02*
X88296034Y-94526680D01*
X88296034Y-94526680D02*
X88223462Y-94599252D01*
X88223462Y-94599252D02*
X88078319Y-94671823D01*
X88078319Y-94671823D02*
X87933176Y-94671823D01*
X87933176Y-94671823D02*
X87788034Y-94599252D01*
X87788034Y-94599252D02*
X87715462Y-94526680D01*
X87715462Y-94526680D02*
X87642891Y-94381537D01*
X87642891Y-94381537D02*
X87570319Y-94091252D01*
X87570319Y-94091252D02*
X87570319Y-93728394D01*
X87570319Y-93728394D02*
X87642891Y-93438109D01*
X87642891Y-93438109D02*
X87715462Y-93292966D01*
X87715462Y-93292966D02*
X87788034Y-93220394D01*
X87788034Y-93220394D02*
X87933176Y-93147823D01*
X44996680Y-54479180D02*
X45069252Y-54551752D01*
X45069252Y-54551752D02*
X45141823Y-54769466D01*
X45141823Y-54769466D02*
X45141823Y-54914609D01*
X45141823Y-54914609D02*
X45069252Y-55132323D01*
X45069252Y-55132323D02*
X44924109Y-55277466D01*
X44924109Y-55277466D02*
X44778966Y-55350037D01*
X44778966Y-55350037D02*
X44488680Y-55422609D01*
X44488680Y-55422609D02*
X44270966Y-55422609D01*
X44270966Y-55422609D02*
X43980680Y-55350037D01*
X43980680Y-55350037D02*
X43835537Y-55277466D01*
X43835537Y-55277466D02*
X43690394Y-55132323D01*
X43690394Y-55132323D02*
X43617823Y-54914609D01*
X43617823Y-54914609D02*
X43617823Y-54769466D01*
X43617823Y-54769466D02*
X43690394Y-54551752D01*
X43690394Y-54551752D02*
X43762966Y-54479180D01*
X45141823Y-53027752D02*
X45141823Y-53898609D01*
X45141823Y-53463180D02*
X43617823Y-53463180D01*
X43617823Y-53463180D02*
X43835537Y-53608323D01*
X43835537Y-53608323D02*
X43980680Y-53753466D01*
X43980680Y-53753466D02*
X44053252Y-53898609D01*
X125959180Y-50034180D02*
X126031752Y-50106752D01*
X126031752Y-50106752D02*
X126104323Y-50324466D01*
X126104323Y-50324466D02*
X126104323Y-50469609D01*
X126104323Y-50469609D02*
X126031752Y-50687323D01*
X126031752Y-50687323D02*
X125886609Y-50832466D01*
X125886609Y-50832466D02*
X125741466Y-50905037D01*
X125741466Y-50905037D02*
X125451180Y-50977609D01*
X125451180Y-50977609D02*
X125233466Y-50977609D01*
X125233466Y-50977609D02*
X124943180Y-50905037D01*
X124943180Y-50905037D02*
X124798037Y-50832466D01*
X124798037Y-50832466D02*
X124652894Y-50687323D01*
X124652894Y-50687323D02*
X124580323Y-50469609D01*
X124580323Y-50469609D02*
X124580323Y-50324466D01*
X124580323Y-50324466D02*
X124652894Y-50106752D01*
X124652894Y-50106752D02*
X124725466Y-50034180D01*
X126104323Y-49308466D02*
X126104323Y-49018180D01*
X126104323Y-49018180D02*
X126031752Y-48873037D01*
X126031752Y-48873037D02*
X125959180Y-48800466D01*
X125959180Y-48800466D02*
X125741466Y-48655323D01*
X125741466Y-48655323D02*
X125451180Y-48582752D01*
X125451180Y-48582752D02*
X124870609Y-48582752D01*
X124870609Y-48582752D02*
X124725466Y-48655323D01*
X124725466Y-48655323D02*
X124652894Y-48727895D01*
X124652894Y-48727895D02*
X124580323Y-48873037D01*
X124580323Y-48873037D02*
X124580323Y-49163323D01*
X124580323Y-49163323D02*
X124652894Y-49308466D01*
X124652894Y-49308466D02*
X124725466Y-49381037D01*
X124725466Y-49381037D02*
X124870609Y-49453609D01*
X124870609Y-49453609D02*
X125233466Y-49453609D01*
X125233466Y-49453609D02*
X125378609Y-49381037D01*
X125378609Y-49381037D02*
X125451180Y-49308466D01*
X125451180Y-49308466D02*
X125523752Y-49163323D01*
X125523752Y-49163323D02*
X125523752Y-48873037D01*
X125523752Y-48873037D02*
X125451180Y-48727895D01*
X125451180Y-48727895D02*
X125378609Y-48655323D01*
X125378609Y-48655323D02*
X125233466Y-48582752D01*
X131258319Y-56426680D02*
X131185747Y-56499252D01*
X131185747Y-56499252D02*
X130968033Y-56571823D01*
X130968033Y-56571823D02*
X130822890Y-56571823D01*
X130822890Y-56571823D02*
X130605176Y-56499252D01*
X130605176Y-56499252D02*
X130460033Y-56354109D01*
X130460033Y-56354109D02*
X130387462Y-56208966D01*
X130387462Y-56208966D02*
X130314890Y-55918680D01*
X130314890Y-55918680D02*
X130314890Y-55700966D01*
X130314890Y-55700966D02*
X130387462Y-55410680D01*
X130387462Y-55410680D02*
X130460033Y-55265537D01*
X130460033Y-55265537D02*
X130605176Y-55120394D01*
X130605176Y-55120394D02*
X130822890Y-55047823D01*
X130822890Y-55047823D02*
X130968033Y-55047823D01*
X130968033Y-55047823D02*
X131185747Y-55120394D01*
X131185747Y-55120394D02*
X131258319Y-55192966D01*
X132709747Y-56571823D02*
X131838890Y-56571823D01*
X132274319Y-56571823D02*
X132274319Y-55047823D01*
X132274319Y-55047823D02*
X132129176Y-55265537D01*
X132129176Y-55265537D02*
X131984033Y-55410680D01*
X131984033Y-55410680D02*
X131838890Y-55483252D01*
X134161176Y-56571823D02*
X133290319Y-56571823D01*
X133725748Y-56571823D02*
X133725748Y-55047823D01*
X133725748Y-55047823D02*
X133580605Y-55265537D01*
X133580605Y-55265537D02*
X133435462Y-55410680D01*
X133435462Y-55410680D02*
X133290319Y-55483252D01*
X98481823Y-104766180D02*
X97756109Y-105274180D01*
X98481823Y-105637037D02*
X96957823Y-105637037D01*
X96957823Y-105637037D02*
X96957823Y-105056466D01*
X96957823Y-105056466D02*
X97030394Y-104911323D01*
X97030394Y-104911323D02*
X97102966Y-104838752D01*
X97102966Y-104838752D02*
X97248109Y-104766180D01*
X97248109Y-104766180D02*
X97465823Y-104766180D01*
X97465823Y-104766180D02*
X97610966Y-104838752D01*
X97610966Y-104838752D02*
X97683537Y-104911323D01*
X97683537Y-104911323D02*
X97756109Y-105056466D01*
X97756109Y-105056466D02*
X97756109Y-105637037D01*
X98481823Y-103314752D02*
X98481823Y-104185609D01*
X98481823Y-103750180D02*
X96957823Y-103750180D01*
X96957823Y-103750180D02*
X97175537Y-103895323D01*
X97175537Y-103895323D02*
X97320680Y-104040466D01*
X97320680Y-104040466D02*
X97393252Y-104185609D01*
X97465823Y-102008466D02*
X98481823Y-102008466D01*
X96885252Y-102371323D02*
X97973823Y-102734180D01*
X97973823Y-102734180D02*
X97973823Y-101790751D01*
X82127462Y-112769323D02*
X82127462Y-111245323D01*
X82127462Y-111245323D02*
X82490319Y-111245323D01*
X82490319Y-111245323D02*
X82708033Y-111317894D01*
X82708033Y-111317894D02*
X82853176Y-111463037D01*
X82853176Y-111463037D02*
X82925747Y-111608180D01*
X82925747Y-111608180D02*
X82998319Y-111898466D01*
X82998319Y-111898466D02*
X82998319Y-112116180D01*
X82998319Y-112116180D02*
X82925747Y-112406466D01*
X82925747Y-112406466D02*
X82853176Y-112551609D01*
X82853176Y-112551609D02*
X82708033Y-112696752D01*
X82708033Y-112696752D02*
X82490319Y-112769323D01*
X82490319Y-112769323D02*
X82127462Y-112769323D01*
X84449747Y-112769323D02*
X83578890Y-112769323D01*
X84014319Y-112769323D02*
X84014319Y-111245323D01*
X84014319Y-111245323D02*
X83869176Y-111463037D01*
X83869176Y-111463037D02*
X83724033Y-111608180D01*
X83724033Y-111608180D02*
X83578890Y-111680752D01*
D12*
X39878095Y-39507319D02*
X39878095Y-38507319D01*
X39878095Y-38983509D02*
X40449523Y-38983509D01*
X40449523Y-39507319D02*
X40449523Y-38507319D01*
X41449523Y-39507319D02*
X40878095Y-39507319D01*
X41163809Y-39507319D02*
X41163809Y-38507319D01*
X41163809Y-38507319D02*
X41068571Y-38650176D01*
X41068571Y-38650176D02*
X40973333Y-38745414D01*
X40973333Y-38745414D02*
X40878095Y-38793033D01*
D10*
X81610390Y-45415823D02*
X81610390Y-46504394D01*
X81610390Y-46504394D02*
X81537819Y-46722109D01*
X81537819Y-46722109D02*
X81392676Y-46867252D01*
X81392676Y-46867252D02*
X81174962Y-46939823D01*
X81174962Y-46939823D02*
X81029819Y-46939823D01*
X82190962Y-45415823D02*
X83134390Y-45415823D01*
X83134390Y-45415823D02*
X82626390Y-45996394D01*
X82626390Y-45996394D02*
X82844105Y-45996394D01*
X82844105Y-45996394D02*
X82989248Y-46068966D01*
X82989248Y-46068966D02*
X83061819Y-46141537D01*
X83061819Y-46141537D02*
X83134390Y-46286680D01*
X83134390Y-46286680D02*
X83134390Y-46649537D01*
X83134390Y-46649537D02*
X83061819Y-46794680D01*
X83061819Y-46794680D02*
X82989248Y-46867252D01*
X82989248Y-46867252D02*
X82844105Y-46939823D01*
X82844105Y-46939823D02*
X82408676Y-46939823D01*
X82408676Y-46939823D02*
X82263533Y-46867252D01*
X82263533Y-46867252D02*
X82190962Y-46794680D01*
X130940819Y-47219180D02*
X130868247Y-47291752D01*
X130868247Y-47291752D02*
X130650533Y-47364323D01*
X130650533Y-47364323D02*
X130505390Y-47364323D01*
X130505390Y-47364323D02*
X130287676Y-47291752D01*
X130287676Y-47291752D02*
X130142533Y-47146609D01*
X130142533Y-47146609D02*
X130069962Y-47001466D01*
X130069962Y-47001466D02*
X129997390Y-46711180D01*
X129997390Y-46711180D02*
X129997390Y-46493466D01*
X129997390Y-46493466D02*
X130069962Y-46203180D01*
X130069962Y-46203180D02*
X130142533Y-46058037D01*
X130142533Y-46058037D02*
X130287676Y-45912894D01*
X130287676Y-45912894D02*
X130505390Y-45840323D01*
X130505390Y-45840323D02*
X130650533Y-45840323D01*
X130650533Y-45840323D02*
X130868247Y-45912894D01*
X130868247Y-45912894D02*
X130940819Y-45985466D01*
X132392247Y-47364323D02*
X131521390Y-47364323D01*
X131956819Y-47364323D02*
X131956819Y-45840323D01*
X131956819Y-45840323D02*
X131811676Y-46058037D01*
X131811676Y-46058037D02*
X131666533Y-46203180D01*
X131666533Y-46203180D02*
X131521390Y-46275752D01*
X132972819Y-45985466D02*
X133045391Y-45912894D01*
X133045391Y-45912894D02*
X133190534Y-45840323D01*
X133190534Y-45840323D02*
X133553391Y-45840323D01*
X133553391Y-45840323D02*
X133698534Y-45912894D01*
X133698534Y-45912894D02*
X133771105Y-45985466D01*
X133771105Y-45985466D02*
X133843676Y-46130609D01*
X133843676Y-46130609D02*
X133843676Y-46275752D01*
X133843676Y-46275752D02*
X133771105Y-46493466D01*
X133771105Y-46493466D02*
X132900248Y-47364323D01*
X132900248Y-47364323D02*
X133843676Y-47364323D01*
X86173319Y-107054323D02*
X85665319Y-106328609D01*
X85302462Y-107054323D02*
X85302462Y-105530323D01*
X85302462Y-105530323D02*
X85883033Y-105530323D01*
X85883033Y-105530323D02*
X86028176Y-105602894D01*
X86028176Y-105602894D02*
X86100747Y-105675466D01*
X86100747Y-105675466D02*
X86173319Y-105820609D01*
X86173319Y-105820609D02*
X86173319Y-106038323D01*
X86173319Y-106038323D02*
X86100747Y-106183466D01*
X86100747Y-106183466D02*
X86028176Y-106256037D01*
X86028176Y-106256037D02*
X85883033Y-106328609D01*
X85883033Y-106328609D02*
X85302462Y-106328609D01*
X87479605Y-105530323D02*
X87189319Y-105530323D01*
X87189319Y-105530323D02*
X87044176Y-105602894D01*
X87044176Y-105602894D02*
X86971605Y-105675466D01*
X86971605Y-105675466D02*
X86826462Y-105893180D01*
X86826462Y-105893180D02*
X86753890Y-106183466D01*
X86753890Y-106183466D02*
X86753890Y-106764037D01*
X86753890Y-106764037D02*
X86826462Y-106909180D01*
X86826462Y-106909180D02*
X86899033Y-106981752D01*
X86899033Y-106981752D02*
X87044176Y-107054323D01*
X87044176Y-107054323D02*
X87334462Y-107054323D01*
X87334462Y-107054323D02*
X87479605Y-106981752D01*
X87479605Y-106981752D02*
X87552176Y-106909180D01*
X87552176Y-106909180D02*
X87624747Y-106764037D01*
X87624747Y-106764037D02*
X87624747Y-106401180D01*
X87624747Y-106401180D02*
X87552176Y-106256037D01*
X87552176Y-106256037D02*
X87479605Y-106183466D01*
X87479605Y-106183466D02*
X87334462Y-106110894D01*
X87334462Y-106110894D02*
X87044176Y-106110894D01*
X87044176Y-106110894D02*
X86899033Y-106183466D01*
X86899033Y-106183466D02*
X86826462Y-106256037D01*
X86826462Y-106256037D02*
X86753890Y-106401180D01*
X95306823Y-104961680D02*
X94581109Y-105469680D01*
X95306823Y-105832537D02*
X93782823Y-105832537D01*
X93782823Y-105832537D02*
X93782823Y-105251966D01*
X93782823Y-105251966D02*
X93855394Y-105106823D01*
X93855394Y-105106823D02*
X93927966Y-105034252D01*
X93927966Y-105034252D02*
X94073109Y-104961680D01*
X94073109Y-104961680D02*
X94290823Y-104961680D01*
X94290823Y-104961680D02*
X94435966Y-105034252D01*
X94435966Y-105034252D02*
X94508537Y-105106823D01*
X94508537Y-105106823D02*
X94581109Y-105251966D01*
X94581109Y-105251966D02*
X94581109Y-105832537D01*
X95306823Y-103510252D02*
X95306823Y-104381109D01*
X95306823Y-103945680D02*
X93782823Y-103945680D01*
X93782823Y-103945680D02*
X94000537Y-104090823D01*
X94000537Y-104090823D02*
X94145680Y-104235966D01*
X94145680Y-104235966D02*
X94218252Y-104381109D01*
X93782823Y-103002251D02*
X93782823Y-102058823D01*
X93782823Y-102058823D02*
X94363394Y-102566823D01*
X94363394Y-102566823D02*
X94363394Y-102349108D01*
X94363394Y-102349108D02*
X94435966Y-102203966D01*
X94435966Y-102203966D02*
X94508537Y-102131394D01*
X94508537Y-102131394D02*
X94653680Y-102058823D01*
X94653680Y-102058823D02*
X95016537Y-102058823D01*
X95016537Y-102058823D02*
X95161680Y-102131394D01*
X95161680Y-102131394D02*
X95234252Y-102203966D01*
X95234252Y-102203966D02*
X95306823Y-102349108D01*
X95306823Y-102349108D02*
X95306823Y-102784537D01*
X95306823Y-102784537D02*
X95234252Y-102929680D01*
X95234252Y-102929680D02*
X95161680Y-103002251D01*
X85538319Y-88639323D02*
X85030319Y-87913609D01*
X84667462Y-88639323D02*
X84667462Y-87115323D01*
X84667462Y-87115323D02*
X85248033Y-87115323D01*
X85248033Y-87115323D02*
X85393176Y-87187894D01*
X85393176Y-87187894D02*
X85465747Y-87260466D01*
X85465747Y-87260466D02*
X85538319Y-87405609D01*
X85538319Y-87405609D02*
X85538319Y-87623323D01*
X85538319Y-87623323D02*
X85465747Y-87768466D01*
X85465747Y-87768466D02*
X85393176Y-87841037D01*
X85393176Y-87841037D02*
X85248033Y-87913609D01*
X85248033Y-87913609D02*
X84667462Y-87913609D01*
X86989747Y-88639323D02*
X86118890Y-88639323D01*
X86554319Y-88639323D02*
X86554319Y-87115323D01*
X86554319Y-87115323D02*
X86409176Y-87333037D01*
X86409176Y-87333037D02*
X86264033Y-87478180D01*
X86264033Y-87478180D02*
X86118890Y-87550752D01*
X87570319Y-87260466D02*
X87642891Y-87187894D01*
X87642891Y-87187894D02*
X87788034Y-87115323D01*
X87788034Y-87115323D02*
X88150891Y-87115323D01*
X88150891Y-87115323D02*
X88296034Y-87187894D01*
X88296034Y-87187894D02*
X88368605Y-87260466D01*
X88368605Y-87260466D02*
X88441176Y-87405609D01*
X88441176Y-87405609D02*
X88441176Y-87550752D01*
X88441176Y-87550752D02*
X88368605Y-87768466D01*
X88368605Y-87768466D02*
X87497748Y-88639323D01*
X87497748Y-88639323D02*
X88441176Y-88639323D01*
X122567890Y-37585323D02*
X122567890Y-38673894D01*
X122567890Y-38673894D02*
X122495319Y-38891609D01*
X122495319Y-38891609D02*
X122350176Y-39036752D01*
X122350176Y-39036752D02*
X122132462Y-39109323D01*
X122132462Y-39109323D02*
X121987319Y-39109323D01*
X123946748Y-38093323D02*
X123946748Y-39109323D01*
X123583890Y-37512752D02*
X123221033Y-38601323D01*
X123221033Y-38601323D02*
X124164462Y-38601323D01*
X127774890Y-63302823D02*
X127774890Y-64391394D01*
X127774890Y-64391394D02*
X127702319Y-64609109D01*
X127702319Y-64609109D02*
X127557176Y-64754252D01*
X127557176Y-64754252D02*
X127339462Y-64826823D01*
X127339462Y-64826823D02*
X127194319Y-64826823D01*
X129226319Y-63302823D02*
X128500605Y-63302823D01*
X128500605Y-63302823D02*
X128428033Y-64028537D01*
X128428033Y-64028537D02*
X128500605Y-63955966D01*
X128500605Y-63955966D02*
X128645748Y-63883394D01*
X128645748Y-63883394D02*
X129008605Y-63883394D01*
X129008605Y-63883394D02*
X129153748Y-63955966D01*
X129153748Y-63955966D02*
X129226319Y-64028537D01*
X129226319Y-64028537D02*
X129298890Y-64173680D01*
X129298890Y-64173680D02*
X129298890Y-64536537D01*
X129298890Y-64536537D02*
X129226319Y-64681680D01*
X129226319Y-64681680D02*
X129153748Y-64754252D01*
X129153748Y-64754252D02*
X129008605Y-64826823D01*
X129008605Y-64826823D02*
X128645748Y-64826823D01*
X128645748Y-64826823D02*
X128500605Y-64754252D01*
X128500605Y-64754252D02*
X128428033Y-64681680D01*
%TO.C,U3*%
X73528000Y-52446000D02*
X98928000Y-52446000D01*
X73528000Y-56002000D02*
X73528000Y-52446000D01*
X73528000Y-56002000D02*
X98928000Y-56002000D01*
X98928000Y-53589000D02*
X98928000Y-52446000D01*
X98928000Y-56002000D02*
X98928000Y-54859000D01*
X98928000Y-54859000D02*
G75*
G02*
X98928000Y-53589000I0J635000D01*
G01*
%TO.C,U2*%
X46604000Y-52446000D02*
X72004000Y-52446000D01*
X46604000Y-56002000D02*
X46604000Y-52446000D01*
X46604000Y-56002000D02*
X72004000Y-56002000D01*
X72004000Y-53589000D02*
X72004000Y-52446000D01*
X72004000Y-56002000D02*
X72004000Y-54859000D01*
X72004000Y-54859000D02*
G75*
G02*
X72004000Y-53589000I0J635000D01*
G01*
%TO.C,J1*%
X41016000Y-64130000D02*
X43556000Y-64130000D01*
X41016000Y-74290000D02*
X43556000Y-74290000D01*
X41016000Y-76830000D02*
X41016000Y-64130000D01*
X41016000Y-76830000D02*
X43556000Y-76830000D01*
X43556000Y-76830000D02*
X43556000Y-64130000D01*
D13*
%TO.C,R9*%
X82926000Y-96896000D02*
X81910000Y-96896000D01*
X82926000Y-97912000D02*
X82926000Y-95880000D01*
X89022000Y-95880000D02*
X82926000Y-95880000D01*
X89022000Y-97912000D02*
X82926000Y-97912000D01*
X89022000Y-97912000D02*
X89022000Y-95880000D01*
X90038000Y-96896000D02*
X89022000Y-96896000D01*
%TO.C,R4*%
X57018000Y-82672000D02*
X56002000Y-82672000D01*
X57018000Y-83688000D02*
X57018000Y-81656000D01*
X63114000Y-81656000D02*
X57018000Y-81656000D01*
X63114000Y-83688000D02*
X57018000Y-83688000D01*
X63114000Y-83688000D02*
X63114000Y-81656000D01*
X64130000Y-82672000D02*
X63114000Y-82672000D01*
D10*
%TO.C,D2*%
X96947000Y-115438000D02*
X96947000Y-112898000D01*
X96937000Y-115438000D02*
G75*
G02*
X96937000Y-112898000I-2199863J1270000D01*
G01*
D13*
%TO.C,R3*%
X44318000Y-85212000D02*
X46350000Y-85212000D01*
X44318000Y-91308000D02*
X44318000Y-85212000D01*
X44318000Y-91308000D02*
X46350000Y-91308000D01*
X45334000Y-85212000D02*
X45334000Y-84196000D01*
X45334000Y-92324000D02*
X45334000Y-91308000D01*
X46350000Y-91308000D02*
X46350000Y-85212000D01*
D10*
%TO.C,C5*%
X104770000Y-83434000D02*
X104770000Y-82418000D01*
X105278000Y-82926000D02*
X104262000Y-82926000D01*
X104008000Y-82926000D02*
G75*
G02*
X98928000Y-82926000I-2540000J0D01*
G01*
X98928000Y-82926000D02*
G75*
G02*
X104008000Y-82926000I2540000J0D01*
G01*
D13*
%TO.C,R18*%
X116708000Y-83434000D02*
X118740000Y-83434000D01*
X116708000Y-89530000D02*
X116708000Y-83434000D01*
X116708000Y-89530000D02*
X118740000Y-89530000D01*
X117724000Y-83434000D02*
X117724000Y-82418000D01*
X117724000Y-90546000D02*
X117724000Y-89530000D01*
X118740000Y-89530000D02*
X118740000Y-83434000D01*
D10*
%TO.C,U1*%
X46604000Y-65654000D02*
X97404000Y-65654000D01*
X46604000Y-70607000D02*
X46604000Y-65654000D01*
X46604000Y-76830000D02*
X46604000Y-71877000D01*
X46604000Y-76830000D02*
X97404000Y-76830000D01*
X97404000Y-76830000D02*
X97404000Y-65654000D01*
X46604000Y-70607000D02*
G75*
G02*
X46604000Y-71877000I0J-635000D01*
G01*
D13*
%TO.C,R11*%
X81910000Y-90800000D02*
X82926000Y-90800000D01*
X82926000Y-89784000D02*
X82926000Y-91816000D01*
X82926000Y-89784000D02*
X89022000Y-89784000D01*
X82926000Y-91816000D02*
X89022000Y-91816000D01*
X89022000Y-89784000D02*
X89022000Y-91816000D01*
X89022000Y-90800000D02*
X90038000Y-90800000D01*
%TO.C,Y1*%
X78735000Y-81021000D02*
X87625000Y-81021000D01*
X78735000Y-84831000D02*
X78735000Y-81021000D01*
X78735000Y-84831000D02*
X87625000Y-84831000D01*
X87625000Y-84831000D02*
X87625000Y-81021000D01*
%TO.C,R16*%
X110358000Y-83434000D02*
X112390000Y-83434000D01*
X110358000Y-89530000D02*
X110358000Y-83434000D01*
X110358000Y-89530000D02*
X112390000Y-89530000D01*
X111374000Y-83434000D02*
X111374000Y-82418000D01*
X111374000Y-90546000D02*
X111374000Y-89530000D01*
X112390000Y-89530000D02*
X112390000Y-83434000D01*
%TO.C,R2*%
X39746000Y-52446000D02*
X41778000Y-52446000D01*
X39746000Y-58542000D02*
X39746000Y-52446000D01*
X39746000Y-58542000D02*
X41778000Y-58542000D01*
X40762000Y-52446000D02*
X40762000Y-51430000D01*
X40762000Y-59558000D02*
X40762000Y-58542000D01*
X41778000Y-58542000D02*
X41778000Y-52446000D01*
%TO.C,R17*%
X113406000Y-83434000D02*
X115438000Y-83434000D01*
X113406000Y-89530000D02*
X113406000Y-83434000D01*
X113406000Y-89530000D02*
X115438000Y-89530000D01*
X114422000Y-83434000D02*
X114422000Y-82418000D01*
X114422000Y-90546000D02*
X114422000Y-89530000D01*
X115438000Y-89530000D02*
X115438000Y-83434000D01*
D10*
%TO.C,U4*%
X95118000Y-88768000D02*
X96388000Y-87498000D01*
X95118000Y-90800000D02*
X95118000Y-88768000D01*
X95118000Y-90800000D02*
X96388000Y-92070000D01*
X96388000Y-87498000D02*
X98420000Y-87498000D01*
X96388000Y-92070000D02*
X98420000Y-92070000D01*
X98420000Y-92070000D02*
X98420000Y-87498000D01*
%TO.C,C10*%
X125598000Y-62860000D02*
X126614000Y-62860000D01*
X126106000Y-63368000D02*
X126106000Y-62352000D01*
X128646000Y-59558000D02*
G75*
G02*
X123566000Y-59558000I-2540000J0D01*
G01*
X123566000Y-59558000D02*
G75*
G02*
X128646000Y-59558000I2540000J0D01*
G01*
%TO.C,U6*%
X100706000Y-52446000D02*
X121026000Y-52446000D01*
X100706000Y-56002000D02*
X100706000Y-52446000D01*
X100706000Y-56002000D02*
X121026000Y-56002000D01*
X121026000Y-53589000D02*
X121026000Y-52446000D01*
X121026000Y-56002000D02*
X121026000Y-54859000D01*
X121026000Y-54859000D02*
G75*
G02*
X121026000Y-53589000I0J635000D01*
G01*
D11*
%TO.C,Q1*%
X99949000Y-88836500D02*
X99949000Y-90868500D01*
X101219000Y-87566500D02*
X99949000Y-88836500D01*
X101219000Y-92138500D02*
X99949000Y-90868500D01*
X103251000Y-87566500D02*
X101219000Y-87566500D01*
X103251000Y-87566500D02*
X103251000Y-92138500D01*
X103251000Y-92138500D02*
X101219000Y-92138500D01*
D13*
%TO.C,R7*%
X82926000Y-102992000D02*
X81910000Y-102992000D01*
X82926000Y-104008000D02*
X82926000Y-101976000D01*
X89022000Y-101976000D02*
X82926000Y-101976000D01*
X89022000Y-104008000D02*
X82926000Y-104008000D01*
X89022000Y-104008000D02*
X89022000Y-101976000D01*
X90038000Y-102992000D02*
X89022000Y-102992000D01*
D10*
%TO.C,J2*%
X50414000Y-86482000D02*
X52319000Y-86482000D01*
X50414000Y-117022000D02*
X50414000Y-86482000D01*
X50414000Y-117022000D02*
X76814000Y-117022000D01*
X52319000Y-89022000D02*
X52319000Y-86482000D01*
X52446000Y-89022000D02*
X73147000Y-89022000D01*
X73909000Y-86482000D02*
X76814000Y-86482000D01*
X73909000Y-88260000D02*
X73909000Y-86482000D01*
X76814000Y-117022000D02*
X76814000Y-86482000D01*
%TO.C,C3*%
X88768000Y-81402000D02*
X96896000Y-81402000D01*
X88768000Y-84450000D02*
X88768000Y-81402000D01*
X88768000Y-84450000D02*
X96896000Y-84450000D01*
X91308000Y-84450000D02*
X94153000Y-84450000D01*
X96896000Y-84450000D02*
X96896000Y-81402000D01*
%TO.C,BAT1*%
X100452000Y-100706000D02*
X105024000Y-100706000D01*
X100452000Y-107818000D02*
X100452000Y-100706000D01*
X100452000Y-107818000D02*
X105024000Y-107818000D01*
X106548000Y-105278000D02*
X106548000Y-103246000D01*
X120772000Y-104262000D02*
X121280000Y-104262000D01*
X121280000Y-104262000D02*
X122804000Y-104262000D01*
X121788000Y-105278000D02*
X121788000Y-103246000D01*
X124328000Y-100706000D02*
X131440000Y-100706000D01*
X124328000Y-107818000D02*
X131440000Y-107818000D01*
X131440000Y-107818000D02*
X131440000Y-100706000D01*
X124848700Y-104262000D02*
G75*
G02*
X104503300Y-104262000I-10172700J0D01*
G01*
X104503300Y-104262000D02*
G75*
G02*
X124848700Y-104262000I10172700J0D01*
G01*
%TO.C,U7*%
X120772000Y-83434000D02*
X130932000Y-83434000D01*
X120772000Y-84577000D02*
X120772000Y-83434000D01*
X120772000Y-86990000D02*
X120772000Y-85847000D01*
X120772000Y-86990000D02*
X130932000Y-86990000D01*
X130932000Y-86990000D02*
X130932000Y-83434000D01*
X120772000Y-84577000D02*
G75*
G02*
X120772000Y-85847000I0J-635000D01*
G01*
%TO.C,C8*%
X123566000Y-76322000D02*
X123566000Y-75306000D01*
X124074000Y-75814000D02*
X123058000Y-75814000D01*
X122804000Y-75814000D02*
G75*
G02*
X117724000Y-75814000I-2540000J0D01*
G01*
X117724000Y-75814000D02*
G75*
G02*
X122804000Y-75814000I2540000J0D01*
G01*
%TO.C,C6*%
X101722000Y-75814000D02*
X102738000Y-75814000D01*
X102230000Y-75306000D02*
X102230000Y-76322000D01*
X108072000Y-75814000D02*
G75*
G02*
X102992000Y-75814000I-2540000J0D01*
G01*
X102992000Y-75814000D02*
G75*
G02*
X108072000Y-75814000I2540000J0D01*
G01*
D13*
%TO.C,R15*%
X107056000Y-83434000D02*
X109088000Y-83434000D01*
X107056000Y-89530000D02*
X107056000Y-83434000D01*
X107056000Y-89530000D02*
X109088000Y-89530000D01*
X108072000Y-83434000D02*
X108072000Y-82418000D01*
X108072000Y-90546000D02*
X108072000Y-89530000D01*
X109088000Y-89530000D02*
X109088000Y-83434000D01*
%TO.C,R5*%
X82926000Y-109342000D02*
X81910000Y-109342000D01*
X82926000Y-110358000D02*
X82926000Y-108326000D01*
X89022000Y-108326000D02*
X82926000Y-108326000D01*
X89022000Y-110358000D02*
X82926000Y-110358000D01*
X89022000Y-110358000D02*
X89022000Y-108326000D01*
X90038000Y-109342000D02*
X89022000Y-109342000D01*
%TO.C,Y2*%
X123312000Y-91054000D02*
X125852000Y-91054000D01*
X123312000Y-96134000D02*
X123312000Y-91054000D01*
X123312000Y-96134000D02*
X125852000Y-96134000D01*
X125852000Y-96134000D02*
X125852000Y-91054000D01*
D10*
%TO.C,C4*%
X95372000Y-93086000D02*
X103500000Y-93086000D01*
X95372000Y-96134000D02*
X95372000Y-93086000D01*
X95372000Y-96134000D02*
X103500000Y-96134000D01*
X97912000Y-96134000D02*
X100757000Y-96134000D01*
X103500000Y-96134000D02*
X103500000Y-93086000D01*
D13*
%TO.C,R1*%
X41524000Y-85212000D02*
X43556000Y-85212000D01*
X41524000Y-91308000D02*
X41524000Y-85212000D01*
X41524000Y-91308000D02*
X43556000Y-91308000D01*
X42540000Y-85212000D02*
X42540000Y-84196000D01*
X42540000Y-92324000D02*
X42540000Y-91308000D01*
X43556000Y-91308000D02*
X43556000Y-85212000D01*
D14*
%TO.C,SW1*%
X42065000Y-105460000D02*
X42065000Y-98960000D01*
X42565000Y-98960000D02*
X42065000Y-98960000D01*
X42565000Y-105460000D02*
X42065000Y-105460000D01*
X45565000Y-98960000D02*
X45065000Y-98960000D01*
X45565000Y-105460000D02*
X45145000Y-105460000D01*
X45565000Y-105460000D02*
X45565000Y-98960000D01*
D13*
%TO.C,R8*%
X81910000Y-99944000D02*
X82926000Y-99944000D01*
X82926000Y-98928000D02*
X82926000Y-100960000D01*
X82926000Y-98928000D02*
X89022000Y-98928000D01*
X82926000Y-100960000D02*
X89022000Y-100960000D01*
X89022000Y-98928000D02*
X89022000Y-100960000D01*
X89022000Y-99944000D02*
X90038000Y-99944000D01*
D10*
%TO.C,C7*%
X109088000Y-75814000D02*
X110104000Y-75814000D01*
X109596000Y-75306000D02*
X109596000Y-76322000D01*
X115438000Y-75814000D02*
G75*
G02*
X110358000Y-75814000I-2540000J0D01*
G01*
X110358000Y-75814000D02*
G75*
G02*
X115438000Y-75814000I2540000J0D01*
G01*
%TO.C,U5*%
X102484000Y-65654000D02*
X122804000Y-65654000D01*
X102484000Y-69210000D02*
X102484000Y-65654000D01*
X102484000Y-69210000D02*
X122804000Y-69210000D01*
X122804000Y-66797000D02*
X122804000Y-65654000D01*
X122804000Y-69210000D02*
X122804000Y-68067000D01*
X122804000Y-68067000D02*
G75*
G02*
X122804000Y-66797000I0J635000D01*
G01*
%TO.C,C2*%
X69210000Y-81402000D02*
X69210000Y-84450000D01*
X74798000Y-81402000D02*
X71953000Y-81402000D01*
X77338000Y-81402000D02*
X69210000Y-81402000D01*
X77338000Y-81402000D02*
X77338000Y-84450000D01*
X77338000Y-84450000D02*
X69210000Y-84450000D01*
D13*
%TO.C,R10*%
X82926000Y-93848000D02*
X81910000Y-93848000D01*
X82926000Y-94864000D02*
X82926000Y-92832000D01*
X89022000Y-92832000D02*
X82926000Y-92832000D01*
X89022000Y-94864000D02*
X82926000Y-94864000D01*
X89022000Y-94864000D02*
X89022000Y-92832000D01*
X90038000Y-93848000D02*
X89022000Y-93848000D01*
D10*
%TO.C,C1*%
X42794000Y-58288000D02*
X42794000Y-50160000D01*
X45842000Y-50160000D02*
X42794000Y-50160000D01*
X45842000Y-55748000D02*
X45842000Y-52903000D01*
X45842000Y-58288000D02*
X42794000Y-58288000D01*
X45842000Y-58288000D02*
X45842000Y-50160000D01*
%TO.C,C9*%
X123820000Y-53970000D02*
X123820000Y-45842000D01*
X126868000Y-45842000D02*
X123820000Y-45842000D01*
X126868000Y-51430000D02*
X126868000Y-48585000D01*
X126868000Y-53970000D02*
X123820000Y-53970000D01*
X126868000Y-53970000D02*
X126868000Y-45842000D01*
%TO.C,C11*%
X131948000Y-62860000D02*
X132964000Y-62860000D01*
X132456000Y-63368000D02*
X132456000Y-62352000D01*
X134996000Y-59558000D02*
G75*
G02*
X129916000Y-59558000I-2540000J0D01*
G01*
X129916000Y-59558000D02*
G75*
G02*
X134996000Y-59558000I2540000J0D01*
G01*
D13*
%TO.C,R14*%
X96642000Y-101214000D02*
X96642000Y-107310000D01*
X97658000Y-100198000D02*
X97658000Y-101214000D01*
X97658000Y-107310000D02*
X97658000Y-108326000D01*
X98674000Y-101214000D02*
X96642000Y-101214000D01*
X98674000Y-101214000D02*
X98674000Y-107310000D01*
X98674000Y-107310000D02*
X96642000Y-107310000D01*
D10*
%TO.C,D1*%
X89581000Y-115438000D02*
X89581000Y-112898000D01*
X89571000Y-115438000D02*
G75*
G02*
X89571000Y-112898000I-2199863J1270000D01*
G01*
D13*
%TO.C,J3*%
X50414000Y-38730000D02*
X113914000Y-38730000D01*
X50414000Y-43810000D02*
X50414000Y-38730000D01*
X50414000Y-43810000D02*
X113914000Y-43810000D01*
X111374000Y-41270000D02*
X111374000Y-38730000D01*
X111374000Y-41270000D02*
X113914000Y-41270000D01*
X113914000Y-43810000D02*
X113914000Y-38730000D01*
D10*
%TO.C,C12*%
X131440000Y-53716000D02*
X132456000Y-53716000D01*
X131948000Y-54224000D02*
X131948000Y-53208000D01*
X134488000Y-50414000D02*
G75*
G02*
X129408000Y-50414000I-2540000J0D01*
G01*
X129408000Y-50414000D02*
G75*
G02*
X134488000Y-50414000I2540000J0D01*
G01*
D13*
%TO.C,R6*%
X81910000Y-106294000D02*
X82926000Y-106294000D01*
X82926000Y-105278000D02*
X82926000Y-107310000D01*
X82926000Y-105278000D02*
X89022000Y-105278000D01*
X82926000Y-107310000D02*
X89022000Y-107310000D01*
X89022000Y-105278000D02*
X89022000Y-107310000D01*
X89022000Y-106294000D02*
X90038000Y-106294000D01*
%TO.C,R13*%
X93594000Y-101214000D02*
X93594000Y-107310000D01*
X94610000Y-100198000D02*
X94610000Y-101214000D01*
X94610000Y-107310000D02*
X94610000Y-108326000D01*
X95626000Y-101214000D02*
X93594000Y-101214000D01*
X95626000Y-101214000D02*
X95626000Y-107310000D01*
X95626000Y-107310000D02*
X93594000Y-107310000D01*
%TO.C,R12*%
X82926000Y-87752000D02*
X81910000Y-87752000D01*
X82926000Y-88768000D02*
X82926000Y-86736000D01*
X89022000Y-86736000D02*
X82926000Y-86736000D01*
X89022000Y-88768000D02*
X82926000Y-88768000D01*
X89022000Y-88768000D02*
X89022000Y-86736000D01*
X90038000Y-87752000D02*
X89022000Y-87752000D01*
D10*
%TO.C,J4*%
X125412500Y-42540000D02*
X120332500Y-42540000D01*
X125412500Y-40000000D02*
X125412500Y-42540000D01*
X125412500Y-40000000D02*
X120332500Y-40000000D01*
X122872500Y-40000000D02*
X122872500Y-42540000D01*
X120332500Y-40000000D02*
X120332500Y-42540000D01*
%TO.C,J5*%
X126868000Y-65400000D02*
X129408000Y-65400000D01*
X126868000Y-75560000D02*
X129408000Y-75560000D01*
X126868000Y-78100000D02*
X126868000Y-65400000D01*
X126868000Y-78100000D02*
X129408000Y-78100000D01*
X129408000Y-78100000D02*
X129408000Y-65400000D01*
%TD*%
M02*
