%TF.GenerationSoftware,KiCad,Pcbnew,8.0.2*%
%TF.CreationDate,2024-08-26T00:59:49-04:00*%
%TF.ProjectId,fredhd_rel1,66726564-6864-45f7-9265-6c312e6b6963,rev?*%
%TF.SameCoordinates,Original*%
%TF.FileFunction,Copper,L1,Top*%
%TF.FilePolarity,Positive*%
%FSLAX46Y46*%
G04 Gerber Fmt 4.6, Leading zero omitted, Abs format (unit mm)*
G04 Created by KiCad (PCBNEW 8.0.2) date 2024-08-26 00:59:49*
%MOMM*%
%LPD*%
G01*
G04 APERTURE LIST*
%TA.AperFunction,ComponentPad*%
%ADD10R,1.575000X1.575000*%
%TD*%
%TA.AperFunction,ComponentPad*%
%ADD11C,1.575000*%
%TD*%
%TA.AperFunction,ComponentPad*%
%ADD12R,1.778000X1.524000*%
%TD*%
%TA.AperFunction,ComponentPad*%
%ADD13O,1.778000X1.524000*%
%TD*%
%TA.AperFunction,ComponentPad*%
%ADD14C,2.032000*%
%TD*%
%TA.AperFunction,ComponentPad*%
%ADD15C,1.829000*%
%TD*%
%TA.AperFunction,ComponentPad*%
%ADD16C,1.397000*%
%TD*%
%TA.AperFunction,ComponentPad*%
%ADD17C,5.000000*%
%TD*%
%TA.AperFunction,ComponentPad*%
%ADD18R,1.397000X1.905000*%
%TD*%
%TA.AperFunction,ComponentPad*%
%ADD19O,1.397000X1.905000*%
%TD*%
%TA.AperFunction,WasherPad*%
%ADD20C,1.727000*%
%TD*%
%TA.AperFunction,SMDPad,CuDef*%
%ADD21R,1.000000X2.000000*%
%TD*%
%TA.AperFunction,SMDPad,CuDef*%
%ADD22R,2.000000X1.000000*%
%TD*%
%TA.AperFunction,SMDPad,CuDef*%
%ADD23R,2.000000X2.000000*%
%TD*%
%TA.AperFunction,ComponentPad*%
%ADD24C,1.905000*%
%TD*%
%TA.AperFunction,ComponentPad*%
%ADD25O,2.032000X3.810000*%
%TD*%
%TA.AperFunction,ComponentPad*%
%ADD26R,1.270000X2.286000*%
%TD*%
%TA.AperFunction,ComponentPad*%
%ADD27O,1.270000X2.286000*%
%TD*%
%TA.AperFunction,ComponentPad*%
%ADD28R,2.159000X2.159000*%
%TD*%
%TA.AperFunction,ComponentPad*%
%ADD29O,2.159000X2.159000*%
%TD*%
%TA.AperFunction,ComponentPad*%
%ADD30R,1.778000X1.778000*%
%TD*%
%TA.AperFunction,ComponentPad*%
%ADD31C,1.778000*%
%TD*%
%TA.AperFunction,ComponentPad*%
%ADD32R,1.524000X2.286000*%
%TD*%
%TA.AperFunction,ComponentPad*%
%ADD33O,1.524000X2.286000*%
%TD*%
%TA.AperFunction,ComponentPad*%
%ADD34R,2.286000X1.524000*%
%TD*%
%TA.AperFunction,ComponentPad*%
%ADD35O,2.286000X1.524000*%
%TD*%
%TA.AperFunction,ViaPad*%
%ADD36C,1.270000*%
%TD*%
%TA.AperFunction,Conductor*%
%ADD37C,0.610000*%
%TD*%
%TA.AperFunction,Conductor*%
%ADD38C,0.305000*%
%TD*%
%TA.AperFunction,Conductor*%
%ADD39C,0.406000*%
%TD*%
G04 APERTURE END LIST*
D10*
%TO.P,U3,1,DIR*%
%TO.N,/RD_N*%
X97658000Y-50414000D03*
D11*
%TO.P,U3,2,A1*%
%TO.N,/D0*%
X95118000Y-50414000D03*
%TO.P,U3,3,A2*%
%TO.N,/D1*%
X92578000Y-50414000D03*
%TO.P,U3,4,A3*%
%TO.N,/D2*%
X90038000Y-50414000D03*
%TO.P,U3,5,A4*%
%TO.N,/D3*%
X87498000Y-50414000D03*
%TO.P,U3,6,A5*%
%TO.N,/D4*%
X84958000Y-50414000D03*
%TO.P,U3,7,A6*%
%TO.N,/D5*%
X82418000Y-50414000D03*
%TO.P,U3,8,A7*%
%TO.N,/D6*%
X79878000Y-50414000D03*
%TO.P,U3,9,A8*%
%TO.N,/D7*%
X77338000Y-50414000D03*
%TO.P,U3,10,GND*%
%TO.N,GND*%
X74798000Y-50414000D03*
%TO.P,U3,11,B8*%
%TO.N,/DD7*%
X74798000Y-58034000D03*
%TO.P,U3,12,B7*%
%TO.N,/DD6*%
X77338000Y-58034000D03*
%TO.P,U3,13,B6*%
%TO.N,/DD5*%
X79878000Y-58034000D03*
%TO.P,U3,14,B5*%
%TO.N,/DD4*%
X82418000Y-58034000D03*
%TO.P,U3,15,B4*%
%TO.N,/DD3*%
X84958000Y-58034000D03*
%TO.P,U3,16,B3*%
%TO.N,/DD2*%
X87498000Y-58034000D03*
%TO.P,U3,17,B2*%
%TO.N,/DD1*%
X90038000Y-58034000D03*
%TO.P,U3,18,B1*%
%TO.N,/DD0*%
X92578000Y-58034000D03*
%TO.P,U3,19,~{G}*%
%TO.N,/PIC_SEL_N*%
X95118000Y-58034000D03*
%TO.P,U3,20,VCC*%
%TO.N,VCC*%
X97658000Y-58034000D03*
%TD*%
D10*
%TO.P,U2,1,IN_0/CLK*%
%TO.N,/A0*%
X70734000Y-50414000D03*
D11*
%TO.P,U2,2,IN_1*%
%TO.N,/A1*%
X68194000Y-50414000D03*
%TO.P,U2,3,IN_2*%
%TO.N,/A2*%
X65654000Y-50414000D03*
%TO.P,U2,4,IN_3*%
%TO.N,/A3*%
X63114000Y-50414000D03*
%TO.P,U2,5,IN_4*%
%TO.N,/A4*%
X60574000Y-50414000D03*
%TO.P,U2,6,IN_5*%
%TO.N,/A5*%
X58034000Y-50414000D03*
%TO.P,U2,7,IN_6*%
%TO.N,/A6*%
X55494000Y-50414000D03*
%TO.P,U2,8,IN_7*%
%TO.N,/A7*%
X52954000Y-50414000D03*
%TO.P,U2,9,IN_8*%
%TO.N,/RD_N*%
X50414000Y-50414000D03*
%TO.P,U2,10,GND*%
%TO.N,GND*%
X47874000Y-50414000D03*
%TO.P,U2,11,~{IN_9/OE}*%
%TO.N,/IORQ_N*%
X47874000Y-58034000D03*
%TO.P,U2,12,IO_0*%
%TO.N,/PIC_WAIT_N*%
X50414000Y-58034000D03*
%TO.P,U2,13,IO_1*%
%TO.N,/PIC_SEL_N*%
X52954000Y-58034000D03*
%TO.P,U2,14,IO_2*%
%TO.N,/EXTIOSEL_N*%
X55494000Y-58034000D03*
%TO.P,U2,15,IO_3*%
%TO.N,/BUS_WAIT_N*%
X58034000Y-58034000D03*
%TO.P,U2,16,IO_4*%
%TO.N,/BUS_INT_N*%
X60574000Y-58034000D03*
%TO.P,U2,17,IO_5*%
%TO.N,/SPARE1*%
X63114000Y-58034000D03*
%TO.P,U2,18,IO_6*%
%TO.N,/WR_N*%
X65654000Y-58034000D03*
%TO.P,U2,19,IO_7*%
%TO.N,/STAT_OE_N*%
X68194000Y-58034000D03*
%TO.P,U2,20,VCC*%
%TO.N,VCC*%
X70734000Y-58034000D03*
%TD*%
D12*
%TO.P,J1,1,1*%
%TO.N,GND*%
X42286000Y-75560000D03*
D13*
%TO.P,J1,2,2*%
%TO.N,/MCLR*%
X42286000Y-73020000D03*
%TO.P,J1,3,3*%
%TO.N,VCC*%
X42286000Y-70480000D03*
%TO.P,J1,4,4*%
%TO.N,/LED0*%
X42286000Y-67940000D03*
%TO.P,J1,5,5*%
%TO.N,/LED1*%
X42286000Y-65400000D03*
%TD*%
D14*
%TO.P,R9,1,1*%
%TO.N,/SD_IN_3V3*%
X80894000Y-96896000D03*
%TO.P,R9,2,2*%
%TO.N,/SPI_SDO*%
X91054000Y-96896000D03*
%TD*%
%TO.P,R4,1*%
%TO.N,N/C*%
X54986000Y-82672000D03*
%TO.P,R4,2,2*%
%TO.N,3V3*%
X65146000Y-82672000D03*
%TD*%
D15*
%TO.P,D2,A*%
%TO.N,N/C*%
X93340000Y-114168000D03*
%TO.P,D2,K,2*%
%TO.N,GND*%
X95880000Y-114168000D03*
%TD*%
D14*
%TO.P,R3,1,1*%
%TO.N,VCC*%
X45334000Y-83180000D03*
%TO.P,R3,2,2*%
%TO.N,/SD_CD*%
X45334000Y-93340000D03*
%TD*%
D11*
%TO.P,C5,1,1*%
%TO.N,3V3*%
X102738000Y-82926000D03*
%TO.P,C5,2,2*%
%TO.N,GND*%
X100198000Y-82926000D03*
%TD*%
D14*
%TO.P,R18,1,1*%
%TO.N,/RTC*%
X117724000Y-81402000D03*
%TO.P,R18,2,2*%
%TO.N,VCC*%
X117724000Y-91562000D03*
%TD*%
D10*
%TO.P,U1,1,MCLR*%
%TO.N,/MCLR*%
X47874000Y-78862000D03*
D11*
%TO.P,U1,2,RA0*%
%TO.N,/A3*%
X50414000Y-78862000D03*
%TO.P,U1,3,RA1*%
%TO.N,/A2*%
X52954000Y-78862000D03*
%TO.P,U1,4,RA2*%
%TO.N,/A1*%
X55494000Y-78862000D03*
%TO.P,U1,5,RA3*%
%TO.N,/A0*%
X58034000Y-78862000D03*
%TO.P,U1,6,RA4*%
%TO.N,/RD_N*%
X60574000Y-78862000D03*
%TO.P,U1,7,RA5*%
%TO.N,/SD_CS_5V*%
X63114000Y-78862000D03*
%TO.P,U1,8,RE0*%
%TO.N,/RTS*%
X65654000Y-78862000D03*
%TO.P,U1,9,RE1*%
%TO.N,/CTS*%
X68194000Y-78862000D03*
%TO.P,U1,10,RE2*%
%TO.N,/SPARE2*%
X70734000Y-78862000D03*
%TO.P,U1,11,VDD*%
%TO.N,VCC*%
X73274000Y-78862000D03*
%TO.P,U1,12,VSS*%
%TO.N,GND*%
X75814000Y-78862000D03*
%TO.P,U1,13,OSC1*%
%TO.N,/OSC1*%
X78354000Y-78862000D03*
%TO.P,U1,14,OSC2*%
%TO.N,/OSC2*%
X80894000Y-78862000D03*
%TO.P,U1,15,RC0*%
%TO.N,/STAT_CS*%
X83434000Y-78862000D03*
%TO.P,U1,16,RC1*%
%TO.N,/SDA*%
X85974000Y-78862000D03*
%TO.P,U1,17,RC2*%
%TO.N,/SCL*%
X88514000Y-78862000D03*
%TO.P,U1,18,RC3*%
%TO.N,/SPI_CLK*%
X91054000Y-78862000D03*
%TO.P,U1,19,RD0*%
%TO.N,/DD0*%
X93594000Y-78862000D03*
%TO.P,U1,20,RD1*%
%TO.N,/DD1*%
X96134000Y-78862000D03*
%TO.P,U1,21,RD2*%
%TO.N,/DD2*%
X96134000Y-63622000D03*
%TO.P,U1,22,RD3*%
%TO.N,/DD3*%
X93594000Y-63622000D03*
%TO.P,U1,23,RC4*%
%TO.N,/SPI_SDI*%
X91054000Y-63622000D03*
%TO.P,U1,24,RC5*%
%TO.N,/SPI_SDO*%
X88514000Y-63622000D03*
%TO.P,U1,25,RC6*%
%TO.N,/TX*%
X85974000Y-63622000D03*
%TO.P,U1,26,RC7*%
%TO.N,/RX*%
X83434000Y-63622000D03*
%TO.P,U1,27,RD4*%
%TO.N,/DD4*%
X80894000Y-63622000D03*
%TO.P,U1,28,RD5*%
%TO.N,/DD5*%
X78354000Y-63622000D03*
%TO.P,U1,29,RD6*%
%TO.N,/DD6*%
X75814000Y-63622000D03*
%TO.P,U1,30,RD7*%
%TO.N,/DD7*%
X73274000Y-63622000D03*
%TO.P,U1,31,VSS*%
%TO.N,GND*%
X70734000Y-63622000D03*
%TO.P,U1,32,VDD*%
%TO.N,VCC*%
X68194000Y-63622000D03*
%TO.P,U1,33,RB0*%
%TO.N,/SPARE1*%
X65654000Y-63622000D03*
%TO.P,U1,34,RB1*%
%TO.N,/PIC_SEL_N*%
X63114000Y-63622000D03*
%TO.P,U1,35,RB2*%
%TO.N,/RTC*%
X60574000Y-63622000D03*
%TO.P,U1,36,RB3*%
%TO.N,/PIC_WAIT_N*%
X58034000Y-63622000D03*
%TO.P,U1,37,RB4*%
%TO.N,/SD_CD*%
X55494000Y-63622000D03*
%TO.P,U1,38,RB5*%
%TO.N,/SD_WRPROT*%
X52954000Y-63622000D03*
%TO.P,U1,39,RB6*%
%TO.N,/LED1*%
X50414000Y-63622000D03*
%TO.P,U1,40,RB7*%
%TO.N,/LED0*%
X47874000Y-63622000D03*
%TD*%
D14*
%TO.P,R11,1,1*%
%TO.N,GND*%
X91054000Y-90800000D03*
%TO.P,R11,2,2*%
%TO.N,/SD_CS_3V3*%
X80894000Y-90800000D03*
%TD*%
D11*
%TO.P,Y1,1,1*%
%TO.N,/OSC1*%
X80640000Y-82926000D03*
%TO.P,Y1,2,2*%
%TO.N,/OSC2*%
X85720000Y-82926000D03*
%TD*%
D14*
%TO.P,R16,1,1*%
%TO.N,/SDA*%
X111374000Y-81402000D03*
%TO.P,R16,2,2*%
%TO.N,VCC*%
X111374000Y-91562000D03*
%TD*%
%TO.P,R2,1,1*%
%TO.N,VCC*%
X40762000Y-50414000D03*
%TO.P,R2,2,2*%
%TO.N,/MCLR*%
X40762000Y-60574000D03*
%TD*%
%TO.P,R17,1,1*%
%TO.N,/SCL*%
X114422000Y-81402000D03*
%TO.P,R17,2,2*%
%TO.N,VCC*%
X114422000Y-91562000D03*
%TD*%
D16*
%TO.P,U4,1,Vin*%
%TO.N,VCC*%
X97404000Y-88514000D03*
%TO.P,U4,2,GND*%
%TO.N,GND*%
X96134000Y-89784000D03*
%TO.P,U4,3,Vout*%
%TO.N,3V3*%
X97404000Y-91054000D03*
%TD*%
D11*
%TO.P,C10,1*%
%TO.N,N/C*%
X126106000Y-60828000D03*
%TO.P,C10,2*%
X126106000Y-58288000D03*
%TD*%
D17*
%TO.P,H3,1*%
%TO.N,N/C*%
X130810000Y-112395000D03*
%TD*%
D18*
%TO.P,U6,1,O1*%
%TO.N,/D1*%
X119756000Y-50414000D03*
D19*
%TO.P,U6,2,O2*%
%TO.N,/D2*%
X117216000Y-50414000D03*
%TO.P,U6,3,O3*%
%TO.N,/D3*%
X114676000Y-50414000D03*
%TO.P,U6,4,O4*%
%TO.N,/D4*%
X112136000Y-50414000D03*
%TO.P,U6,5,O5*%
%TO.N,/D5*%
X109596000Y-50414000D03*
%TO.P,U6,6,O6*%
%TO.N,/D6*%
X107056000Y-50414000D03*
%TO.P,U6,7,O7*%
%TO.N,/D7*%
X104516000Y-50414000D03*
%TO.P,U6,8,GND*%
%TO.N,GND*%
X101976000Y-50414000D03*
%TO.P,U6,9*%
%TO.N,N/C*%
X101976000Y-58034000D03*
%TO.P,U6,10,~{SRCLR}*%
%TO.N,VCC*%
X104516000Y-58034000D03*
%TO.P,U6,11,SRCLK*%
%TO.N,/SPI_CLK*%
X107056000Y-58034000D03*
%TO.P,U6,12,RCLK*%
%TO.N,/STAT_CS*%
X109596000Y-58034000D03*
%TO.P,U6,13,E*%
%TO.N,/STAT_OE_N*%
X112136000Y-58034000D03*
%TO.P,U6,14,SER*%
%TO.N,/SPI_SDO*%
X114676000Y-58034000D03*
%TO.P,U6,15,O0*%
%TO.N,/D0*%
X117216000Y-58034000D03*
%TO.P,U6,16,VCC*%
%TO.N,VCC*%
X119756000Y-58034000D03*
%TD*%
D16*
%TO.P,Q1,1,G*%
%TO.N,/SPI_SDI_3V3*%
X100965000Y-89852500D03*
%TO.P,Q1,2,S*%
X102235000Y-91122500D03*
%TO.P,Q1,3,D*%
%TO.N,/SPI_SDI*%
X102235000Y-88582500D03*
%TD*%
D14*
%TO.P,R7,1,1*%
%TO.N,/SD_CLK_3V3*%
X80894000Y-102992000D03*
%TO.P,R7,2,2*%
%TO.N,/SPI_CLK*%
X91054000Y-102992000D03*
%TD*%
D20*
%TO.P,J2,*%
%TO.N,*%
X51684000Y-89022000D03*
X73784000Y-89022000D03*
D21*
%TO.P,J2,1,DAT3/CD/CS*%
%TO.N,/SD_CS_3V3*%
X69659000Y-86822000D03*
%TO.P,J2,2,CMD/DI*%
%TO.N,/SD_IN_3V3*%
X67159000Y-86822000D03*
%TO.P,J2,3,VSS1*%
%TO.N,GND*%
X64659000Y-86822000D03*
%TO.P,J2,4,VDD*%
%TO.N,3V3*%
X62159000Y-86822000D03*
%TO.P,J2,5,CLK/SCLK*%
%TO.N,/SD_CLK_3V3*%
X59659000Y-86822000D03*
%TO.P,J2,6,VSS2*%
%TO.N,GND*%
X57159000Y-86822000D03*
%TO.P,J2,7,DAT0/DO*%
%TO.N,/SPI_SDI_3V3*%
X54734000Y-86822000D03*
%TO.P,J2,8*%
%TO.N,N/C*%
X53034000Y-86822000D03*
%TO.P,J2,9*%
X72159000Y-86822000D03*
D22*
%TO.P,J2,10,GND_SW*%
%TO.N,GND*%
X49484000Y-109772000D03*
%TO.P,J2,11,WR_PROTECT*%
%TO.N,/SD_WRPROT*%
X49484000Y-107172000D03*
%TO.P,J2,12,CARD_DETECT*%
%TO.N,/SD_CD*%
X49484000Y-98222000D03*
D23*
%TO.P,J2,16*%
%TO.N,N/C*%
X49084000Y-93572000D03*
%TO.P,J2,17*%
X78084000Y-93572000D03*
%TO.P,J2,18*%
X49084000Y-112222000D03*
%TO.P,J2,19*%
X78084000Y-112222000D03*
%TD*%
D24*
%TO.P,C3,1,1*%
%TO.N,/OSC2*%
X90292000Y-82926000D03*
%TO.P,C3,2,2*%
%TO.N,GND*%
X95372000Y-82926000D03*
%TD*%
D25*
%TO.P,BAT1,1,+*%
%TO.N,GND*%
X101976000Y-104262000D03*
%TO.P,BAT1,2*%
%TO.N,N/C*%
X129916000Y-105532000D03*
X129916000Y-102992000D03*
%TD*%
D26*
%TO.P,U7,1*%
%TO.N,N/C*%
X122042000Y-89022000D03*
D27*
%TO.P,U7,2*%
X124582000Y-89022000D03*
%TO.P,U7,3*%
X127122000Y-89022000D03*
%TO.P,U7,4,Gnd*%
%TO.N,GND*%
X129662000Y-89022000D03*
%TO.P,U7,5,SDA*%
%TO.N,/SDA*%
X129662000Y-81402000D03*
%TO.P,U7,6,SCL*%
%TO.N,/SCL*%
X127122000Y-81402000D03*
%TO.P,U7,7,OUT*%
%TO.N,/RTC*%
X124582000Y-81402000D03*
%TO.P,U7,8,Vdd*%
%TO.N,VCC*%
X122042000Y-81402000D03*
%TD*%
D11*
%TO.P,C8,1,1*%
%TO.N,VCC*%
X121534000Y-75814000D03*
%TO.P,C8,2,2*%
%TO.N,GND*%
X118994000Y-75814000D03*
%TD*%
%TO.P,C6,1,1*%
%TO.N,GND*%
X104262000Y-75814000D03*
%TO.P,C6,2*%
%TO.N,N/C*%
X106802000Y-75814000D03*
%TD*%
D14*
%TO.P,R15,1,1*%
%TO.N,/SPI_SDI*%
X108072000Y-81402000D03*
%TO.P,R15,2,2*%
%TO.N,VCC*%
X108072000Y-91562000D03*
%TD*%
%TO.P,R5,1,1*%
%TO.N,/SPI_SDI_3V3*%
X80894000Y-109342000D03*
%TO.P,R5,2,2*%
%TO.N,3V3*%
X91054000Y-109342000D03*
%TD*%
D11*
%TO.P,Y2,1*%
%TO.N,N/C*%
X124582000Y-92324000D03*
%TO.P,Y2,2*%
X124582000Y-94864000D03*
%TD*%
D17*
%TO.P,H2,1*%
%TO.N,N/C*%
X130810000Y-42545000D03*
%TD*%
D24*
%TO.P,C4,1,1*%
%TO.N,3V3*%
X96896000Y-94610000D03*
%TO.P,C4,2,2*%
%TO.N,GND*%
X101976000Y-94610000D03*
%TD*%
D14*
%TO.P,R1,1,1*%
%TO.N,VCC*%
X42540000Y-83180000D03*
%TO.P,R1,2,2*%
%TO.N,/SD_WRPROT*%
X42540000Y-93340000D03*
%TD*%
D17*
%TO.P,H4,1*%
%TO.N,N/C*%
X43180000Y-112395000D03*
%TD*%
D28*
%TO.P,SW1,1,1*%
%TO.N,GND*%
X43815000Y-105460000D03*
D29*
%TO.P,SW1,2,2*%
%TO.N,/MCLR*%
X43815000Y-99060000D03*
%TD*%
D14*
%TO.P,R8,1,1*%
%TO.N,GND*%
X91054000Y-99944000D03*
%TO.P,R8,2,2*%
%TO.N,/SD_IN_3V3*%
X80894000Y-99944000D03*
%TD*%
D11*
%TO.P,C7,1*%
%TO.N,N/C*%
X111628000Y-75814000D03*
%TO.P,C7,2,2*%
%TO.N,VCC*%
X114168000Y-75814000D03*
%TD*%
D18*
%TO.P,U5,1*%
%TO.N,N/C*%
X121534000Y-63622000D03*
D19*
%TO.P,U5,2*%
X118994000Y-63622000D03*
%TO.P,U5,3*%
X116454000Y-63622000D03*
%TO.P,U5,4*%
X113914000Y-63622000D03*
%TO.P,U5,5*%
X111374000Y-63622000D03*
%TO.P,U5,6*%
X108834000Y-63622000D03*
%TO.P,U5,7,T2out*%
%TO.N,/oTX*%
X106294000Y-63622000D03*
%TO.P,U5,8,R2in*%
%TO.N,/oRX*%
X103754000Y-63622000D03*
%TO.P,U5,9,R2out*%
%TO.N,/RX*%
X103754000Y-71242000D03*
%TO.P,U5,10,T2in*%
%TO.N,/TX*%
X106294000Y-71242000D03*
%TO.P,U5,11,T1in*%
%TO.N,/RTS*%
X108834000Y-71242000D03*
%TO.P,U5,12,R1out*%
%TO.N,/CTS*%
X111374000Y-71242000D03*
%TO.P,U5,13,R1in*%
%TO.N,/oCTS*%
X113914000Y-71242000D03*
%TO.P,U5,14,T1out*%
%TO.N,/oRTS*%
X116454000Y-71242000D03*
%TO.P,U5,15,Gnd*%
%TO.N,GND*%
X118994000Y-71242000D03*
%TO.P,U5,16,Vcc*%
%TO.N,VCC*%
X121534000Y-71242000D03*
%TD*%
D24*
%TO.P,C2,1,1*%
%TO.N,/OSC1*%
X75814000Y-82926000D03*
%TO.P,C2,2,2*%
%TO.N,GND*%
X70734000Y-82926000D03*
%TD*%
D14*
%TO.P,R10,1,1*%
%TO.N,/SD_CS_3V3*%
X80894000Y-93848000D03*
%TO.P,R10,2,2*%
%TO.N,/SD_CS_5V*%
X91054000Y-93848000D03*
%TD*%
D24*
%TO.P,C1,1,1*%
%TO.N,VCC*%
X44318000Y-56764000D03*
%TO.P,C1,2,2*%
%TO.N,GND*%
X44318000Y-51684000D03*
%TD*%
%TO.P,C9,1,1*%
%TO.N,VCC*%
X125344000Y-52446000D03*
%TO.P,C9,2,2*%
%TO.N,GND*%
X125344000Y-47366000D03*
%TD*%
D11*
%TO.P,C11,1*%
%TO.N,N/C*%
X132456000Y-60828000D03*
%TO.P,C11,2*%
X132456000Y-58288000D03*
%TD*%
D14*
%TO.P,R14,1*%
%TO.N,N/C*%
X97658000Y-109342000D03*
%TO.P,R14,2,2*%
%TO.N,/LED0*%
X97658000Y-99182000D03*
%TD*%
D15*
%TO.P,D1,A*%
%TO.N,N/C*%
X85974000Y-114168000D03*
%TO.P,D1,K,2*%
%TO.N,GND*%
X88514000Y-114168000D03*
%TD*%
D17*
%TO.P,H1,1*%
%TO.N,N/C*%
X43180000Y-42545000D03*
%TD*%
D30*
%TO.P,J3,1,1*%
%TO.N,/D0*%
X112644000Y-40000000D03*
D31*
%TO.P,J3,2,2*%
%TO.N,GND*%
X112644000Y-42540000D03*
%TO.P,J3,3,3*%
%TO.N,/D1*%
X110104000Y-40000000D03*
%TO.P,J3,4,4*%
%TO.N,GND*%
X110104000Y-42540000D03*
%TO.P,J3,5,5*%
%TO.N,/D2*%
X107564000Y-40000000D03*
%TO.P,J3,6,6*%
%TO.N,GND*%
X107564000Y-42540000D03*
%TO.P,J3,7,7*%
%TO.N,/D3*%
X105024000Y-40000000D03*
%TO.P,J3,8,8*%
%TO.N,GND*%
X105024000Y-42540000D03*
%TO.P,J3,9,9*%
%TO.N,/D4*%
X102484000Y-40000000D03*
%TO.P,J3,10,10*%
%TO.N,GND*%
X102484000Y-42540000D03*
%TO.P,J3,11,11*%
%TO.N,/D5*%
X99944000Y-40000000D03*
%TO.P,J3,12,12*%
%TO.N,GND*%
X99944000Y-42540000D03*
%TO.P,J3,13,13*%
%TO.N,/D6*%
X97404000Y-40000000D03*
%TO.P,J3,14,14*%
%TO.N,GND*%
X97404000Y-42540000D03*
%TO.P,J3,15,15*%
%TO.N,/D7*%
X94864000Y-40000000D03*
%TO.P,J3,16,16*%
%TO.N,GND*%
X94864000Y-42540000D03*
%TO.P,J3,17,17*%
%TO.N,/A0*%
X92324000Y-40000000D03*
%TO.P,J3,18,18*%
%TO.N,GND*%
X92324000Y-42540000D03*
%TO.P,J3,19,19*%
%TO.N,/A1*%
X89784000Y-40000000D03*
%TO.P,J3,20,20*%
%TO.N,GND*%
X89784000Y-42540000D03*
%TO.P,J3,21,21*%
%TO.N,/A2*%
X87244000Y-40000000D03*
%TO.P,J3,22,22*%
%TO.N,GND*%
X87244000Y-42540000D03*
%TO.P,J3,23,23*%
%TO.N,/A3*%
X84704000Y-40000000D03*
%TO.P,J3,24,24*%
%TO.N,GND*%
X84704000Y-42540000D03*
%TO.P,J3,25,25*%
%TO.N,/A4*%
X82164000Y-40000000D03*
%TO.P,J3,26,26*%
%TO.N,GND*%
X82164000Y-42540000D03*
%TO.P,J3,27,27*%
%TO.N,/A5*%
X79624000Y-40000000D03*
%TO.P,J3,28,28*%
%TO.N,GND*%
X79624000Y-42540000D03*
%TO.P,J3,29,29*%
%TO.N,/A6*%
X77084000Y-40000000D03*
%TO.P,J3,30,30*%
%TO.N,GND*%
X77084000Y-42540000D03*
%TO.P,J3,31,31*%
%TO.N,/A7*%
X74544000Y-40000000D03*
%TO.P,J3,32,32*%
%TO.N,GND*%
X74544000Y-42540000D03*
%TO.P,J3,33,33*%
%TO.N,/RD_N*%
X72004000Y-40000000D03*
%TO.P,J3,34,34*%
%TO.N,GND*%
X72004000Y-42540000D03*
%TO.P,J3,35,35*%
%TO.N,/WR_N*%
X69464000Y-40000000D03*
%TO.P,J3,36,36*%
%TO.N,GND*%
X69464000Y-42540000D03*
%TO.P,J3,37,37*%
%TO.N,/RESET_N*%
X66924000Y-40000000D03*
%TO.P,J3,38,38*%
%TO.N,GND*%
X66924000Y-42540000D03*
%TO.P,J3,39,39*%
%TO.N,/BUS_INT_N*%
X64384000Y-40000000D03*
%TO.P,J3,40,40*%
%TO.N,GND*%
X64384000Y-42540000D03*
%TO.P,J3,41,41*%
%TO.N,/BUS_WAIT_N*%
X61844000Y-40000000D03*
%TO.P,J3,42,42*%
%TO.N,GND*%
X61844000Y-42540000D03*
%TO.P,J3,43,43*%
%TO.N,/EXTIOSEL_N*%
X59304000Y-40000000D03*
%TO.P,J3,44,44*%
%TO.N,GND*%
X59304000Y-42540000D03*
%TO.P,J3,45*%
%TO.N,N/C*%
X56764000Y-40000000D03*
%TO.P,J3,46,46*%
%TO.N,GND*%
X56764000Y-42540000D03*
%TO.P,J3,47,47*%
%TO.N,/M1_N*%
X54224000Y-40000000D03*
%TO.P,J3,48,48*%
%TO.N,GND*%
X54224000Y-42540000D03*
%TO.P,J3,49,49*%
%TO.N,/IORQ_N*%
X51684000Y-40000000D03*
%TO.P,J3,50,50*%
%TO.N,GND*%
X51684000Y-42540000D03*
%TD*%
D11*
%TO.P,C12,1,1*%
%TO.N,VCC*%
X131948000Y-51684000D03*
%TO.P,C12,2,2*%
%TO.N,GND*%
X131948000Y-49144000D03*
%TD*%
D14*
%TO.P,R6,1,1*%
%TO.N,GND*%
X91054000Y-106294000D03*
%TO.P,R6,2,2*%
%TO.N,/SD_CLK_3V3*%
X80894000Y-106294000D03*
%TD*%
%TO.P,R13,1*%
%TO.N,N/C*%
X94610000Y-109342000D03*
%TO.P,R13,2,2*%
%TO.N,/LED1*%
X94610000Y-99182000D03*
%TD*%
%TO.P,R12,1*%
%TO.N,N/C*%
X80894000Y-87752000D03*
%TO.P,R12,2,2*%
%TO.N,3V3*%
X91054000Y-87752000D03*
%TD*%
D32*
%TO.P,J4,1,1*%
%TO.N,GND*%
X124142500Y-41270000D03*
D33*
%TO.P,J4,2,2*%
%TO.N,VCC*%
X121602500Y-41270000D03*
%TD*%
D34*
%TO.P,J5,1,1*%
%TO.N,GND*%
X128138000Y-76830000D03*
D35*
%TO.P,J5,2,2*%
%TO.N,/oRTS*%
X128138000Y-74290000D03*
%TO.P,J5,3,3*%
%TO.N,/oCTS*%
X128138000Y-71750000D03*
%TO.P,J5,4,4*%
%TO.N,/oRX*%
X128138000Y-69210000D03*
%TO.P,J5,5,5*%
%TO.N,/oTX*%
X128138000Y-66670000D03*
%TD*%
D36*
%TO.N,/D2*%
X106294000Y-44572000D03*
%TO.N,/D3*%
X103754000Y-44572000D03*
%TO.N,VCC*%
X60066000Y-70480000D03*
%TO.N,/M1_N*%
X60574000Y-60320000D03*
%TO.N,/D6*%
X96134000Y-44572000D03*
%TO.N,/D5*%
X98674000Y-44572000D03*
%TO.N,/RD_N*%
X72004000Y-68956000D03*
X72004000Y-65400000D03*
%TO.N,/D1*%
X108834000Y-44572000D03*
%TO.N,/RESET_N*%
X65654000Y-60320000D03*
%TO.N,3V3*%
X83434000Y-92324000D03*
%TO.N,/D0*%
X113347500Y-52705000D03*
%TO.N,/D4*%
X101214000Y-44572000D03*
%TO.N,/D7*%
X93594000Y-44572000D03*
%TO.N,/SD_CS_5V*%
X85720000Y-95372000D03*
%TO.N,/SPARE2*%
X42545000Y-96520000D03*
%TO.N,/SPARE1*%
X63114000Y-60320000D03*
%TO.N,/STAT_CS*%
X84704000Y-67940000D03*
X99944000Y-67940000D03*
%TD*%
D37*
%TO.N,GND*%
X124142500Y-46355000D02*
X124142500Y-41270000D01*
X125153500Y-47366000D02*
X124142500Y-46355000D01*
X125344000Y-47366000D02*
X125153500Y-47366000D01*
%TO.N,VCC*%
X121602500Y-47307500D02*
X121602500Y-41270000D01*
X125344000Y-52446000D02*
X125344000Y-51049000D01*
X125344000Y-51049000D02*
X121602500Y-47307500D01*
%TO.N,GND*%
X128900000Y-98674000D02*
X101976000Y-98674000D01*
X129662000Y-97912000D02*
X128900000Y-98674000D01*
X129662000Y-84958000D02*
X129662000Y-97912000D01*
X131186000Y-83434000D02*
X129662000Y-84958000D01*
X131186000Y-65654000D02*
X131186000Y-83434000D01*
X127884000Y-48128000D02*
X127884000Y-62352000D01*
X127884000Y-62352000D02*
X131186000Y-65654000D01*
X127122000Y-47366000D02*
X127884000Y-48128000D01*
X125344000Y-47366000D02*
X127122000Y-47366000D01*
D38*
%TO.N,*%
X53034000Y-83100000D02*
X53462000Y-82672000D01*
X77420000Y-87752000D02*
X80894000Y-87752000D01*
X72159000Y-86822000D02*
X76490000Y-86822000D01*
X53462000Y-82672000D02*
X54986000Y-82672000D01*
X76490000Y-86822000D02*
X77420000Y-87752000D01*
X53034000Y-86822000D02*
X53034000Y-83100000D01*
%TO.N,/OSC2*%
X80894000Y-80132000D02*
X80894000Y-78862000D01*
X80894000Y-80132000D02*
X83688000Y-82926000D01*
X83688000Y-82926000D02*
X90292000Y-82926000D01*
%TO.N,/MCLR*%
X40762000Y-78354000D02*
X40762000Y-60574000D01*
X41270000Y-78862000D02*
X47874000Y-78862000D01*
X41270000Y-78862000D02*
X40640000Y-79492000D01*
X40640000Y-97790000D02*
X41910000Y-99060000D01*
X41910000Y-99060000D02*
X43815000Y-99060000D01*
X40640000Y-79492000D02*
X40640000Y-97790000D01*
X40762000Y-73020000D02*
X42286000Y-73020000D01*
X40762000Y-78354000D02*
X41270000Y-78862000D01*
%TO.N,/SD_CD*%
X45334000Y-95975250D02*
X47580750Y-98222000D01*
X47580750Y-98222000D02*
X49484000Y-98222000D01*
X45334000Y-93340000D02*
X45334000Y-95975250D01*
%TO.N,/SD_CS_3V3*%
X69659000Y-90233000D02*
X69659000Y-86822000D01*
X69659000Y-90233000D02*
X70226000Y-90800000D01*
X80894000Y-93848000D02*
X80894000Y-90800000D01*
X70226000Y-90800000D02*
X80894000Y-90800000D01*
%TO.N,/SD_CLK_3V3*%
X59659000Y-101569000D02*
X59659000Y-86822000D01*
X80894000Y-106294000D02*
X80894000Y-102992000D01*
X59659000Y-101569000D02*
X61082000Y-102992000D01*
X61082000Y-102992000D02*
X80894000Y-102992000D01*
%TO.N,/SD_IN_3V3*%
X67159000Y-95607000D02*
X68448000Y-96896000D01*
X68448000Y-96896000D02*
X80894000Y-96896000D01*
X80894000Y-99944000D02*
X80894000Y-96896000D01*
X67159000Y-95607000D02*
X67159000Y-86822000D01*
%TO.N,/SD_WRPROT*%
X42540000Y-93340000D02*
X42540000Y-94610000D01*
X42540000Y-94610000D02*
X46990000Y-99060000D01*
X46990000Y-106362500D02*
X47799500Y-107172000D01*
X49368000Y-107056000D02*
X49484000Y-107172000D01*
X46990000Y-99060000D02*
X46990000Y-106362500D01*
X47799500Y-107172000D02*
X49484000Y-107172000D01*
%TO.N,/SPI_SDI_3V3*%
X54734000Y-106296000D02*
X57780000Y-109342000D01*
X57780000Y-109342000D02*
X80894000Y-109342000D01*
X54734000Y-106296000D02*
X54734000Y-86822000D01*
%TO.N,/WR_N*%
X66924000Y-55240000D02*
X66924000Y-45334000D01*
X68194000Y-41270000D02*
X69464000Y-40000000D01*
X65654000Y-58034000D02*
X65654000Y-56510000D01*
X66924000Y-45334000D02*
X68194000Y-44064000D01*
X68194000Y-44064000D02*
X68194000Y-41270000D01*
X65654000Y-56510000D02*
X66924000Y-55240000D01*
%TO.N,/D2*%
X90038000Y-50414000D02*
X90038000Y-48636000D01*
X90546000Y-48128000D02*
X102738000Y-48128000D01*
X102738000Y-48128000D02*
X106294000Y-44572000D01*
X90038000Y-48636000D02*
X90546000Y-48128000D01*
%TO.N,/D3*%
X87498000Y-50414000D02*
X87498000Y-47874000D01*
X100808000Y-47518000D02*
X103754000Y-44572000D01*
X87498000Y-47874000D02*
X87854000Y-47518000D01*
X87854000Y-47518000D02*
X100808000Y-47518000D01*
D37*
%TO.N,VCC*%
X107056000Y-86990000D02*
X108072000Y-88006000D01*
D39*
X104516000Y-58034000D02*
X104516000Y-56256000D01*
D37*
X117724000Y-91562000D02*
X117724000Y-85720000D01*
D39*
X40762000Y-56256000D02*
X41270000Y-56764000D01*
X40762000Y-56256000D02*
X40762000Y-50414000D01*
X41270000Y-56764000D02*
X44318000Y-56764000D01*
D37*
X97912000Y-86990000D02*
X107056000Y-86990000D01*
D39*
X44318000Y-70480000D02*
X44318000Y-56764000D01*
D37*
X108072000Y-91562000D02*
X108072000Y-88006000D01*
X117724000Y-85720000D02*
X122042000Y-81402000D01*
D39*
X105278000Y-55494000D02*
X119248000Y-55494000D01*
X104516000Y-56256000D02*
X105278000Y-55494000D01*
D37*
X108072000Y-91562000D02*
X117724000Y-91562000D01*
X97404000Y-88514000D02*
X97404000Y-87498000D01*
X97404000Y-87498000D02*
X97912000Y-86990000D01*
D39*
X119756000Y-58034000D02*
X119756000Y-56002000D01*
X42286000Y-70480000D02*
X60066000Y-70480000D01*
X119248000Y-55494000D02*
X119756000Y-56002000D01*
D38*
%TO.N,/M1_N*%
X52954000Y-41270000D02*
X54224000Y-40000000D01*
X52954000Y-43810000D02*
X54224000Y-45080000D01*
X54224000Y-59812000D02*
X54224000Y-45080000D01*
X54732000Y-60320000D02*
X60574000Y-60320000D01*
X52954000Y-43810000D02*
X52954000Y-41270000D01*
X54224000Y-59812000D02*
X54732000Y-60320000D01*
D39*
%TO.N,GND*%
X56764000Y-80386000D02*
X56764000Y-76830000D01*
X88768000Y-105786000D02*
X89276000Y-106294000D01*
X101976000Y-51938000D02*
X102484000Y-52446000D01*
X110866000Y-51938000D02*
X110866000Y-44826000D01*
X76576000Y-75814000D02*
X104262000Y-75814000D01*
X67159000Y-80659000D02*
X67178000Y-80640000D01*
D37*
X69464000Y-42540000D02*
X112644000Y-42540000D01*
D39*
X124074000Y-76830000D02*
X131186000Y-76830000D01*
X89276000Y-106294000D02*
X99182000Y-106294000D01*
X64659000Y-84937000D02*
X64892000Y-84704000D01*
X42286000Y-75560000D02*
X55494000Y-75560000D01*
X64892000Y-84704000D02*
X66670000Y-84704000D01*
X64659000Y-86822000D02*
X64659000Y-84937000D01*
X111374000Y-44318000D02*
X111374000Y-42540000D01*
X118994000Y-77338000D02*
X119756000Y-78100000D01*
X100198000Y-107310000D02*
X101976000Y-107310000D01*
D37*
X127884000Y-49144000D02*
X131948000Y-49144000D01*
D39*
X67159000Y-84196000D02*
X67159000Y-80659000D01*
X75814000Y-76576000D02*
X76576000Y-75814000D01*
X101976000Y-51938000D02*
X101976000Y-50414000D01*
X54146000Y-109772000D02*
X58796000Y-114422000D01*
X102484000Y-52446000D02*
X110358000Y-52446000D01*
X99182000Y-106294000D02*
X100198000Y-107310000D01*
X88768000Y-100452000D02*
X89276000Y-99944000D01*
X92578000Y-99944000D02*
X92832000Y-99690000D01*
X57018000Y-80640000D02*
X75306000Y-80640000D01*
X119756000Y-78100000D02*
X122804000Y-78100000D01*
X49484000Y-109772000D02*
X46907000Y-109772000D01*
X80132000Y-114422000D02*
X82418000Y-112136000D01*
X49484000Y-109772000D02*
X54146000Y-109772000D01*
X101976000Y-111374000D02*
X101976000Y-104516000D01*
X110358000Y-52446000D02*
X110866000Y-51938000D01*
X58796000Y-114422000D02*
X80132000Y-114422000D01*
D37*
X101976000Y-104516000D02*
X101976000Y-94610000D01*
D39*
X70734000Y-82926000D02*
X70734000Y-80640000D01*
X118994000Y-77338000D02*
X118994000Y-71242000D01*
X110866000Y-44826000D02*
X111374000Y-44318000D01*
X92832000Y-99690000D02*
X92832000Y-91054000D01*
X74544000Y-46350000D02*
X74798000Y-46604000D01*
X91054000Y-90800000D02*
X92578000Y-90800000D01*
X101214000Y-112136000D02*
X101976000Y-111374000D01*
X56764000Y-80386000D02*
X57159000Y-80781000D01*
X75814000Y-80132000D02*
X75814000Y-76576000D01*
X57159000Y-86822000D02*
X57159000Y-80781000D01*
X122804000Y-78100000D02*
X124074000Y-76830000D01*
X88768000Y-105786000D02*
X88768000Y-100452000D01*
X82418000Y-112136000D02*
X101214000Y-112136000D01*
X55494000Y-75560000D02*
X56764000Y-76830000D01*
X88514000Y-114168000D02*
X88514000Y-112136000D01*
X89276000Y-99944000D02*
X92578000Y-99944000D01*
X46907000Y-109772000D02*
X43815000Y-106680000D01*
X66670000Y-84704000D02*
X66670000Y-84685000D01*
X43815000Y-106680000D02*
X43815000Y-106095000D01*
X75306000Y-80640000D02*
X75814000Y-80132000D01*
X92578000Y-90800000D02*
X92832000Y-91054000D01*
X74544000Y-46350000D02*
X74544000Y-42540000D01*
X74798000Y-50414000D02*
X74798000Y-46604000D01*
X95880000Y-114168000D02*
X95880000Y-112136000D01*
X66670000Y-84685000D02*
X67159000Y-84196000D01*
D38*
%TO.N,/D6*%
X95626000Y-45842000D02*
X96134000Y-45334000D01*
X80640000Y-45842000D02*
X95626000Y-45842000D01*
X96134000Y-45334000D02*
X96134000Y-44572000D01*
X79878000Y-50414000D02*
X79878000Y-46604000D01*
X79878000Y-46604000D02*
X80640000Y-45842000D01*
%TO.N,/D5*%
X82418000Y-47112000D02*
X83129000Y-46401000D01*
X83129000Y-46401000D02*
X96845000Y-46401000D01*
X96845000Y-46401000D02*
X98674000Y-44572000D01*
X82418000Y-50414000D02*
X82418000Y-47112000D01*
%TO.N,/RD_N*%
X73528000Y-53462000D02*
X97150000Y-53462000D01*
X72004000Y-65400000D02*
X72004000Y-58796000D01*
X60574000Y-78862000D02*
X60574000Y-73782000D01*
X49144000Y-67940000D02*
X50160000Y-68956000D01*
X97658000Y-52954000D02*
X97658000Y-50414000D01*
X50414000Y-55494000D02*
X50414000Y-50414000D01*
X72004000Y-58796000D02*
X72766000Y-58034000D01*
X49144000Y-56764000D02*
X50414000Y-55494000D01*
X49144000Y-67940000D02*
X49144000Y-56764000D01*
X61844000Y-72512000D02*
X61844000Y-68956000D01*
X72766000Y-58034000D02*
X72766000Y-54224000D01*
X50160000Y-68956000D02*
X72004000Y-68956000D01*
X97150000Y-53462000D02*
X97658000Y-52954000D01*
X60574000Y-73782000D02*
X61844000Y-72512000D01*
X72766000Y-54224000D02*
X73528000Y-53462000D01*
%TO.N,/D1*%
X92781000Y-48687000D02*
X104719000Y-48687000D01*
X92578000Y-50414000D02*
X92578000Y-48890000D01*
X104719000Y-48687000D02*
X108834000Y-44572000D01*
X92578000Y-48890000D02*
X92781000Y-48687000D01*
%TO.N,/BUS_INT_N*%
X60574000Y-58034000D02*
X60574000Y-56510000D01*
X61844000Y-45334000D02*
X63114000Y-44064000D01*
X63114000Y-44064000D02*
X63114000Y-41270000D01*
X60574000Y-56510000D02*
X61844000Y-55240000D01*
X61844000Y-55240000D02*
X61844000Y-45334000D01*
X63114000Y-41270000D02*
X64384000Y-40000000D01*
%TO.N,/BUS_WAIT_N*%
X58034000Y-58034000D02*
X58034000Y-56510000D01*
X60574000Y-41270000D02*
X61844000Y-40000000D01*
X59304000Y-55240000D02*
X59304000Y-45080000D01*
X58034000Y-56510000D02*
X59304000Y-55240000D01*
X60574000Y-43810000D02*
X60574000Y-41270000D01*
X59304000Y-45080000D02*
X60574000Y-43810000D01*
%TO.N,/RESET_N*%
X65654000Y-41270000D02*
X66924000Y-40000000D01*
X64384000Y-60066000D02*
X64638000Y-60320000D01*
X65654000Y-44064000D02*
X65654000Y-41270000D01*
X64384000Y-60066000D02*
X64384000Y-45334000D01*
X64638000Y-60320000D02*
X65654000Y-60320000D01*
X64384000Y-45334000D02*
X65654000Y-44064000D01*
%TO.N,/EXTIOSEL_N*%
X55494000Y-56510000D02*
X56764000Y-55240000D01*
X55494000Y-58034000D02*
X55494000Y-56510000D01*
X58034000Y-43810000D02*
X58034000Y-41270000D01*
X56764000Y-55240000D02*
X56764000Y-45080000D01*
X56764000Y-45080000D02*
X58034000Y-43810000D01*
X58034000Y-41270000D02*
X59304000Y-40000000D01*
D37*
%TO.N,3V3*%
X94864000Y-94610000D02*
X96896000Y-94610000D01*
X95118000Y-85212000D02*
X101976000Y-85212000D01*
X83434000Y-89276000D02*
X84958000Y-87752000D01*
X101976000Y-85212000D02*
X102738000Y-84450000D01*
X83434000Y-106548000D02*
X86228000Y-109342000D01*
X102738000Y-84450000D02*
X102738000Y-82926000D01*
D38*
X62159000Y-83373000D02*
X62860000Y-82672000D01*
D37*
X84958000Y-87752000D02*
X94356000Y-87752000D01*
X94356000Y-94102000D02*
X94864000Y-94610000D01*
D38*
X62159000Y-86822000D02*
X62159000Y-83373000D01*
D37*
X94356000Y-94102000D02*
X94356000Y-85974000D01*
X86228000Y-109342000D02*
X91054000Y-109342000D01*
X94356000Y-85974000D02*
X95118000Y-85212000D01*
D38*
X62860000Y-82672000D02*
X65146000Y-82672000D01*
D37*
X83434000Y-106548000D02*
X83434000Y-89276000D01*
D38*
%TO.N,/D0*%
X112707500Y-40000000D02*
X113982500Y-41275000D01*
X113347500Y-45085000D02*
X113347500Y-52705000D01*
X113982500Y-44450000D02*
X113347500Y-45085000D01*
X113982500Y-41275000D02*
X113982500Y-44450000D01*
X112644000Y-40000000D02*
X112707500Y-40000000D01*
%TO.N,/D4*%
X84958000Y-47366000D02*
X85364000Y-46960000D01*
X84958000Y-50414000D02*
X84958000Y-47366000D01*
X98826000Y-46960000D02*
X101214000Y-44572000D01*
X85364000Y-46960000D02*
X98826000Y-46960000D01*
%TO.N,/D7*%
X77338000Y-50414000D02*
X77338000Y-45588000D01*
X77338000Y-45588000D02*
X78354000Y-44572000D01*
X78354000Y-44572000D02*
X93594000Y-44572000D01*
%TO.N,/IORQ_N*%
X47874000Y-56510000D02*
X49144000Y-55240000D01*
X49144000Y-55240000D02*
X49144000Y-42540000D01*
X49144000Y-42540000D02*
X51684000Y-40000000D01*
X47874000Y-58034000D02*
X47874000Y-56510000D01*
%TO.N,/oRX*%
X125598000Y-69210000D02*
X128138000Y-69210000D01*
X103754000Y-66416000D02*
X104516000Y-67178000D01*
X103754000Y-66416000D02*
X103754000Y-63622000D01*
X123566000Y-67178000D02*
X125598000Y-69210000D01*
X104516000Y-67178000D02*
X123566000Y-67178000D01*
%TO.N,/oTX*%
X106294000Y-65146000D02*
X106294000Y-63622000D01*
X106294000Y-65146000D02*
X107056000Y-65908000D01*
X125344000Y-66670000D02*
X128138000Y-66670000D01*
X107056000Y-65908000D02*
X124582000Y-65908000D01*
X124582000Y-65908000D02*
X125344000Y-66670000D01*
%TO.N,/SPI_SDO*%
X88514000Y-63622000D02*
X88514000Y-62352000D01*
X88514000Y-62352000D02*
X89022000Y-61844000D01*
X113914000Y-61844000D02*
X114676000Y-61082000D01*
X89022000Y-61844000D02*
X113914000Y-61844000D01*
X114676000Y-61082000D02*
X114676000Y-58034000D01*
%TO.N,/SD_CS_5V*%
X85720000Y-95372000D02*
X87244000Y-93848000D01*
X87244000Y-93848000D02*
X91054000Y-93848000D01*
%TO.N,/SDA*%
X85974000Y-80132000D02*
X86482000Y-80640000D01*
X97404000Y-80640000D02*
X99690000Y-78354000D01*
X110866000Y-78354000D02*
X111374000Y-78862000D01*
X85974000Y-80132000D02*
X85974000Y-78862000D01*
X99690000Y-78354000D02*
X110866000Y-78354000D01*
X111374000Y-81402000D02*
X111374000Y-78862000D01*
X86482000Y-80640000D02*
X97404000Y-80640000D01*
%TO.N,/SCL*%
X88514000Y-77592000D02*
X88768000Y-77338000D01*
X88768000Y-77338000D02*
X112898000Y-77338000D01*
X112898000Y-77338000D02*
X114422000Y-78862000D01*
X88514000Y-78862000D02*
X88514000Y-77592000D01*
X114422000Y-81402000D02*
X114422000Y-78862000D01*
%TO.N,/RTC*%
X88006000Y-66670000D02*
X101214000Y-66670000D01*
X115184000Y-74036000D02*
X117724000Y-76576000D01*
X61082000Y-67686000D02*
X79878000Y-67686000D01*
X86736000Y-61844000D02*
X87244000Y-62352000D01*
X101214000Y-66670000D02*
X102992000Y-68448000D01*
X87244000Y-65908000D02*
X88006000Y-66670000D01*
X60574000Y-67178000D02*
X60574000Y-63622000D01*
X82672000Y-61844000D02*
X86736000Y-61844000D01*
X117724000Y-81402000D02*
X117724000Y-76576000D01*
X82164000Y-62352000D02*
X82672000Y-61844000D01*
X87244000Y-65908000D02*
X87244000Y-62352000D01*
X79878000Y-67686000D02*
X82164000Y-65400000D01*
X115184000Y-74036000D02*
X115184000Y-69210000D01*
X60574000Y-67178000D02*
X61082000Y-67686000D01*
X102992000Y-68448000D02*
X114422000Y-68448000D01*
X82164000Y-65400000D02*
X82164000Y-62352000D01*
X114422000Y-68448000D02*
X115184000Y-69210000D01*
%TO.N,/PIC_WAIT_N*%
X50414000Y-61590000D02*
X50414000Y-58034000D01*
X50922000Y-62098000D02*
X57780000Y-62098000D01*
X58034000Y-63622000D02*
X58034000Y-62352000D01*
X50414000Y-61590000D02*
X50922000Y-62098000D01*
X57780000Y-62098000D02*
X58034000Y-62352000D01*
%TO.N,/RX*%
X82164000Y-70734000D02*
X82672000Y-71242000D01*
X82164000Y-67178000D02*
X83434000Y-65908000D01*
X82672000Y-71242000D02*
X103754000Y-71242000D01*
X82164000Y-70734000D02*
X82164000Y-67178000D01*
X83434000Y-65908000D02*
X83434000Y-63622000D01*
%TO.N,/PIC_SEL_N*%
X63114000Y-66416000D02*
X63114000Y-62352000D01*
X95118000Y-59812000D02*
X95118000Y-58034000D01*
X58542000Y-61336000D02*
X59304000Y-62098000D01*
X79624000Y-61082000D02*
X80386000Y-60320000D01*
X78354000Y-66670000D02*
X79624000Y-65400000D01*
X63368000Y-66670000D02*
X78354000Y-66670000D01*
X62860000Y-62098000D02*
X63114000Y-62352000D01*
X79624000Y-65400000D02*
X79624000Y-61082000D01*
X53462000Y-61336000D02*
X58542000Y-61336000D01*
X94610000Y-60320000D02*
X95118000Y-59812000D01*
X63114000Y-66416000D02*
X63368000Y-66670000D01*
X52954000Y-60828000D02*
X52954000Y-58034000D01*
X80386000Y-60320000D02*
X94610000Y-60320000D01*
X52954000Y-60828000D02*
X53462000Y-61336000D01*
X59304000Y-62098000D02*
X62860000Y-62098000D01*
%TO.N,/STAT_CS*%
X84704000Y-67940000D02*
X99944000Y-67940000D01*
%TO.N,/RTS*%
X65654000Y-78862000D02*
X65654000Y-74290000D01*
X108834000Y-72512000D02*
X108834000Y-71242000D01*
X108580000Y-72766000D02*
X108834000Y-72512000D01*
X67178000Y-72766000D02*
X108580000Y-72766000D01*
X65654000Y-74290000D02*
X67178000Y-72766000D01*
%TO.N,/CTS*%
X68194000Y-78862000D02*
X68194000Y-74798000D01*
X68956000Y-74036000D02*
X110612000Y-74036000D01*
X111374000Y-73274000D02*
X111374000Y-71242000D01*
X68194000Y-74798000D02*
X68956000Y-74036000D01*
X110612000Y-74036000D02*
X111374000Y-73274000D01*
%TO.N,/TX*%
X106294000Y-71242000D02*
X106294000Y-69718000D01*
X83434000Y-69464000D02*
X106040000Y-69464000D01*
X83180000Y-69210000D02*
X83180000Y-67686000D01*
X85974000Y-64892000D02*
X85974000Y-63622000D01*
X83180000Y-69210000D02*
X83434000Y-69464000D01*
X106040000Y-69464000D02*
X106294000Y-69718000D01*
X83180000Y-67686000D02*
X85974000Y-64892000D01*
%TD*%
%TA.AperFunction,Conductor*%
%TO.N,GND*%
G36*
X134190221Y-85484766D02*
G01*
X134256157Y-85537349D01*
X134292749Y-85613332D01*
X134297500Y-85655500D01*
X134297500Y-96960500D01*
X134278734Y-97042721D01*
X134226151Y-97108657D01*
X134150168Y-97145249D01*
X134108000Y-97150000D01*
X120961500Y-97150000D01*
X120879279Y-97131234D01*
X120813343Y-97078651D01*
X120776751Y-97002668D01*
X120772000Y-96960500D01*
X120772000Y-96473033D01*
X121380600Y-96473033D01*
X121511740Y-96341893D01*
X122049142Y-96341893D01*
X122248649Y-96541400D01*
X122750489Y-96541400D01*
X122949995Y-96341893D01*
X123487397Y-96341893D01*
X123686904Y-96541400D01*
X124188744Y-96541400D01*
X124304452Y-96425691D01*
X124178160Y-96402083D01*
X124985842Y-96402083D01*
X125125159Y-96541400D01*
X125626999Y-96541400D01*
X125826505Y-96341893D01*
X126363908Y-96341893D01*
X126563415Y-96541400D01*
X127065255Y-96541400D01*
X127264761Y-96341893D01*
X127802163Y-96341893D01*
X128001670Y-96541400D01*
X128503510Y-96541400D01*
X128703016Y-96341893D01*
X129240418Y-96341893D01*
X129439925Y-96541400D01*
X129941765Y-96541400D01*
X130141271Y-96341893D01*
X130678673Y-96341893D01*
X130878180Y-96541400D01*
X131380020Y-96541400D01*
X131579526Y-96341893D01*
X132116928Y-96341893D01*
X132316435Y-96541400D01*
X132818275Y-96541400D01*
X133017781Y-96341893D01*
X133555184Y-96341893D01*
X133688900Y-96475609D01*
X133688900Y-96208177D01*
X133555184Y-96341893D01*
X133017781Y-96341893D01*
X132567355Y-95891466D01*
X132116928Y-96341893D01*
X131579526Y-96341893D01*
X131129100Y-95891466D01*
X130678673Y-96341893D01*
X130141271Y-96341893D01*
X129690845Y-95891466D01*
X129240418Y-96341893D01*
X128703016Y-96341893D01*
X128252589Y-95891466D01*
X127802163Y-96341893D01*
X127264761Y-96341893D01*
X126814334Y-95891466D01*
X126363908Y-96341893D01*
X125826505Y-96341893D01*
X125582650Y-96098038D01*
X125563371Y-96115614D01*
X125556809Y-96121326D01*
X125555455Y-96122451D01*
X125548555Y-96127919D01*
X125533167Y-96139540D01*
X125526083Y-96144637D01*
X125524631Y-96145632D01*
X125517270Y-96150429D01*
X125316677Y-96274630D01*
X125309122Y-96279070D01*
X125307585Y-96279926D01*
X125299858Y-96283999D01*
X125282597Y-96292595D01*
X125274595Y-96296350D01*
X125272983Y-96297061D01*
X125264964Y-96300381D01*
X125044967Y-96385608D01*
X125036728Y-96388582D01*
X125035060Y-96389141D01*
X125026712Y-96391727D01*
X125008165Y-96397005D01*
X124999670Y-96399211D01*
X124997956Y-96399614D01*
X124989403Y-96401418D01*
X124985842Y-96402083D01*
X124178160Y-96402083D01*
X124174597Y-96401417D01*
X124166044Y-96399614D01*
X124164330Y-96399211D01*
X124155835Y-96397005D01*
X124137288Y-96391727D01*
X124128940Y-96389141D01*
X124127272Y-96388582D01*
X124119033Y-96385608D01*
X123899036Y-96300381D01*
X123891017Y-96297061D01*
X123889405Y-96296350D01*
X123881403Y-96292595D01*
X123864142Y-96283999D01*
X123856415Y-96279926D01*
X123854878Y-96279070D01*
X123847323Y-96274630D01*
X123666574Y-96162715D01*
X123487397Y-96341893D01*
X122949995Y-96341893D01*
X122499569Y-95891466D01*
X122049142Y-96341893D01*
X121511740Y-96341893D01*
X121380600Y-96210753D01*
X121380600Y-96473033D01*
X120772000Y-96473033D01*
X120772000Y-95572180D01*
X121380600Y-95572180D01*
X121380600Y-95673351D01*
X121780441Y-96073192D01*
X122230867Y-95622765D01*
X122768269Y-95622765D01*
X123218696Y-96073191D01*
X123383291Y-95908596D01*
X123245175Y-95725702D01*
X123240046Y-95718571D01*
X123239051Y-95717118D01*
X123234286Y-95709805D01*
X123224135Y-95693410D01*
X123219671Y-95685811D01*
X123218815Y-95684273D01*
X123214764Y-95676584D01*
X123109600Y-95465389D01*
X123105867Y-95457435D01*
X123105156Y-95455824D01*
X123101818Y-95447763D01*
X123094852Y-95429781D01*
X123091899Y-95421608D01*
X123091339Y-95419939D01*
X123088730Y-95411518D01*
X123064539Y-95326496D01*
X122768269Y-95622765D01*
X122230867Y-95622765D01*
X121780441Y-95172339D01*
X121380600Y-95572180D01*
X120772000Y-95572180D01*
X120772000Y-95034778D01*
X121380600Y-95034778D01*
X121511740Y-94903638D01*
X122049142Y-94903638D01*
X122499568Y-95354064D01*
X122949995Y-94903637D01*
X122499569Y-94453211D01*
X122049142Y-94903638D01*
X121511740Y-94903638D01*
X121380600Y-94772498D01*
X121380600Y-95034778D01*
X120772000Y-95034778D01*
X120772000Y-94133925D01*
X121380600Y-94133925D01*
X121380600Y-94235095D01*
X121780441Y-94634936D01*
X122230867Y-94184510D01*
X122768270Y-94184510D01*
X123046979Y-94463219D01*
X123088730Y-94316482D01*
X123091339Y-94308061D01*
X123091899Y-94306392D01*
X123094852Y-94298219D01*
X123101818Y-94280237D01*
X123105156Y-94272176D01*
X123105867Y-94270565D01*
X123109600Y-94262611D01*
X123214764Y-94051416D01*
X123218815Y-94043727D01*
X123219671Y-94042189D01*
X123224135Y-94034590D01*
X123234286Y-94018195D01*
X123239051Y-94010882D01*
X123240046Y-94009429D01*
X123245175Y-94002298D01*
X123349183Y-93864570D01*
X123218696Y-93734083D01*
X122768270Y-94184510D01*
X122230867Y-94184510D01*
X121780441Y-93734083D01*
X121380600Y-94133925D01*
X120772000Y-94133925D01*
X120772000Y-93596523D01*
X121380600Y-93596523D01*
X121511740Y-93465382D01*
X122049142Y-93465382D01*
X122499569Y-93915809D01*
X122949995Y-93465382D01*
X122499569Y-93014956D01*
X122049142Y-93465382D01*
X121511740Y-93465382D01*
X121380600Y-93334242D01*
X121380600Y-93596523D01*
X120772000Y-93596523D01*
X120772000Y-92695670D01*
X121380600Y-92695670D01*
X121380600Y-92796840D01*
X121780441Y-93196681D01*
X122230867Y-92746255D01*
X122768270Y-92746255D01*
X123218697Y-93196682D01*
X123238739Y-93176639D01*
X123234286Y-93169805D01*
X123224135Y-93153410D01*
X123219671Y-93145811D01*
X123218815Y-93144273D01*
X123214764Y-93136584D01*
X123109600Y-92925389D01*
X123105867Y-92917435D01*
X123105156Y-92915824D01*
X123101818Y-92907763D01*
X123094852Y-92889781D01*
X123091899Y-92881608D01*
X123091339Y-92879939D01*
X123088730Y-92871518D01*
X123024165Y-92644594D01*
X123021956Y-92636084D01*
X123021553Y-92634369D01*
X123019753Y-92625832D01*
X123016211Y-92606879D01*
X123014801Y-92598233D01*
X123014558Y-92596490D01*
X123013551Y-92587810D01*
X123006186Y-92508338D01*
X122768270Y-92746255D01*
X122230867Y-92746255D01*
X121780441Y-92295828D01*
X121380600Y-92695670D01*
X120772000Y-92695670D01*
X120772000Y-92158268D01*
X121380600Y-92158268D01*
X121511740Y-92027127D01*
X122049142Y-92027127D01*
X122499569Y-92477554D01*
X122653123Y-92324000D01*
X123407992Y-92324000D01*
X123427982Y-92539723D01*
X123427982Y-92539726D01*
X123427983Y-92539727D01*
X123487269Y-92748101D01*
X123487270Y-92748103D01*
X123548724Y-92871518D01*
X123583838Y-92942036D01*
X123638905Y-93014956D01*
X123714401Y-93114928D01*
X123874496Y-93260874D01*
X123874497Y-93260875D01*
X123874502Y-93260879D01*
X124058700Y-93374929D01*
X124058702Y-93374930D01*
X124113965Y-93396339D01*
X124166443Y-93416669D01*
X124168062Y-93417296D01*
X124237952Y-93464497D01*
X124280440Y-93537347D01*
X124287113Y-93621419D01*
X124256648Y-93700059D01*
X124195078Y-93757693D01*
X124168062Y-93770704D01*
X124058702Y-93813069D01*
X123874505Y-93927119D01*
X123874496Y-93927125D01*
X123714401Y-94073071D01*
X123583838Y-94245964D01*
X123487270Y-94439896D01*
X123487269Y-94439898D01*
X123427983Y-94648272D01*
X123427982Y-94648277D01*
X123407992Y-94864000D01*
X123427982Y-95079723D01*
X123427982Y-95079726D01*
X123427983Y-95079727D01*
X123487269Y-95288101D01*
X123487270Y-95288103D01*
X123548724Y-95411518D01*
X123583838Y-95482036D01*
X123710920Y-95650318D01*
X123714401Y-95654928D01*
X123874496Y-95800874D01*
X123874497Y-95800875D01*
X123874502Y-95800879D01*
X124020806Y-95891466D01*
X124058702Y-95914930D01*
X124093052Y-95928237D01*
X124260717Y-95993191D01*
X124260722Y-95993192D01*
X124260725Y-95993193D01*
X124473674Y-96033000D01*
X124473676Y-96033000D01*
X124690326Y-96033000D01*
X124903274Y-95993193D01*
X124903275Y-95993192D01*
X124903283Y-95993191D01*
X125105300Y-95914929D01*
X125253466Y-95823189D01*
X125845204Y-95823189D01*
X126095207Y-96073192D01*
X126545633Y-95622765D01*
X127083035Y-95622765D01*
X127533462Y-96073192D01*
X127983888Y-95622765D01*
X128521290Y-95622765D01*
X128971717Y-96073192D01*
X129422143Y-95622765D01*
X129959546Y-95622765D01*
X130409972Y-96073192D01*
X130860399Y-95622765D01*
X131397801Y-95622765D01*
X131848227Y-96073192D01*
X132298654Y-95622765D01*
X132836056Y-95622765D01*
X133286483Y-96073192D01*
X133688900Y-95670775D01*
X133688900Y-95574756D01*
X133286483Y-95172339D01*
X132836056Y-95622765D01*
X132298654Y-95622765D01*
X131848227Y-95172339D01*
X131397801Y-95622765D01*
X130860399Y-95622765D01*
X130409972Y-95172339D01*
X129959546Y-95622765D01*
X129422143Y-95622765D01*
X128971717Y-95172339D01*
X128521290Y-95622765D01*
X127983888Y-95622765D01*
X127533462Y-95172339D01*
X127083035Y-95622765D01*
X126545633Y-95622765D01*
X126132664Y-95209796D01*
X126075270Y-95411518D01*
X126072661Y-95419939D01*
X126072101Y-95421608D01*
X126069148Y-95429781D01*
X126062182Y-95447763D01*
X126058844Y-95455824D01*
X126058133Y-95457435D01*
X126054400Y-95465389D01*
X125949236Y-95676584D01*
X125945185Y-95684273D01*
X125944329Y-95685811D01*
X125939865Y-95693410D01*
X125929714Y-95709805D01*
X125924949Y-95717118D01*
X125923954Y-95718571D01*
X125918825Y-95725702D01*
X125845204Y-95823189D01*
X125253466Y-95823189D01*
X125289498Y-95800879D01*
X125417408Y-95684273D01*
X125449598Y-95654928D01*
X125449598Y-95654926D01*
X125449602Y-95654924D01*
X125580162Y-95482036D01*
X125676730Y-95288101D01*
X125736018Y-95079723D01*
X125752335Y-94903638D01*
X126363908Y-94903638D01*
X126814334Y-95354064D01*
X127264761Y-94903638D01*
X127802163Y-94903638D01*
X128252589Y-95354064D01*
X128703016Y-94903638D01*
X129240418Y-94903638D01*
X129690845Y-95354064D01*
X130141271Y-94903638D01*
X130678673Y-94903638D01*
X131129100Y-95354064D01*
X131579526Y-94903638D01*
X132116928Y-94903638D01*
X132567355Y-95354064D01*
X133017781Y-94903638D01*
X133555184Y-94903638D01*
X133688900Y-95037354D01*
X133688900Y-94769922D01*
X133555184Y-94903638D01*
X133017781Y-94903638D01*
X132567355Y-94453211D01*
X132116928Y-94903638D01*
X131579526Y-94903638D01*
X131129100Y-94453211D01*
X130678673Y-94903638D01*
X130141271Y-94903638D01*
X129690845Y-94453211D01*
X129240418Y-94903638D01*
X128703016Y-94903638D01*
X128252589Y-94453211D01*
X127802163Y-94903638D01*
X127264761Y-94903638D01*
X126814334Y-94453211D01*
X126363908Y-94903638D01*
X125752335Y-94903638D01*
X125756008Y-94864000D01*
X125736018Y-94648277D01*
X125676730Y-94439899D01*
X125580162Y-94245964D01*
X125449602Y-94073076D01*
X125449601Y-94073075D01*
X125449598Y-94073071D01*
X125314569Y-93949976D01*
X125879313Y-93949976D01*
X125918825Y-94002298D01*
X125923954Y-94009429D01*
X125924949Y-94010882D01*
X125929714Y-94018195D01*
X125939865Y-94034590D01*
X125944329Y-94042189D01*
X125945185Y-94043727D01*
X125949236Y-94051416D01*
X126054400Y-94262611D01*
X126058133Y-94270565D01*
X126058844Y-94272176D01*
X126062182Y-94280237D01*
X126069148Y-94298219D01*
X126072101Y-94306392D01*
X126072661Y-94308061D01*
X126075270Y-94316482D01*
X126139835Y-94543406D01*
X126142044Y-94551916D01*
X126142447Y-94553631D01*
X126144247Y-94562168D01*
X126147789Y-94581121D01*
X126147962Y-94582181D01*
X126545633Y-94184510D01*
X127083035Y-94184510D01*
X127533462Y-94634936D01*
X127983888Y-94184510D01*
X128521290Y-94184510D01*
X128971717Y-94634936D01*
X129422143Y-94184510D01*
X129959546Y-94184510D01*
X130409972Y-94634936D01*
X130860399Y-94184510D01*
X131397801Y-94184510D01*
X131848227Y-94634936D01*
X132298654Y-94184510D01*
X132836056Y-94184510D01*
X133286483Y-94634936D01*
X133688900Y-94232520D01*
X133688900Y-94136500D01*
X133286483Y-93734083D01*
X132836056Y-94184510D01*
X132298654Y-94184510D01*
X131848227Y-93734083D01*
X131397801Y-94184510D01*
X130860399Y-94184510D01*
X130409972Y-93734083D01*
X129959546Y-94184510D01*
X129422143Y-94184510D01*
X128971717Y-93734083D01*
X128521290Y-94184510D01*
X127983888Y-94184510D01*
X127533462Y-93734083D01*
X127083035Y-94184510D01*
X126545633Y-94184510D01*
X126095206Y-93734083D01*
X125879313Y-93949976D01*
X125314569Y-93949976D01*
X125289503Y-93927125D01*
X125289500Y-93927123D01*
X125289498Y-93927121D01*
X125105300Y-93813071D01*
X125105297Y-93813069D01*
X125039689Y-93787653D01*
X124995935Y-93770702D01*
X124926048Y-93723503D01*
X124883559Y-93650653D01*
X124879062Y-93594000D01*
X125540502Y-93594000D01*
X125548555Y-93600081D01*
X125555455Y-93605549D01*
X125556809Y-93606674D01*
X125563371Y-93612386D01*
X125624121Y-93667767D01*
X125826506Y-93465383D01*
X125826505Y-93465382D01*
X126363908Y-93465382D01*
X126814334Y-93915809D01*
X127264761Y-93465382D01*
X127802163Y-93465382D01*
X128252589Y-93915809D01*
X128703016Y-93465382D01*
X129240418Y-93465382D01*
X129690845Y-93915809D01*
X130141271Y-93465382D01*
X130678673Y-93465382D01*
X131129100Y-93915809D01*
X131579526Y-93465382D01*
X132116928Y-93465382D01*
X132567355Y-93915809D01*
X133017781Y-93465382D01*
X133555184Y-93465382D01*
X133688900Y-93599098D01*
X133688900Y-93331667D01*
X133555184Y-93465382D01*
X133017781Y-93465382D01*
X132567355Y-93014956D01*
X132116928Y-93465382D01*
X131579526Y-93465382D01*
X131129100Y-93014956D01*
X130678673Y-93465382D01*
X130141271Y-93465382D01*
X129690845Y-93014956D01*
X129240418Y-93465382D01*
X128703016Y-93465382D01*
X128252589Y-93014956D01*
X127802163Y-93465382D01*
X127264761Y-93465382D01*
X126814334Y-93014956D01*
X126363908Y-93465382D01*
X125826505Y-93465382D01*
X125757462Y-93396339D01*
X125751351Y-93403044D01*
X125745303Y-93409379D01*
X125744058Y-93410624D01*
X125737726Y-93416669D01*
X125563371Y-93575614D01*
X125556809Y-93581326D01*
X125555455Y-93582451D01*
X125548555Y-93587919D01*
X125540502Y-93594000D01*
X124879062Y-93594000D01*
X124876886Y-93566582D01*
X124907351Y-93487941D01*
X124968920Y-93430307D01*
X124995931Y-93417298D01*
X125105300Y-93374929D01*
X125289498Y-93260879D01*
X125417408Y-93144273D01*
X125449598Y-93114928D01*
X125449598Y-93114926D01*
X125449602Y-93114924D01*
X125476537Y-93079256D01*
X125977782Y-93079256D01*
X126095207Y-93196681D01*
X126545633Y-92746255D01*
X127083035Y-92746255D01*
X127533462Y-93196681D01*
X127983888Y-92746255D01*
X128521290Y-92746255D01*
X128971717Y-93196681D01*
X129422143Y-92746255D01*
X129959546Y-92746255D01*
X130409972Y-93196681D01*
X130860399Y-92746255D01*
X131397801Y-92746255D01*
X131848227Y-93196681D01*
X132298654Y-92746255D01*
X132836056Y-92746255D01*
X133286483Y-93196681D01*
X133688900Y-92794265D01*
X133688900Y-92698245D01*
X133286483Y-92295828D01*
X132836056Y-92746255D01*
X132298654Y-92746255D01*
X131848227Y-92295828D01*
X131397801Y-92746255D01*
X130860399Y-92746255D01*
X130409972Y-92295828D01*
X129959546Y-92746255D01*
X129422143Y-92746255D01*
X128971717Y-92295828D01*
X128521290Y-92746255D01*
X127983888Y-92746255D01*
X127533462Y-92295828D01*
X127083035Y-92746255D01*
X126545633Y-92746255D01*
X126170526Y-92371148D01*
X126150449Y-92587810D01*
X126149442Y-92596490D01*
X126149199Y-92598233D01*
X126147789Y-92606879D01*
X126144247Y-92625832D01*
X126142447Y-92634369D01*
X126142044Y-92636084D01*
X126139835Y-92644594D01*
X126075270Y-92871518D01*
X126072661Y-92879939D01*
X126072101Y-92881608D01*
X126069148Y-92889781D01*
X126062182Y-92907763D01*
X126058844Y-92915824D01*
X126058133Y-92917435D01*
X126054400Y-92925389D01*
X125977782Y-93079256D01*
X125476537Y-93079256D01*
X125580162Y-92942036D01*
X125676730Y-92748101D01*
X125736018Y-92539723D01*
X125756008Y-92324000D01*
X125736018Y-92108277D01*
X125712929Y-92027127D01*
X126363908Y-92027127D01*
X126814334Y-92477554D01*
X127264761Y-92027127D01*
X127802163Y-92027127D01*
X128252589Y-92477554D01*
X128703016Y-92027127D01*
X129240418Y-92027127D01*
X129690845Y-92477554D01*
X130141271Y-92027127D01*
X130678673Y-92027127D01*
X131129100Y-92477554D01*
X131579526Y-92027127D01*
X132116928Y-92027127D01*
X132567355Y-92477554D01*
X133017781Y-92027127D01*
X133555184Y-92027127D01*
X133688900Y-92160843D01*
X133688900Y-91893412D01*
X133555184Y-92027127D01*
X133017781Y-92027127D01*
X132567355Y-91576701D01*
X132116928Y-92027127D01*
X131579526Y-92027127D01*
X131129100Y-91576701D01*
X130678673Y-92027127D01*
X130141271Y-92027127D01*
X129690845Y-91576701D01*
X129240418Y-92027127D01*
X128703016Y-92027127D01*
X128252589Y-91576701D01*
X127802163Y-92027127D01*
X127264761Y-92027127D01*
X126814334Y-91576701D01*
X126363908Y-92027127D01*
X125712929Y-92027127D01*
X125676730Y-91899899D01*
X125674782Y-91895987D01*
X125606285Y-91758427D01*
X125580162Y-91705964D01*
X125449602Y-91533076D01*
X125449601Y-91533075D01*
X125449598Y-91533071D01*
X125289503Y-91387125D01*
X125289500Y-91387123D01*
X125289498Y-91387121D01*
X125105300Y-91273071D01*
X125105297Y-91273069D01*
X124977520Y-91223568D01*
X125729211Y-91223568D01*
X125737726Y-91231330D01*
X125744058Y-91237376D01*
X125745303Y-91238621D01*
X125751351Y-91244956D01*
X125764341Y-91259206D01*
X125770103Y-91265829D01*
X125771227Y-91267183D01*
X125776644Y-91274022D01*
X125918825Y-91462298D01*
X125923954Y-91469429D01*
X125924949Y-91470882D01*
X125929714Y-91478195D01*
X125939865Y-91494590D01*
X125944329Y-91502189D01*
X125945185Y-91503727D01*
X125949236Y-91511416D01*
X126049449Y-91712669D01*
X126095207Y-91758427D01*
X126545633Y-91308000D01*
X126545632Y-91307999D01*
X127083035Y-91307999D01*
X127533462Y-91758426D01*
X127983888Y-91308000D01*
X128521290Y-91308000D01*
X128971717Y-91758426D01*
X129422143Y-91308000D01*
X129959546Y-91308000D01*
X130409972Y-91758426D01*
X130860399Y-91308000D01*
X131397801Y-91308000D01*
X131848227Y-91758426D01*
X132298654Y-91308000D01*
X132836056Y-91308000D01*
X133286483Y-91758426D01*
X133688900Y-91356010D01*
X133688900Y-91259990D01*
X133286483Y-90857573D01*
X132836056Y-91308000D01*
X132298654Y-91308000D01*
X131848227Y-90857573D01*
X131397801Y-91308000D01*
X130860399Y-91308000D01*
X130409972Y-90857573D01*
X129959546Y-91308000D01*
X129422143Y-91308000D01*
X129053056Y-90938912D01*
X129590458Y-90938912D01*
X129690845Y-91039298D01*
X129778189Y-90951954D01*
X129767256Y-90951686D01*
X129750658Y-90947528D01*
X129676488Y-90910193D01*
X129662000Y-90898302D01*
X129647512Y-90910193D01*
X129590458Y-90938912D01*
X129053056Y-90938912D01*
X128971717Y-90857573D01*
X128521290Y-91308000D01*
X127983888Y-91308000D01*
X127571441Y-90895552D01*
X127568655Y-90896707D01*
X127559968Y-90900058D01*
X127558207Y-90900688D01*
X127549386Y-90903601D01*
X127529779Y-90909549D01*
X127520752Y-90912046D01*
X127518937Y-90912500D01*
X127509922Y-90914523D01*
X127468216Y-90922818D01*
X127083035Y-91307999D01*
X126545632Y-91307999D01*
X126131792Y-90894159D01*
X126669195Y-90894159D01*
X126814335Y-91039299D01*
X126905093Y-90948540D01*
X126734077Y-90914523D01*
X126725063Y-90912500D01*
X126723248Y-90912046D01*
X126714221Y-90909549D01*
X126694614Y-90903601D01*
X126685793Y-90900688D01*
X126684032Y-90900058D01*
X126675345Y-90896707D01*
X126669195Y-90894159D01*
X126131792Y-90894159D01*
X126095206Y-90857573D01*
X125729211Y-91223568D01*
X124977520Y-91223568D01*
X124977502Y-91223561D01*
X124903283Y-91194809D01*
X124903280Y-91194808D01*
X124903274Y-91194806D01*
X124690326Y-91155000D01*
X124690324Y-91155000D01*
X124473676Y-91155000D01*
X124473674Y-91155000D01*
X124260725Y-91194806D01*
X124058702Y-91273069D01*
X123874505Y-91387119D01*
X123874496Y-91387125D01*
X123714401Y-91533071D01*
X123583838Y-91705964D01*
X123487270Y-91899896D01*
X123487269Y-91899898D01*
X123427983Y-92108272D01*
X123427982Y-92108277D01*
X123407992Y-92324000D01*
X122653123Y-92324000D01*
X122949995Y-92027127D01*
X122499569Y-91576701D01*
X122049142Y-92027127D01*
X121511740Y-92027127D01*
X121380600Y-91895987D01*
X121380600Y-92158268D01*
X120772000Y-92158268D01*
X120772000Y-91257415D01*
X121380600Y-91257415D01*
X121380600Y-91358585D01*
X121780441Y-91758426D01*
X122230867Y-91308000D01*
X122768270Y-91308000D01*
X123133960Y-91673690D01*
X123214764Y-91511416D01*
X123218815Y-91503727D01*
X123219671Y-91502189D01*
X123224135Y-91494590D01*
X123234286Y-91478195D01*
X123239051Y-91470882D01*
X123240046Y-91469429D01*
X123245175Y-91462298D01*
X123387356Y-91274022D01*
X123392773Y-91267183D01*
X123393897Y-91265829D01*
X123399659Y-91259206D01*
X123412649Y-91244956D01*
X123418697Y-91238621D01*
X123419942Y-91237376D01*
X123426274Y-91231331D01*
X123513205Y-91152082D01*
X123218696Y-90857573D01*
X122768270Y-91308000D01*
X122230867Y-91308000D01*
X121886467Y-90963600D01*
X122423870Y-90963600D01*
X122499569Y-91039298D01*
X122575268Y-90963600D01*
X122423870Y-90963600D01*
X121886467Y-90963600D01*
X121674415Y-90963600D01*
X121380600Y-91257415D01*
X120772000Y-91257415D01*
X120772000Y-90588871D01*
X123487397Y-90588871D01*
X123825442Y-90926916D01*
X123847323Y-90913369D01*
X123854878Y-90908930D01*
X123856415Y-90908074D01*
X123864142Y-90904001D01*
X123881403Y-90895405D01*
X123889405Y-90891650D01*
X123891017Y-90890939D01*
X123899036Y-90887619D01*
X124009805Y-90844706D01*
X123990506Y-90836712D01*
X125173493Y-90836712D01*
X125198748Y-90861967D01*
X125264965Y-90887620D01*
X125272983Y-90890939D01*
X125274595Y-90891650D01*
X125282597Y-90895405D01*
X125299858Y-90904001D01*
X125307585Y-90908074D01*
X125309122Y-90908930D01*
X125316677Y-90913370D01*
X125431137Y-90984240D01*
X125700120Y-90715257D01*
X127928548Y-90715257D01*
X128252589Y-91039298D01*
X128698589Y-90593299D01*
X128694162Y-90588872D01*
X130678673Y-90588872D01*
X131129100Y-91039298D01*
X131579526Y-90588872D01*
X132116928Y-90588872D01*
X132567355Y-91039298D01*
X133017781Y-90588872D01*
X133555184Y-90588872D01*
X133688900Y-90722588D01*
X133688900Y-90455156D01*
X133555184Y-90588872D01*
X133017781Y-90588872D01*
X132567355Y-90138445D01*
X132116928Y-90588872D01*
X131579526Y-90588872D01*
X131129100Y-90138445D01*
X130678673Y-90588872D01*
X128694162Y-90588872D01*
X128570642Y-90465352D01*
X128564224Y-90458610D01*
X128562967Y-90457223D01*
X128556893Y-90450181D01*
X128543895Y-90434342D01*
X128538214Y-90427065D01*
X128537100Y-90425564D01*
X128531708Y-90417910D01*
X128531011Y-90416867D01*
X128364709Y-90250565D01*
X128252682Y-90418227D01*
X128247324Y-90425835D01*
X128246210Y-90427337D01*
X128240488Y-90434668D01*
X128227489Y-90450507D01*
X128221425Y-90457537D01*
X128220169Y-90458923D01*
X128213746Y-90465671D01*
X128057671Y-90621746D01*
X128050923Y-90628169D01*
X128049537Y-90629425D01*
X128042507Y-90635489D01*
X128026668Y-90648488D01*
X128019337Y-90654210D01*
X128017835Y-90655324D01*
X128010227Y-90660682D01*
X127928548Y-90715257D01*
X125700120Y-90715257D01*
X125826505Y-90588872D01*
X125687782Y-90450149D01*
X125687489Y-90450507D01*
X125681425Y-90457537D01*
X125680169Y-90458923D01*
X125673746Y-90465671D01*
X125517671Y-90621746D01*
X125510923Y-90628169D01*
X125509537Y-90629425D01*
X125502507Y-90635489D01*
X125486668Y-90648488D01*
X125479337Y-90654210D01*
X125477835Y-90655324D01*
X125470227Y-90660682D01*
X125286702Y-90783309D01*
X125278815Y-90788302D01*
X125277211Y-90789263D01*
X125269147Y-90793831D01*
X125251076Y-90803490D01*
X125242787Y-90807662D01*
X125241096Y-90808462D01*
X125232575Y-90812240D01*
X125173493Y-90836712D01*
X123990506Y-90836712D01*
X123931425Y-90812240D01*
X123922904Y-90808462D01*
X123921213Y-90807662D01*
X123912924Y-90803490D01*
X123894853Y-90793831D01*
X123886789Y-90789263D01*
X123885185Y-90788302D01*
X123877298Y-90783309D01*
X123693773Y-90660682D01*
X123686165Y-90655324D01*
X123684663Y-90654210D01*
X123677332Y-90648488D01*
X123661493Y-90635489D01*
X123654463Y-90629425D01*
X123653077Y-90628169D01*
X123646329Y-90621746D01*
X123550426Y-90525843D01*
X123487397Y-90588871D01*
X120772000Y-90588871D01*
X120772000Y-90527016D01*
X120790766Y-90444795D01*
X120843349Y-90378859D01*
X120919332Y-90342267D01*
X121003668Y-90342267D01*
X121079651Y-90378859D01*
X121095497Y-90393019D01*
X121182254Y-90479776D01*
X121237849Y-90506955D01*
X121296634Y-90535694D01*
X121296635Y-90535695D01*
X121296637Y-90535695D01*
X121296639Y-90535696D01*
X121370794Y-90546500D01*
X121370799Y-90546500D01*
X122713201Y-90546500D01*
X122713206Y-90546500D01*
X122787361Y-90535696D01*
X122787362Y-90535695D01*
X122787364Y-90535695D01*
X122787365Y-90535694D01*
X122807515Y-90525843D01*
X122901746Y-90479776D01*
X122991776Y-90389746D01*
X123047696Y-90275361D01*
X123058500Y-90201206D01*
X123058500Y-88413884D01*
X123565500Y-88413884D01*
X123565500Y-89630115D01*
X123604563Y-89826501D01*
X123681189Y-90011493D01*
X123792431Y-90177979D01*
X123934020Y-90319568D01*
X124100506Y-90430810D01*
X124218716Y-90479774D01*
X124285498Y-90507436D01*
X124481884Y-90546500D01*
X124682116Y-90546500D01*
X124878502Y-90507436D01*
X125063493Y-90430810D01*
X125229981Y-90319567D01*
X125371567Y-90177981D01*
X125482810Y-90011493D01*
X125559436Y-89826502D01*
X125598500Y-89630116D01*
X125598500Y-88413884D01*
X126105500Y-88413884D01*
X126105500Y-89630115D01*
X126144563Y-89826501D01*
X126221189Y-90011493D01*
X126332431Y-90177979D01*
X126474020Y-90319568D01*
X126640506Y-90430810D01*
X126758716Y-90479774D01*
X126825498Y-90507436D01*
X127021884Y-90546500D01*
X127222116Y-90546500D01*
X127418502Y-90507436D01*
X127603493Y-90430810D01*
X127769981Y-90319567D01*
X127911567Y-90177981D01*
X128022810Y-90011493D01*
X128099436Y-89826502D01*
X128138500Y-89630116D01*
X128138500Y-88413928D01*
X128646000Y-88413928D01*
X128646000Y-88818799D01*
X128646001Y-88818800D01*
X129375172Y-88818800D01*
X129335852Y-88886905D01*
X129312000Y-88975922D01*
X129312000Y-89068078D01*
X129335852Y-89157095D01*
X129375172Y-89225200D01*
X128646001Y-89225200D01*
X128646000Y-89225201D01*
X128646000Y-89630071D01*
X128685043Y-89826356D01*
X128761630Y-90011253D01*
X128761632Y-90011258D01*
X128872821Y-90177662D01*
X129014337Y-90319178D01*
X129180741Y-90430367D01*
X129180746Y-90430369D01*
X129365642Y-90506955D01*
X129365644Y-90506956D01*
X129458799Y-90525485D01*
X129458800Y-90525485D01*
X129458800Y-89308827D01*
X129526905Y-89348148D01*
X129615922Y-89372000D01*
X129708078Y-89372000D01*
X129797095Y-89348148D01*
X129865200Y-89308827D01*
X129865200Y-90525485D01*
X129958355Y-90506956D01*
X129958357Y-90506955D01*
X130143253Y-90430369D01*
X130143258Y-90430367D01*
X130309662Y-90319178D01*
X130451178Y-90177662D01*
X130562367Y-90011258D01*
X130562369Y-90011253D01*
X130620984Y-89869744D01*
X131397801Y-89869744D01*
X131848227Y-90320171D01*
X132298654Y-89869744D01*
X132836056Y-89869744D01*
X133286483Y-90320171D01*
X133688900Y-89917754D01*
X133688900Y-89821735D01*
X133286483Y-89419318D01*
X132836056Y-89869744D01*
X132298654Y-89869744D01*
X131848227Y-89419318D01*
X131397801Y-89869744D01*
X130620984Y-89869744D01*
X130638956Y-89826356D01*
X130677999Y-89630071D01*
X130678000Y-89630061D01*
X130678000Y-89225201D01*
X130677999Y-89225200D01*
X129948828Y-89225200D01*
X129988148Y-89157095D01*
X130012000Y-89068078D01*
X130012000Y-89022000D01*
X131054424Y-89022000D01*
X131074876Y-89052609D01*
X131080676Y-89066612D01*
X131095100Y-89139128D01*
X131095100Y-89567044D01*
X131129099Y-89601044D01*
X131579526Y-89150617D01*
X132116928Y-89150617D01*
X132567355Y-89601043D01*
X133017781Y-89150617D01*
X133555184Y-89150617D01*
X133688900Y-89284333D01*
X133688900Y-89016901D01*
X133555184Y-89150617D01*
X133017781Y-89150617D01*
X132567355Y-88700190D01*
X132116928Y-89150617D01*
X131579526Y-89150617D01*
X131129100Y-88700190D01*
X131095100Y-88734191D01*
X131095100Y-88904872D01*
X131080676Y-88977388D01*
X131074876Y-88991391D01*
X131054424Y-89022000D01*
X130012000Y-89022000D01*
X130012000Y-88975922D01*
X129988148Y-88886905D01*
X129948828Y-88818800D01*
X130677999Y-88818800D01*
X130678000Y-88818799D01*
X130678000Y-88431489D01*
X131397801Y-88431489D01*
X131848227Y-88881916D01*
X132298654Y-88431489D01*
X132836056Y-88431489D01*
X133286483Y-88881916D01*
X133688900Y-88479499D01*
X133688900Y-88383480D01*
X133286483Y-87981063D01*
X132836056Y-88431489D01*
X132298654Y-88431489D01*
X131848227Y-87981063D01*
X131397801Y-88431489D01*
X130678000Y-88431489D01*
X130678000Y-88413938D01*
X130677999Y-88413928D01*
X130638956Y-88217643D01*
X130562369Y-88032746D01*
X130562367Y-88032741D01*
X130451178Y-87866337D01*
X130309662Y-87724821D01*
X130143258Y-87613632D01*
X130143256Y-87613631D01*
X130135388Y-87610372D01*
X130780663Y-87610372D01*
X130785786Y-87616935D01*
X130786900Y-87618436D01*
X130792293Y-87626091D01*
X130914866Y-87809533D01*
X130919887Y-87817466D01*
X130920848Y-87819071D01*
X130925389Y-87827090D01*
X130935048Y-87845161D01*
X130939220Y-87853450D01*
X130940020Y-87855141D01*
X130943798Y-87863663D01*
X131024283Y-88057972D01*
X131129099Y-88162789D01*
X131579526Y-87712362D01*
X132116928Y-87712362D01*
X132567355Y-88162788D01*
X133017781Y-87712362D01*
X133555184Y-87712362D01*
X133688900Y-87846078D01*
X133688900Y-87578646D01*
X133555184Y-87712362D01*
X133017781Y-87712362D01*
X132567355Y-87261935D01*
X132116928Y-87712362D01*
X131579526Y-87712362D01*
X131129100Y-87261935D01*
X130780663Y-87610372D01*
X130135388Y-87610372D01*
X129958356Y-87537043D01*
X129865200Y-87518514D01*
X129865200Y-88735172D01*
X129797095Y-88695852D01*
X129708078Y-88672000D01*
X129615922Y-88672000D01*
X129526905Y-88695852D01*
X129458800Y-88735172D01*
X129458800Y-87518514D01*
X129458799Y-87518514D01*
X129365643Y-87537043D01*
X129180743Y-87613631D01*
X129180741Y-87613632D01*
X129014337Y-87724821D01*
X128872821Y-87866337D01*
X128761632Y-88032741D01*
X128761630Y-88032746D01*
X128685043Y-88217643D01*
X128646000Y-88413928D01*
X128138500Y-88413928D01*
X128138500Y-88413884D01*
X128099436Y-88217498D01*
X128022810Y-88032507D01*
X128022810Y-88032506D01*
X127911568Y-87866020D01*
X127769979Y-87724431D01*
X127603493Y-87613189D01*
X127418501Y-87536563D01*
X127222116Y-87497500D01*
X127021884Y-87497500D01*
X126825498Y-87536563D01*
X126640506Y-87613189D01*
X126474020Y-87724431D01*
X126332431Y-87866020D01*
X126221189Y-88032506D01*
X126144563Y-88217498D01*
X126105500Y-88413884D01*
X125598500Y-88413884D01*
X125559436Y-88217498D01*
X125482810Y-88032507D01*
X125482810Y-88032506D01*
X125371568Y-87866020D01*
X125229979Y-87724431D01*
X125063493Y-87613189D01*
X124878501Y-87536563D01*
X124682116Y-87497500D01*
X124481884Y-87497500D01*
X124285498Y-87536563D01*
X124100506Y-87613189D01*
X123934020Y-87724431D01*
X123792431Y-87866020D01*
X123681189Y-88032506D01*
X123604563Y-88217498D01*
X123565500Y-88413884D01*
X123058500Y-88413884D01*
X123058500Y-87842794D01*
X123047696Y-87768639D01*
X123047695Y-87768637D01*
X123047695Y-87768635D01*
X123047694Y-87768634D01*
X122991777Y-87654257D01*
X122991776Y-87654254D01*
X122901746Y-87564224D01*
X122901742Y-87564222D01*
X122787365Y-87508305D01*
X122787364Y-87508304D01*
X122713212Y-87497500D01*
X122713206Y-87497500D01*
X121370794Y-87497500D01*
X121370787Y-87497500D01*
X121296635Y-87508304D01*
X121296634Y-87508305D01*
X121182257Y-87564222D01*
X121182252Y-87564225D01*
X121095497Y-87650981D01*
X121024088Y-87695850D01*
X120940283Y-87705292D01*
X120860680Y-87677438D01*
X120801046Y-87617804D01*
X120773192Y-87538201D01*
X120772000Y-87516984D01*
X120772000Y-86942649D01*
X121380600Y-86942649D01*
X121380600Y-87043819D01*
X121417181Y-87080400D01*
X122143702Y-87080400D01*
X122230867Y-86993234D01*
X122768270Y-86993234D01*
X122875076Y-87100040D01*
X122877967Y-87100577D01*
X122880848Y-87101228D01*
X122895019Y-87105012D01*
X122925965Y-87114573D01*
X122939808Y-87119445D01*
X122942555Y-87120533D01*
X122956003Y-87126473D01*
X123100459Y-87197095D01*
X123114231Y-87204548D01*
X123116938Y-87206161D01*
X123130051Y-87214727D01*
X123158175Y-87234807D01*
X123170537Y-87244430D01*
X123172942Y-87246467D01*
X123184463Y-87257072D01*
X123294874Y-87367483D01*
X123365369Y-87296988D01*
X125341025Y-87296988D01*
X125470227Y-87383318D01*
X125477835Y-87388676D01*
X125479337Y-87389790D01*
X125486668Y-87395512D01*
X125502507Y-87408511D01*
X125509537Y-87414575D01*
X125510923Y-87415831D01*
X125517671Y-87422254D01*
X125673746Y-87578329D01*
X125680169Y-87585077D01*
X125681425Y-87586463D01*
X125687489Y-87593493D01*
X125700488Y-87609332D01*
X125706210Y-87616663D01*
X125707324Y-87618165D01*
X125712682Y-87625773D01*
X125792955Y-87745911D01*
X125826505Y-87712361D01*
X125376078Y-87261935D01*
X125341025Y-87296988D01*
X123365369Y-87296988D01*
X123669123Y-86993234D01*
X124206525Y-86993234D01*
X124318098Y-87104807D01*
X124410560Y-87086416D01*
X124419681Y-87084832D01*
X124421532Y-87084557D01*
X124430808Y-87083412D01*
X124451198Y-87081404D01*
X124460453Y-87080721D01*
X124462322Y-87080629D01*
X124471639Y-87080400D01*
X124692361Y-87080400D01*
X124701678Y-87080629D01*
X124703547Y-87080721D01*
X124712802Y-87081404D01*
X124733192Y-87083412D01*
X124742468Y-87084557D01*
X124744319Y-87084832D01*
X124753441Y-87086416D01*
X124969923Y-87129477D01*
X124970912Y-87129699D01*
X125107376Y-86993234D01*
X125644780Y-86993234D01*
X126095207Y-87443660D01*
X126099314Y-87439553D01*
X128074970Y-87439553D01*
X128213746Y-87578329D01*
X128220169Y-87585077D01*
X128221425Y-87586463D01*
X128227489Y-87593493D01*
X128240488Y-87609332D01*
X128246210Y-87616663D01*
X128247324Y-87618165D01*
X128252682Y-87625773D01*
X128375309Y-87809298D01*
X128380302Y-87817185D01*
X128381263Y-87818789D01*
X128385831Y-87826853D01*
X128392284Y-87838926D01*
X128398611Y-87827090D01*
X128403152Y-87819071D01*
X128404113Y-87817466D01*
X128409134Y-87809533D01*
X128531707Y-87626091D01*
X128537100Y-87618436D01*
X128538214Y-87616935D01*
X128543895Y-87609658D01*
X128556893Y-87593819D01*
X128562967Y-87586777D01*
X128564224Y-87585390D01*
X128569988Y-87579334D01*
X128252589Y-87261935D01*
X128074970Y-87439553D01*
X126099314Y-87439553D01*
X126545633Y-86993234D01*
X127083036Y-86993234D01*
X127170202Y-87080400D01*
X127232361Y-87080400D01*
X127241678Y-87080629D01*
X127243547Y-87080721D01*
X127252802Y-87081404D01*
X127273192Y-87083412D01*
X127282468Y-87084557D01*
X127284319Y-87084832D01*
X127293441Y-87086416D01*
X127509923Y-87129477D01*
X127518937Y-87131500D01*
X127520752Y-87131954D01*
X127529779Y-87134451D01*
X127549386Y-87140399D01*
X127558207Y-87143312D01*
X127559968Y-87143942D01*
X127568655Y-87147293D01*
X127753332Y-87223789D01*
X127983887Y-86993234D01*
X128521291Y-86993234D01*
X128856619Y-87328562D01*
X128957533Y-87261134D01*
X128965466Y-87256113D01*
X128967071Y-87255152D01*
X128975090Y-87250611D01*
X128993161Y-87240952D01*
X129001450Y-87236780D01*
X129003141Y-87235980D01*
X129011662Y-87232202D01*
X129215491Y-87147773D01*
X129224178Y-87144422D01*
X129225939Y-87143792D01*
X129234762Y-87140878D01*
X129254370Y-87134930D01*
X129263395Y-87132434D01*
X129265210Y-87131980D01*
X129274224Y-87129957D01*
X129288200Y-87127176D01*
X129422142Y-86993234D01*
X129959546Y-86993234D01*
X130118027Y-87151715D01*
X130312338Y-87232202D01*
X130320859Y-87235980D01*
X130322550Y-87236780D01*
X130330839Y-87240952D01*
X130348910Y-87250611D01*
X130356929Y-87255152D01*
X130358534Y-87256113D01*
X130366467Y-87261134D01*
X130501962Y-87351669D01*
X130860397Y-86993234D01*
X131397801Y-86993234D01*
X131848227Y-87443660D01*
X132298654Y-86993234D01*
X132836056Y-86993234D01*
X133286483Y-87443660D01*
X133688900Y-87041244D01*
X133688900Y-86945224D01*
X133286483Y-86542807D01*
X132836056Y-86993234D01*
X132298654Y-86993234D01*
X131848227Y-86542807D01*
X131397801Y-86993234D01*
X130860397Y-86993234D01*
X130860398Y-86993233D01*
X130409972Y-86542807D01*
X129959546Y-86993234D01*
X129422142Y-86993234D01*
X129422143Y-86993233D01*
X128971717Y-86542807D01*
X128521291Y-86993234D01*
X127983887Y-86993234D01*
X127983888Y-86993233D01*
X127533462Y-86542807D01*
X127083036Y-86993234D01*
X126545633Y-86993234D01*
X126095207Y-86542807D01*
X125644780Y-86993234D01*
X125107376Y-86993234D01*
X125107377Y-86993233D01*
X124656951Y-86542807D01*
X124206525Y-86993234D01*
X123669123Y-86993234D01*
X123218696Y-86542807D01*
X122768270Y-86993234D01*
X122230867Y-86993234D01*
X121780441Y-86542807D01*
X121380600Y-86942649D01*
X120772000Y-86942649D01*
X120772000Y-86405247D01*
X121380600Y-86405247D01*
X121511740Y-86274106D01*
X122049142Y-86274106D01*
X122499569Y-86724533D01*
X122949995Y-86274106D01*
X123487397Y-86274106D01*
X123937824Y-86724533D01*
X124388250Y-86274106D01*
X124925652Y-86274106D01*
X125376079Y-86724533D01*
X125826505Y-86274106D01*
X126363908Y-86274106D01*
X126814334Y-86724533D01*
X127264761Y-86274106D01*
X127802163Y-86274106D01*
X128252589Y-86724533D01*
X128703016Y-86274106D01*
X129240418Y-86274106D01*
X129690845Y-86724533D01*
X130141271Y-86274106D01*
X130678673Y-86274106D01*
X131129100Y-86724533D01*
X131579526Y-86274106D01*
X132116928Y-86274106D01*
X132567355Y-86724533D01*
X133017781Y-86274106D01*
X133555184Y-86274106D01*
X133688900Y-86407822D01*
X133688900Y-86140391D01*
X133555184Y-86274106D01*
X133017781Y-86274106D01*
X132818275Y-86074600D01*
X132316435Y-86074600D01*
X132116928Y-86274106D01*
X131579526Y-86274106D01*
X131380020Y-86074600D01*
X130878180Y-86074600D01*
X130678673Y-86274106D01*
X130141271Y-86274106D01*
X129941765Y-86074600D01*
X129439925Y-86074600D01*
X129240418Y-86274106D01*
X128703016Y-86274106D01*
X128503510Y-86074600D01*
X128001670Y-86074600D01*
X127802163Y-86274106D01*
X127264761Y-86274106D01*
X127065255Y-86074600D01*
X126563415Y-86074600D01*
X126363908Y-86274106D01*
X125826505Y-86274106D01*
X125626999Y-86074600D01*
X125125159Y-86074600D01*
X124925652Y-86274106D01*
X124388250Y-86274106D01*
X124188744Y-86074600D01*
X123686904Y-86074600D01*
X123487397Y-86274106D01*
X122949995Y-86274106D01*
X122750489Y-86074600D01*
X122248649Y-86074600D01*
X122049142Y-86274106D01*
X121511740Y-86274106D01*
X121380600Y-86142966D01*
X121380600Y-86405247D01*
X120772000Y-86405247D01*
X120772000Y-85655500D01*
X120790766Y-85573279D01*
X120843349Y-85507343D01*
X120919332Y-85470751D01*
X120961500Y-85466000D01*
X134108000Y-85466000D01*
X134190221Y-85484766D01*
G37*
%TD.AperFunction*%
%TD*%
M02*
